STARTFONT 2.1
COMMENT
COMMENT Converted from OpenType font "UbuntuMono-Bold.ttf" by "otf2bdf 3.0".
COMMENT
FONT -FreeType-Ubuntu Mono-Bold-R-Normal--39-280-100-100-P-174-ISO10646-1
SIZE 28 100 100
FONTBOUNDINGBOX 41 39 -15 -7
STARTPROPERTIES 19
FOUNDRY "FreeType"
FAMILY_NAME "Ubuntu Mono"
WEIGHT_NAME "Bold"
SLANT "R"
SETWIDTH_NAME "Normal"
ADD_STYLE_NAME ""
PIXEL_SIZE 39
POINT_SIZE 280
RESOLUTION_X 100
RESOLUTION_Y 100
SPACING "P"
AVERAGE_WIDTH 174
CHARSET_REGISTRY "ISO10646"
CHARSET_ENCODING "1"
FONT_ASCENT 32
FONT_DESCENT 6
COPYRIGHT "Copyright 2011 Canonical Ltd.  Licensed under the Ubuntu Font Licence 1.0"
_OTF_FONTFILE "UbuntuMono-Bold.ttf"
_OTF_PSNAME "UbuntuMono-Bold"
ENDPROPERTIES
CHARS 1224
STARTCHAR 0000
ENCODING 0
SWIDTH 488 0
DWIDTH 19 0
BBX 0 0 0 0
BITMAP
ENDCHAR
STARTCHAR 0008
ENCODING 8
SWIDTH 488 0
DWIDTH 19 0
BBX 0 0 0 0
BITMAP
ENDCHAR
STARTCHAR 0009
ENCODING 9
SWIDTH 488 0
DWIDTH 19 0
BBX 0 0 0 0
BITMAP
ENDCHAR
STARTCHAR 000D
ENCODING 13
SWIDTH 488 0
DWIDTH 19 0
BBX 0 0 0 0
BITMAP
ENDCHAR
STARTCHAR 001D
ENCODING 29
SWIDTH 488 0
DWIDTH 19 0
BBX 0 0 0 0
BITMAP
ENDCHAR
STARTCHAR 0020
ENCODING 32
SWIDTH 488 0
DWIDTH 19 0
BBX 0 0 0 0
BITMAP
ENDCHAR
STARTCHAR 0021
ENCODING 33
SWIDTH 488 0
DWIDTH 19 0
BBX 7 24 6 0
BITMAP
7C
7C
7C
7C
7C
7C
7C
7C
7C
7C
7C
7C
7C
7C
3C
00
00
00
38
7C
7E
FE
7E
7C
ENDCHAR
STARTCHAR 0022
ENCODING 34
SWIDTH 488 0
DWIDTH 19 0
BBX 13 11 3 15
BITMAP
F8F8
F8F8
F8F8
F8F8
78F8
78F8
7878
7878
7870
7870
3070
ENDCHAR
STARTCHAR 0023
ENCODING 35
SWIDTH 488 0
DWIDTH 19 0
BBX 18 24 1 0
BITMAP
078F00
078F00
078F00
078F00
078F00
0F1E00
FFFFC0
FFFFC0
FFFFC0
FFFFC0
1E3C00
1E3C00
1E3C00
1E3C00
FFFFC0
FFFFC0
FFFFC0
FFFFC0
3C7800
3C7800
3C7800
78F000
78F000
78F000
ENDCHAR
STARTCHAR 0024
ENCODING 36
SWIDTH 488 0
DWIDTH 19 0
BBX 17 31 1 -4
BITMAP
01E000
01E000
01E000
01E000
07FE00
1FFF00
3FFF00
3FFF00
7E0200
7C0000
7C0000
7E0000
7F8000
3FF000
1FFC00
0FFE00
01FF00
007F80
001F80
000F80
000F80
200F80
7E3F80
7FFF00
FFFF00
3FFC00
07E000
03E000
03E000
03E000
03E000
ENDCHAR
STARTCHAR 0025
ENCODING 37
SWIDTH 488 0
DWIDTH 19 0
BBX 19 26 0 -1
BITMAP
080000
3F00E0
7F01C0
7783C0
738380
F38700
E38F00
F38E00
739C00
7FBC00
7F3800
3E7000
00F000
00E200
01CF80
03DFC0
039DE0
073CE0
0F38E0
0E38E0
1E38E0
3C3CE0
381FE0
781FC0
F00F80
000200
ENDCHAR
STARTCHAR 0026
ENCODING 38
SWIDTH 488 0
DWIDTH 19 0
BBX 18 25 1 0
BITMAP
010000
0FE000
1FF000
3FF800
3C7800
3C7C00
7C7C00
3C7800
3C7800
3EF000
1FF000
1FE000
1F8780
3FC780
7FE780
7BFF00
F1FF00
F0FF00
F07E00
F03E00
F03F00
FCFF00
7FFF80
3FF780
1FC7C0
ENDCHAR
STARTCHAR 0027
ENCODING 39
SWIDTH 488 0
DWIDTH 19 0
BBX 5 11 7 15
BITMAP
F8
F8
F8
F8
F8
F8
78
78
78
78
70
ENDCHAR
STARTCHAR 0028
ENCODING 40
SWIDTH 488 0
DWIDTH 19 0
BBX 12 33 4 -6
BITMAP
00E0
01F0
03F0
07C0
0F80
1F00
3E00
3E00
7C00
7C00
7800
F800
F800
F000
F000
F000
F000
F000
F000
F000
F000
F800
F800
7800
7C00
3E00
3E00
1F00
0F80
0FC0
07F0
01E0
00E0
ENDCHAR
STARTCHAR 0029
ENCODING 41
SWIDTH 488 0
DWIDTH 19 0
BBX 12 34 4 -7
BITMAP
4000
6000
F800
FC00
7E00
3F00
1F80
0F80
07C0
07C0
03E0
03E0
01E0
01E0
01F0
01F0
01F0
01F0
01F0
01F0
01F0
01F0
01E0
03E0
03E0
03C0
07C0
0F80
1F80
3F00
7E00
FC00
F800
6000
ENDCHAR
STARTCHAR 002A
ENCODING 42
SWIDTH 488 0
DWIDTH 19 0
BBX 16 15 2 9
BITMAP
03C0
03C0
03C0
63C6
739E
FFBE
FFFF
FFFF
07C0
0FE0
1EF0
3EF8
7E7C
1C78
0C20
ENDCHAR
STARTCHAR 002B
ENCODING 43
SWIDTH 488 0
DWIDTH 19 0
BBX 16 18 2 1
BITMAP
03C0
03C0
03C0
03C0
03C0
03C0
03C0
FFFF
FFFF
FFFF
FFFF
03C0
03C0
03C0
03C0
03C0
03C0
03C0
ENDCHAR
STARTCHAR 002C
ENCODING 44
SWIDTH 488 0
DWIDTH 19 0
BBX 8 12 5 -5
BITMAP
3E
3F
3F
3F
3F
1F
07
0F
3E
FC
F8
E0
ENDCHAR
STARTCHAR 002D
ENCODING 45
SWIDTH 488 0
DWIDTH 19 0
BBX 11 4 4 8
BITMAP
FFE0
FFE0
FFE0
FFE0
ENDCHAR
STARTCHAR 002E
ENCODING 46
SWIDTH 488 0
DWIDTH 19 0
BBX 7 6 6 1
BITMAP
7C
7E
FE
FE
7E
7C
ENDCHAR
STARTCHAR 002F
ENCODING 47
SWIDTH 488 0
DWIDTH 19 0
BBX 15 33 2 -6
BITMAP
003E
003E
003E
003C
007C
007C
0078
00F8
00F8
00F8
01F0
01F0
01F0
03E0
03E0
03E0
07C0
07C0
07C0
0F80
0F80
0F80
1F00
1F00
1F00
3E00
3E00
3E00
7C00
7C00
7C00
F800
F800
ENDCHAR
STARTCHAR 0030
ENCODING 48
SWIDTH 488 0
DWIDTH 19 0
BBX 17 26 1 -1
BITMAP
00C000
07F800
1FFC00
1FFE00
3FFF00
7C1F00
7C0F00
780F80
780F80
780780
F9C780
F9E780
F9E780
F9E780
F9C780
F80780
780F80
780F80
780F80
7C0F00
7E1F00
3FFE00
1FFE00
1FFC00
07F800
008000
ENDCHAR
STARTCHAR 0031
ENCODING 49
SWIDTH 488 0
DWIDTH 19 0
BBX 16 24 2 0
BITMAP
01E0
03E0
07E0
1FE0
7FE0
FFE0
FFE0
7BE0
63E0
03E0
03E0
03E0
03E0
03E0
03E0
03E0
03E0
03E0
03E0
03E0
7FFF
7FFF
7FFF
7FFF
ENDCHAR
STARTCHAR 0032
ENCODING 50
SWIDTH 488 0
DWIDTH 19 0
BBX 16 25 2 0
BITMAP
0300
3FF0
7FF8
FFFC
FFFC
707E
003E
003E
003E
007C
007C
00F8
01F8
03F0
07E0
0FC0
1F80
3F00
7E00
7C00
7C00
FFFF
FFFF
FFFF
FFFF
ENDCHAR
STARTCHAR 0033
ENCODING 51
SWIDTH 488 0
DWIDTH 19 0
BBX 16 26 2 -1
BITMAP
0780
3FF0
FFF8
FFFC
7FFC
607C
003E
003E
003C
007C
0FF8
0FF0
0FF8
0FFC
01FE
003E
003E
001F
001F
003E
807E
FFFE
FFFC
FFF8
FFF0
0200
ENDCHAR
STARTCHAR 0034
ENCODING 52
SWIDTH 488 0
DWIDTH 19 0
BBX 17 24 1 0
BITMAP
003E00
007E00
00FE00
01FE00
01FE00
03FE00
07FE00
0FBE00
0F3E00
1E3E00
3E3E00
3C3E00
7C3E00
783E00
FFFF80
FFFF80
FFFF80
FFFF80
003E00
003E00
003E00
003E00
003E00
003E00
ENDCHAR
STARTCHAR 0035
ENCODING 53
SWIDTH 488 0
DWIDTH 19 0
BBX 15 25 2 -1
BITMAP
3FFC
3FFC
3FFC
3FFC
3C00
3C00
3C00
3C00
3C00
3FC0
7FF0
7FF8
1FFC
007E
003E
003E
003E
003E
003E
807E
FFFC
FFFC
FFF8
FFE0
0400
ENDCHAR
STARTCHAR 0036
ENCODING 54
SWIDTH 488 0
DWIDTH 19 0
BBX 16 25 2 -1
BITMAP
007C
01FC
07FC
0FFE
1FC0
3F00
7E00
7C00
7C00
FFF0
FFFC
FFFC
FFFE
F83E
F81F
F81F
F81F
F81F
F81E
7C3E
7FFE
3FFC
3FF8
0FF0
0180
ENDCHAR
STARTCHAR 0037
ENCODING 55
SWIDTH 488 0
DWIDTH 19 0
BBX 16 24 2 0
BITMAP
FFFF
FFFF
FFFF
FFFF
003E
007C
007C
00F8
00F0
01F0
01F0
03E0
03E0
03C0
07C0
07C0
0780
0F80
0F80
0F80
0F00
1F00
1F00
1F00
ENDCHAR
STARTCHAR 0038
ENCODING 56
SWIDTH 488 0
DWIDTH 19 0
BBX 17 26 1 -1
BITMAP
01C000
0FFC00
1FFE00
3FFF00
3F3F00
7C1F00
7C0F00
7C0F00
7C0F00
7E1F00
3F3E00
1FFC00
0FF800
1FFC00
3EFE00
7C3F00
780F80
780F80
F80F80
F80F80
7C0F80
7F7F00
7FFF00
3FFE00
0FF800
008000
ENDCHAR
STARTCHAR 0039
ENCODING 57
SWIDTH 488 0
DWIDTH 19 0
BBX 16 25 2 0
BITMAP
03C0
1FF0
3FF8
7FFC
7EFE
F83E
F83E
F01E
F01F
F81F
F81F
FC1F
7FFF
7FFF
3FFE
0FFE
003E
007C
00FC
01F8
07F8
7FF0
7FE0
7F80
7C00
ENDCHAR
STARTCHAR 003A
ENCODING 58
SWIDTH 488 0
DWIDTH 19 0
BBX 7 18 6 0
BITMAP
7C
7E
FE
FE
FE
7C
18
00
00
00
00
00
7C
7E
FE
FE
7E
7C
ENDCHAR
STARTCHAR 003B
ENCODING 59
SWIDTH 488 0
DWIDTH 19 0
BBX 8 24 5 -6
BITMAP
3E
3F
7F
7F
7F
3E
0C
00
00
00
00
00
3E
7F
7F
7F
3F
3F
0F
0E
7E
FC
F0
C0
ENDCHAR
STARTCHAR 003C
ENCODING 60
SWIDTH 488 0
DWIDTH 19 0
BBX 16 16 2 2
BITMAP
000E
003E
00FF
07FF
1FFC
7FF0
FF80
FC00
FC00
FF80
7FF0
1FFC
07FF
00FF
003E
000E
ENDCHAR
STARTCHAR 003D
ENCODING 61
SWIDTH 488 0
DWIDTH 19 0
BBX 16 12 2 4
BITMAP
FFFF
FFFF
FFFF
FFFF
0000
0000
0000
0000
FFFF
FFFF
FFFF
FFFF
ENDCHAR
STARTCHAR 003E
ENCODING 62
SWIDTH 488 0
DWIDTH 19 0
BBX 16 16 2 2
BITMAP
6000
F800
FF00
FFC0
7FF8
0FFE
03FF
007F
007F
01FF
0FFE
3FF8
FFC0
FF00
FC00
6000
ENDCHAR
STARTCHAR 003F
ENCODING 63
SWIDTH 488 0
DWIDTH 19 0
BBX 14 25 3 0
BITMAP
0300
7FE0
FFF0
FFF8
79FC
40FC
007C
007C
00F8
01F8
03F0
07E0
0FC0
0F80
0F00
1F00
0000
0000
0000
0F00
1F80
1F80
1F80
1F80
0F00
ENDCHAR
STARTCHAR 0040
ENCODING 64
SWIDTH 488 0
DWIDTH 19 0
BBX 17 30 1 -5
BITMAP
00E000
07FC00
0FFE00
1FFF00
3E0F00
3C0780
780780
700780
F0FF80
F1FF80
F3FF80
E3FF80
E3C780
E3C780
E7C780
E7C780
E7C780
E3C780
E3C780
E3E780
F3FF80
F1FF80
70FF80
781E00
780000
3E0000
1F8100
0FFF00
07FF00
01FF00
ENDCHAR
STARTCHAR 0041
ENCODING 65
SWIDTH 488 0
DWIDTH 19 0
BBX 19 24 0 0
BITMAP
01F800
01F800
03F800
03FC00
03FC00
07BC00
07BC00
07BE00
079E00
0F1E00
0F1F00
0F1F00
1F0F00
1F0F00
1FFF80
1FFF80
3FFF80
3FFFC0
3C07C0
7C07C0
7C07C0
7C07E0
7C03E0
F803E0
ENDCHAR
STARTCHAR 0042
ENCODING 66
SWIDTH 488 0
DWIDTH 19 0
BBX 16 24 2 0
BITMAP
FFF0
FFF8
FFFC
FFFE
F83E
F83E
F83E
F83E
F83E
FFFC
FFF8
FFF8
FFFE
F8FE
F81F
F81F
F80F
F81F
F81F
F83F
FFFE
FFFE
FFFC
FFF0
ENDCHAR
STARTCHAR 0043
ENCODING 67
SWIDTH 488 0
DWIDTH 19 0
BBX 17 26 1 -1
BITMAP
003000
03FF00
0FFF80
1FFF80
3FFF00
3F0100
7E0000
7C0000
7C0000
F80000
F80000
F80000
F80000
F80000
F80000
F80000
F80000
FC0000
7C0000
7E0000
3F0100
3FFF00
1FFF80
0FFF80
03FF00
002000
ENDCHAR
STARTCHAR 0044
ENCODING 68
SWIDTH 488 0
DWIDTH 19 0
BBX 16 24 2 0
BITMAP
FFE0
FFF0
FFF8
FFFC
F87E
F83E
F81F
F81F
F81F
F81F
F81F
F80F
F81F
F81F
F81F
F81F
F81F
F83F
F83E
F87E
FFFC
FFF8
FFF0
FFC0
ENDCHAR
STARTCHAR 0045
ENCODING 69
SWIDTH 488 0
DWIDTH 19 0
BBX 16 24 2 0
BITMAP
FFFE
FFFE
FFFE
FFFE
F800
F800
F800
F800
F800
FFFC
FFFC
FFFC
FFFC
F800
F800
F800
F800
F800
F800
F800
FFFF
FFFF
FFFF
FFFF
ENDCHAR
STARTCHAR 0046
ENCODING 70
SWIDTH 488 0
DWIDTH 19 0
BBX 15 24 2 0
BITMAP
FFFE
FFFE
FFFE
FFFE
F800
F800
F800
F800
F800
F800
FFFC
FFFC
FFFC
FFFC
F800
F800
F800
F800
F800
F800
F800
F800
F800
F800
ENDCHAR
STARTCHAR 0047
ENCODING 71
SWIDTH 488 0
DWIDTH 19 0
BBX 17 26 1 -1
BITMAP
007000
03FF00
0FFF80
1FFF80
3FFF00
3F0100
7E0000
7C0000
7C0000
F80000
F80000
F80000
F80F80
F80F80
F80F80
F80F80
F80F80
F80F80
7C0F80
7C0F80
3E0F80
3FFF80
1FFF80
0FFF80
07FF80
006000
ENDCHAR
STARTCHAR 0048
ENCODING 72
SWIDTH 488 0
DWIDTH 19 0
BBX 16 24 2 0
BITMAP
F81F
F81F
F81F
F81F
F81F
F81F
F81F
F81F
F81F
FFFF
FFFF
FFFF
FFFF
F81F
F81F
F81F
F81F
F81F
F81F
F81F
F81F
F81F
F81F
F81F
ENDCHAR
STARTCHAR 0049
ENCODING 73
SWIDTH 488 0
DWIDTH 19 0
BBX 15 24 2 0
BITMAP
FFFE
FFFE
FFFE
FFFE
07C0
07C0
07C0
07C0
07C0
07C0
07C0
07C0
07C0
07C0
07C0
07C0
07C0
07C0
07C0
07C0
FFFE
FFFE
FFFE
FFFE
ENDCHAR
STARTCHAR 004A
ENCODING 74
SWIDTH 488 0
DWIDTH 19 0
BBX 15 25 2 -1
BITMAP
3FFE
3FFE
3FFE
3FFE
003E
003E
003E
003E
003E
003E
003E
003E
003E
003E
003E
003E
003E
003E
003E
607E
7FFC
FFFC
FFF8
7FE0
0200
ENDCHAR
STARTCHAR 004B
ENCODING 75
SWIDTH 488 0
DWIDTH 19 0
BBX 17 24 2 0
BITMAP
F81F00
F83E00
F87E00
F87C00
F8FC00
F8F800
F9F000
FBF000
FBE000
FFC000
FF8000
FF8000
FFC000
FFE000
FBF000
F9F800
F8F800
F8FC00
F87E00
F83E00
F83F00
F81F00
F81F00
F81F80
ENDCHAR
STARTCHAR 004C
ENCODING 76
SWIDTH 488 0
DWIDTH 19 0
BBX 15 24 3 0
BITMAP
F800
F800
F800
F800
F800
F800
F800
F800
F800
F800
F800
F800
F800
F800
F800
F800
F800
F800
F800
F800
FFFE
FFFE
FFFE
FFFE
ENDCHAR
STARTCHAR 004D
ENCODING 77
SWIDTH 488 0
DWIDTH 19 0
BBX 18 24 1 0
BITMAP
780F00
7C0F00
7C1F00
7C1F00
7E1F00
7E3F80
7E3F80
773F80
777780
777780
F3F780
F3F780
F3E780
F3E780
F1E780
F00780
F00780
F00780
F00780
F00780
F00780
F00780
F007C0
F007C0
ENDCHAR
STARTCHAR 004E
ENCODING 78
SWIDTH 488 0
DWIDTH 19 0
BBX 16 24 2 0
BITMAP
F01F
F81F
F81F
FC1F
FC1F
FE1F
FE1F
FF1F
FF1F
F79F
F79F
F3DF
F3DF
F1FF
F1FF
F0FF
F0FF
F07F
F07F
F03F
F03F
F01F
F01F
F00F
ENDCHAR
STARTCHAR 004F
ENCODING 79
SWIDTH 488 0
DWIDTH 19 0
BBX 17 26 1 -1
BITMAP
00C000
0FF800
1FFC00
3FFE00
3FFF00
7C1F00
7C0F80
780F80
F80F80
F80F80
F80F80
F80F80
F80780
F80780
F80F80
F80F80
F80F80
F80F80
780F80
7C0F80
7E1F00
3FFF00
3FFE00
1FFC00
07F800
008000
ENDCHAR
STARTCHAR 0050
ENCODING 80
SWIDTH 488 0
DWIDTH 19 0
BBX 16 24 2 0
BITMAP
FFF0
FFFC
FFFE
FFFE
F83F
F81F
F81F
F81F
F81F
F81F
F81F
F87F
FFFE
FFFC
FFF8
FFC0
F800
F800
F800
F800
F800
F800
F800
F800
ENDCHAR
STARTCHAR 0051
ENCODING 81
SWIDTH 488 0
DWIDTH 19 0
BBX 17 30 1 -6
BITMAP
07F800
1FFC00
3FFE00
3FFF00
7E1F00
7C0F80
780F80
F80F80
F80F80
F80F80
F80F80
F80780
F80780
F80F80
F80F80
F80F80
F80F80
780F80
7C0F80
7C1F00
3FFF00
3FFE00
1FFC00
0FF800
01E000
01F000
01FC00
00FF80
007F80
001F80
ENDCHAR
STARTCHAR 0052
ENCODING 82
SWIDTH 488 0
DWIDTH 19 0
BBX 17 24 2 0
BITMAP
FFE000
FFF800
FFFC00
FFFE00
F87E00
F83E00
F83E00
F81E00
F83E00
F83E00
F87E00
FFFE00
FFFC00
FFF800
FFF000
F8F800
F8F800
F87C00
F87C00
F83E00
F83E00
F81F00
F81F00
F80F80
ENDCHAR
STARTCHAR 0053
ENCODING 83
SWIDTH 488 0
DWIDTH 19 0
BBX 16 26 2 -1
BITMAP
01C0
1FFC
3FFE
7FFC
FE7C
F800
F800
F800
F800
FC00
7F80
7FE0
3FF8
0FFC
03FE
007E
003F
001F
001F
001F
403F
FFFE
FFFE
FFFC
7FF0
0300
ENDCHAR
STARTCHAR 0054
ENCODING 84
SWIDTH 488 0
DWIDTH 19 0
BBX 17 24 1 0
BITMAP
FFFF80
FFFF80
FFFF80
FFFF80
03E000
03E000
03E000
03E000
03E000
03E000
03E000
03E000
03E000
03E000
03E000
03E000
03E000
03E000
03E000
03E000
03E000
03E000
03E000
03E000
ENDCHAR
STARTCHAR 0055
ENCODING 85
SWIDTH 488 0
DWIDTH 19 0
BBX 16 25 2 -1
BITMAP
F01F
F01F
F01F
F01F
F01F
F01F
F01F
F01F
F01F
F01F
F01F
F01F
F01F
F01F
F01F
F01F
F01F
F01F
F81F
F83E
FFFE
7FFE
3FFC
1FF0
0100
ENDCHAR
STARTCHAR 0056
ENCODING 86
SWIDTH 488 0
DWIDTH 19 0
BBX 18 24 1 0
BITMAP
F807C0
F807C0
F80F80
F80F80
780F80
7C0F80
7C0F80
7C0F00
3C1F00
3C1F00
3E1E00
3E1E00
1E3E00
1E3E00
1E3C00
1F3C00
0F7C00
0F7800
0FF800
07F800
07F000
07F000
03F000
03E000
ENDCHAR
STARTCHAR 0057
ENCODING 87
SWIDTH 488 0
DWIDTH 19 0
BBX 18 24 1 0
BITMAP
F007C0
F00780
F00780
F00780
F00780
F00780
F00780
F00780
F1E780
F1E780
F3E780
F3E780
F3F780
F3F780
777780
777780
773F80
7E3F80
7E3F80
7E1F80
7C1F80
7C1F00
7C0F00
780F00
ENDCHAR
STARTCHAR 0058
ENCODING 88
SWIDTH 488 0
DWIDTH 19 0
BBX 18 24 1 0
BITMAP
F80F80
7C0F80
7C1F00
3E1F00
3E3E00
1F3E00
1F7C00
0FFC00
07F800
07F000
03F000
03F000
07F000
07F800
0FF800
0F7C00
1F3E00
1F3E00
3E1F00
3E1F00
7C1F80
7C0F80
F80F80
F807C0
ENDCHAR
STARTCHAR 0059
ENCODING 89
SWIDTH 488 0
DWIDTH 19 0
BBX 18 24 1 0
BITMAP
F807C0
F80F80
F80F80
7C0F80
7C1F00
3E1F00
3E1E00
1E3E00
1F3C00
0F3C00
0FFC00
07F800
07F000
03F000
03E000
03E000
03E000
03E000
03E000
03E000
03E000
03E000
03E000
03E000
ENDCHAR
STARTCHAR 005A
ENCODING 90
SWIDTH 488 0
DWIDTH 19 0
BBX 16 24 2 0
BITMAP
FFFE
FFFE
FFFE
FFFE
007E
007C
00F8
01F8
01F0
03E0
03E0
07C0
07C0
0F80
1F00
1F00
3E00
3E00
7C00
7C00
FFFF
FFFF
FFFF
FFFF
ENDCHAR
STARTCHAR 005B
ENCODING 91
SWIDTH 488 0
DWIDTH 19 0
BBX 11 33 4 -6
BITMAP
FFE0
FFE0
FFE0
FFE0
F800
F800
F800
F800
F800
F800
F800
F800
F800
F800
F800
F800
F800
F800
F800
F800
F800
F800
F800
F800
F800
F800
F800
F800
F800
F800
FFE0
FFE0
FFE0
ENDCHAR
STARTCHAR 005C
ENCODING 92
SWIDTH 488 0
DWIDTH 19 0
BBX 15 33 2 -6
BITMAP
F800
F800
7C00
7C00
7C00
3E00
3E00
3E00
1F00
1F00
1F00
0F80
0F80
0F80
07C0
07C0
07C0
03E0
03E0
03E0
01F0
01F0
01F0
00F0
00F8
00F8
0078
007C
007C
007C
003E
003E
003E
ENDCHAR
STARTCHAR 005D
ENCODING 93
SWIDTH 488 0
DWIDTH 19 0
BBX 11 33 4 -6
BITMAP
FFE0
FFE0
FFE0
FFE0
03E0
03E0
03E0
03E0
03E0
03E0
03E0
03E0
03E0
03E0
03E0
03E0
03E0
03E0
03E0
03E0
03E0
03E0
03E0
03E0
03E0
03E0
03E0
03E0
03E0
03E0
FFE0
FFE0
FFE0
ENDCHAR
STARTCHAR 005E
ENCODING 94
SWIDTH 488 0
DWIDTH 19 0
BBX 18 14 1 10
BITMAP
03E000
03F000
07F000
07F800
0FFC00
1FFC00
1F7E00
3F3E00
3E1F00
7E1F80
FC0F80
F80FC0
780780
100600
ENDCHAR
STARTCHAR 005F
ENCODING 95
SWIDTH 488 0
DWIDTH 19 0
BBX 19 4 0 -6
BITMAP
FFFFE0
FFFFE0
FFFFE0
FFFFE0
ENDCHAR
STARTCHAR 0060
ENCODING 96
SWIDTH 488 0
DWIDTH 19 0
BBX 8 7 6 20
BITMAP
20
70
7C
FE
7F
1F
06
ENDCHAR
STARTCHAR 0061
ENCODING 97
SWIDTH 488 0
DWIDTH 19 0
BBX 15 19 2 0
BITMAP
0FC0
7FF8
3FFC
3FFC
30FE
003E
003E
001E
1FFE
7FFE
FFFE
FC1E
F81E
F01E
F81E
FE3E
FFFE
7FFE
3FFE
ENDCHAR
STARTCHAR 0062
ENCODING 98
SWIDTH 488 0
DWIDTH 19 0
BBX 16 27 2 0
BITMAP
3800
F800
F800
F800
F800
F800
F800
F800
F9E0
FFF8
FFFC
FFFE
FFFE
F83F
F81F
F81F
F81F
F81F
F81F
F81F
F81F
F81F
F83E
FFFE
FFFC
FFF8
7FF0
ENDCHAR
STARTCHAR 0063
ENCODING 99
SWIDTH 488 0
DWIDTH 19 0
BBX 16 19 2 0
BITMAP
01F8
0FFF
1FFE
3FFE
7FDE
7C00
F800
F800
F800
F800
F800
F800
F800
FC00
7E00
7FFF
3FFF
1FFF
07FF
ENDCHAR
STARTCHAR 0064
ENCODING 100
SWIDTH 488 0
DWIDTH 19 0
BBX 16 27 1 0
BITMAP
0007
001F
001F
001F
001F
001F
001F
001F
039F
1FFF
3FFF
3FFF
7F7F
7C1F
F81F
F81F
F81F
F81F
F81F
F81F
F81F
FC1F
7C1F
7FFF
3FFF
1FFF
0FFF
ENDCHAR
STARTCHAR 0065
ENCODING 101
SWIDTH 488 0
DWIDTH 19 0
BBX 17 19 1 0
BITMAP
01E000
0FFC00
1FFE00
3FFF00
3F3F00
7C0F80
7C0F80
F80F80
FFFF80
FFFF80
FFFF80
F80000
F80000
7C0000
7E0000
3FFF00
3FFF00
1FFF00
07FF00
ENDCHAR
STARTCHAR 0066
ENCODING 102
SWIDTH 488 0
DWIDTH 19 0
BBX 18 27 1 0
BITMAP
007F00
01FFC0
03FFC0
07FFC0
07E180
07C000
0F8000
0F8000
0F8000
FFFF80
FFFF80
FFFF80
FFFF80
0F8000
0F8000
0F8000
0F8000
0F8000
0F8000
0F8000
0F8000
0F8000
0F8000
0F8000
0F8000
0F8000
0F8000
ENDCHAR
STARTCHAR 0067
ENCODING 103
SWIDTH 488 0
DWIDTH 19 0
BBX 16 25 1 -7
BITMAP
01F0
0FFF
1FFF
3FFF
7F1F
7C1F
7C1F
F81F
F81F
F81F
F81F
F81F
7C1F
7E1F
7FFF
3FFF
1FFF
07DF
001F
001F
403F
7FFE
7FFE
7FFC
7FF0
ENDCHAR
STARTCHAR 0068
ENCODING 104
SWIDTH 488 0
DWIDTH 19 0
BBX 15 27 2 0
BITMAP
3800
F800
F800
F800
F800
F800
F800
F800
F9C0
FFF0
FFFC
FFFC
FFFE
F83E
F83E
F83E
F83E
F83E
F83E
F83E
F83E
F83E
F83E
F83E
F83E
F83E
F83E
ENDCHAR
STARTCHAR 0069
ENCODING 105
SWIDTH 488 0
DWIDTH 19 0
BBX 17 27 1 0
BITMAP
030000
078000
0FC000
0FC000
0FC000
078000
000000
000000
000000
FFC000
FFC000
FFC000
FFC000
07C000
07C000
07C000
07C000
07C000
07C000
07C000
07C000
03C000
03E080
03FF80
03FF80
01FF80
00FF80
ENDCHAR
STARTCHAR 006A
ENCODING 106
SWIDTH 488 0
DWIDTH 19 0
BBX 14 34 2 -7
BITMAP
0040
00F0
01F8
01F8
01F8
00F0
0000
0000
0000
7FFC
7FFC
7FFC
7FFC
007C
007C
007C
007C
007C
007C
007C
007C
007C
007C
007C
007C
007C
007C
0078
60F8
7FF8
FFF8
FFF0
7FE0
0200
ENDCHAR
STARTCHAR 006B
ENCODING 107
SWIDTH 488 0
DWIDTH 19 0
BBX 17 27 2 0
BITMAP
380000
F80000
F80000
F80000
F80000
F80000
F80000
F80000
F80000
F83F00
F87E00
F87C00
F8F800
F9F000
FBE000
FBC000
FF8000
FFC000
FFE000
FBF000
F9F800
F8F800
F87C00
F87E00
F83E00
F81F00
F81F80
ENDCHAR
STARTCHAR 006C
ENCODING 108
SWIDTH 488 0
DWIDTH 19 0
BBX 17 27 1 0
BITMAP
FFC000
FFC000
FFC000
FFC000
07C000
07C000
07C000
07C000
07C000
07C000
07C000
07C000
07C000
07C000
07C000
07C000
07C000
07C000
07C000
07C000
07C000
03C000
03E080
03FF80
03FF80
01FF80
00FF80
ENDCHAR
STARTCHAR 006D
ENCODING 109
SWIDTH 488 0
DWIDTH 19 0
BBX 17 18 1 0
BITMAP
FFFF00
FFFF00
FFFF80
FFFF80
F3C780
F1E780
F1E780
F1E780
F1E780
F1E780
F1E780
F00780
F00780
F00780
F00780
F00780
F00780
F00780
ENDCHAR
STARTCHAR 006E
ENCODING 110
SWIDTH 488 0
DWIDTH 19 0
BBX 15 19 2 0
BITMAP
07C0
FFF0
FFF8
FFFC
FFFE
F83E
F83E
F83E
F83E
F83E
F83E
F83E
F83E
F83E
F83E
F83E
F83E
F83E
F83E
ENDCHAR
STARTCHAR 006F
ENCODING 111
SWIDTH 488 0
DWIDTH 19 0
BBX 17 20 1 -1
BITMAP
01E000
0FF800
1FFE00
3FFE00
7F7F00
7C1F80
7C0F80
F80F80
F80F80
F80F80
F80F80
F80F80
F80F80
7C0F80
7C1F00
3FFF00
3FFE00
1FFC00
07F800
008000
ENDCHAR
STARTCHAR 0070
ENCODING 112
SWIDTH 488 0
DWIDTH 19 0
BBX 16 25 2 -6
BITMAP
07C0
FFF0
FFFC
FFFC
FCFE
F83F
F81F
F81F
F81F
F81F
F81F
F81F
F81F
F81F
F83F
FFFE
FFFE
FFFC
FFF8
F800
F800
F800
F800
F800
F800
ENDCHAR
STARTCHAR 0071
ENCODING 113
SWIDTH 488 0
DWIDTH 19 0
BBX 16 25 1 -6
BITMAP
01F0
0FFF
1FFF
3FFF
7FBF
7C1F
7C1F
F81F
F81F
F81F
F81F
F81F
F81F
7C1F
7C1F
7FFF
3FFF
1FFF
0FFF
001F
001F
001F
001F
001F
001F
ENDCHAR
STARTCHAR 0072
ENCODING 114
SWIDTH 488 0
DWIDTH 19 0
BBX 15 19 3 0
BITMAP
02E0
3FFE
FFFE
FFFC
FFFC
F800
F800
F800
F800
F800
F800
F800
F800
F800
F800
F800
F800
F800
F800
ENDCHAR
STARTCHAR 0073
ENCODING 115
SWIDTH 488 0
DWIDTH 19 0
BBX 15 19 2 0
BITMAP
03F0
1FFC
3FFC
7FFC
7E3C
7800
7C00
7E00
7FC0
3FF8
0FFC
03FE
007E
003E
403E
7FFE
FFFE
FFFC
3FF0
ENDCHAR
STARTCHAR 0074
ENCODING 116
SWIDTH 488 0
DWIDTH 19 0
BBX 17 24 1 0
BITMAP
008000
078000
078000
078000
078000
078000
FFFF80
FFFF80
FFFF80
FFFF80
078000
078000
078000
078000
078000
078000
078000
078000
078000
07C080
07FF80
07FF80
03FF80
01FF80
ENDCHAR
STARTCHAR 0075
ENCODING 117
SWIDTH 488 0
DWIDTH 19 0
BBX 15 18 2 0
BITMAP
F83E
F83E
F83E
F83E
F83E
F83E
F83E
F83E
F83E
F83E
F83E
F83E
F83E
7C3E
7FFE
7FFE
3FFE
1FFE
ENDCHAR
STARTCHAR 0076
ENCODING 118
SWIDTH 488 0
DWIDTH 19 0
BBX 18 18 1 0
BITMAP
F807C0
F80780
F80F80
7C0F80
7C0F00
7C1F00
3E1F00
3E3E00
3E3E00
1F3C00
1F7C00
0F7C00
0FF800
0FF800
07F000
07F000
03E000
03E000
ENDCHAR
STARTCHAR 0077
ENCODING 119
SWIDTH 488 0
DWIDTH 19 0
BBX 19 18 0 0
BITMAP
F801E0
7801E0
7801E0
78F1E0
78F1E0
78F1C0
79F1C0
79F1C0
79FBC0
79FBC0
3BBBC0
3BBFC0
3B9F80
3F1F80
3F1F80
1F0F80
1E0F80
1E0F00
ENDCHAR
STARTCHAR 0078
ENCODING 120
SWIDTH 488 0
DWIDTH 19 0
BBX 17 18 1 0
BITMAP
F80F80
7C1F00
3E1F00
1E3E00
1F7C00
0FFC00
07F800
07F000
03F000
03F000
07F800
0FFC00
1F7C00
1E3E00
3E1F00
7C1F00
780F80
F80F80
ENDCHAR
STARTCHAR 0079
ENCODING 121
SWIDTH 488 0
DWIDTH 19 0
BBX 17 25 1 -7
BITMAP
7C0F80
7C0F80
7C0F80
7C0F00
3E1F00
3E1F00
3E1E00
1F1E00
1F3E00
0F3E00
0FBC00
0FBC00
07FC00
07F800
03F800
03F000
01F000
01F000
03E000
03E000
7FC000
FFC000
FF8000
FF0000
380000
ENDCHAR
STARTCHAR 007A
ENCODING 122
SWIDTH 488 0
DWIDTH 19 0
BBX 14 18 3 0
BITMAP
FFFC
FFFC
FFFC
FFF8
01F0
03F0
07E0
07C0
0F80
1F80
1F00
3E00
7C00
7C00
FFFC
FFFC
FFFC
FFFC
ENDCHAR
STARTCHAR 007B
ENCODING 123
SWIDTH 488 0
DWIDTH 19 0
BBX 15 33 2 -6
BITMAP
01FE
03FE
07FE
07FE
07C0
0780
0780
0780
0780
0780
0780
0780
0780
0F80
0F80
FF00
FC00
FE00
1F00
0F80
0780
0780
0780
0780
0780
0780
0780
0780
0780
07C0
07FE
03FE
01FE
ENDCHAR
STARTCHAR 007C
ENCODING 124
SWIDTH 488 0
DWIDTH 19 0
BBX 5 33 7 -6
BITMAP
F8
F8
F8
F8
F8
F8
F8
F8
F8
F8
F8
F8
F8
F8
F8
F8
F8
F8
F8
F8
F8
F8
F8
F8
F8
F8
F8
F8
F8
F8
F8
F8
F8
ENDCHAR
STARTCHAR 007D
ENCODING 125
SWIDTH 488 0
DWIDTH 19 0
BBX 15 33 2 -6
BITMAP
FF00
FF80
FFC0
FFC0
03E0
03E0
03E0
03E0
03E0
03E0
03E0
03E0
03E0
03E0
01F0
00FE
003E
00FE
01F8
01E0
03E0
03E0
03E0
03E0
03E0
03E0
03E0
03E0
03E0
07C0
FFC0
FFC0
FF80
ENDCHAR
STARTCHAR 007E
ENCODING 126
SWIDTH 488 0
DWIDTH 19 0
BBX 18 7 1 7
BITMAP
0E0200
3F83C0
7FE7C0
7FFF80
FFFF80
F0FF00
703E00
ENDCHAR
STARTCHAR 00A0
ENCODING 160
SWIDTH 488 0
DWIDTH 19 0
BBX 0 0 0 0
BITMAP
ENDCHAR
STARTCHAR 00A1
ENCODING 161
SWIDTH 488 0
DWIDTH 19 0
BBX 7 24 6 -6
BITMAP
3C
7E
7E
FE
7E
3C
00
00
00
3C
3C
7C
7C
7C
7C
7C
7C
7C
7C
7C
7C
7C
7C
7C
ENDCHAR
STARTCHAR 00A2
ENCODING 162
SWIDTH 488 0
DWIDTH 19 0
BBX 16 28 2 -4
BITMAP
01F0
01F0
01F0
01F0
01F0
07FE
1FFE
3FFE
7FFE
7E00
FC00
F800
F800
F800
F800
F800
F800
FC00
7F86
7FFE
3FFE
0FFF
03FE
01F0
01F0
01F0
01F0
01F0
ENDCHAR
STARTCHAR 00A3
ENCODING 163
SWIDTH 488 0
DWIDTH 19 0
BBX 17 25 1 0
BITMAP
001000
01FF00
07FF00
07FF00
0FFE00
0F8000
0F0000
0F0000
1F0000
1F0000
1F0000
FFFC00
FFFC00
FFFC00
FFFC00
1F0000
1F0000
1F0000
1F0000
1F0000
1F0000
1FFF80
1FFF80
1FFF80
3FFF80
ENDCHAR
STARTCHAR 00A4
ENCODING 164
SWIDTH 488 0
DWIDTH 19 0
BBX 18 18 1 3
BITMAP
000200
300700
7BEF80
FFFFC0
7FFF80
3FFF00
3E3F00
3C1F00
3C0F00
3C1F00
3C1F00
3E3F00
3FFF00
7FFF80
FFFFC0
79EF80
300700
000200
ENDCHAR
STARTCHAR 00A5
ENCODING 165
SWIDTH 488 0
DWIDTH 19 0
BBX 18 24 1 0
BITMAP
F807C0
F80780
7C0F80
7C0F80
7C1F00
3E1F00
1E1E00
1F3E00
0F3C00
0F7C00
07F800
7FFF00
7FFF00
7FFF00
03E000
03E000
03E000
7FFF00
7FFF00
7FFF00
03E000
03E000
03E000
03E000
ENDCHAR
STARTCHAR 00A6
ENCODING 166
SWIDTH 488 0
DWIDTH 19 0
BBX 5 33 7 -6
BITMAP
F8
F8
F8
F8
F8
F8
F8
F8
F8
F8
F8
F8
F8
F8
00
00
00
00
00
00
F8
F8
F8
F8
F8
F8
F8
F8
F8
F8
F8
F8
F8
ENDCHAR
STARTCHAR 00A7
ENCODING 167
SWIDTH 488 0
DWIDTH 19 0
BBX 15 29 2 -4
BITMAP
01C0
0FFE
3FFE
3FFC
7F7C
7C00
7C00
7F00
3FC0
1FF8
3FFC
7DFE
787E
F01E
F01E
F81E
FC1E
7FBC
3FFC
1FF8
07FC
00FE
003E
003E
78FE
FFFE
FFFC
FFF8
0FC0
ENDCHAR
STARTCHAR 00A8
ENCODING 168
SWIDTH 488 0
DWIDTH 19 0
BBX 13 5 3 21
BITMAP
7878
F8F8
FCF8
F8F8
7870
ENDCHAR
STARTCHAR 00A9
ENCODING 169
SWIDTH 488 0
DWIDTH 19 0
BBX 18 19 1 -1
BITMAP
07F800
1FFC00
3C1E00
780700
71E780
E3E380
E7A380
E60180
E601C0
E601C0
E60180
E7A380
E3E380
71E380
780700
3C1E00
1FFC00
07F800
008000
ENDCHAR
STARTCHAR 00AA
ENCODING 170
SWIDTH 488 0
DWIDTH 19 0
BBX 12 14 4 11
BITMAP
0C00
7FC0
3FE0
3FE0
00F0
00F0
3FF0
7FF0
FCF0
F0F0
F0F0
FFF0
7FF0
3FF0
ENDCHAR
STARTCHAR 00AB
ENCODING 171
SWIDTH 488 0
DWIDTH 19 0
BBX 16 16 2 2
BITMAP
0404
0F0E
0E1E
1E1E
3C3C
3C78
7878
F0F0
F0F0
7878
3878
3C3C
1E1C
0E1E
0F0F
0404
ENDCHAR
STARTCHAR 00AC
ENCODING 172
SWIDTH 488 0
DWIDTH 19 0
BBX 15 12 2 2
BITMAP
FFFE
FFFE
FFFE
FFFE
001E
001E
001E
001E
001E
001E
001E
001E
ENDCHAR
STARTCHAR 00AD
ENCODING 173
SWIDTH 488 0
DWIDTH 19 0
BBX 11 4 4 8
BITMAP
FFE0
FFE0
FFE0
FFE0
ENDCHAR
STARTCHAR 00AE
ENCODING 174
SWIDTH 488 0
DWIDTH 19 0
BBX 18 19 1 -1
BITMAP
07F800
1FFC00
3C1E00
780700
77E780
E7F380
E73380
E73180
E731C0
E7F1C0
E7E180
E77380
E73380
773B80
780700
3C1E00
1FFC00
07F800
008000
ENDCHAR
STARTCHAR 00AF
ENCODING 175
SWIDTH 488 0
DWIDTH 19 0
BBX 11 3 4 22
BITMAP
FFE0
FFE0
FFE0
ENDCHAR
STARTCHAR 00B0
ENCODING 176
SWIDTH 488 0
DWIDTH 19 0
BBX 11 11 4 16
BITMAP
1F80
3FC0
7FE0
F9E0
F0E0
F0E0
F0E0
7FE0
7FC0
3F80
0600
ENDCHAR
STARTCHAR 00B1
ENCODING 177
SWIDTH 488 0
DWIDTH 19 0
BBX 16 22 2 0
BITMAP
03C0
03C0
03C0
03C0
03C0
03C0
FFFF
FFFF
FFFF
FFFF
03C0
03C0
03C0
03C0
03C0
03C0
0000
0000
FFFF
FFFF
FFFF
FFFF
ENDCHAR
STARTCHAR 00B2
ENCODING 178
SWIDTH 488 0
DWIDTH 19 0
BBX 11 15 4 10
BITMAP
0600
3F80
FFC0
7FE0
23E0
01E0
03C0
07C0
0F80
1E00
3C00
7FE0
7FE0
7FE0
7FE0
ENDCHAR
STARTCHAR 00B3
ENCODING 179
SWIDTH 488 0
DWIDTH 19 0
BBX 11 15 4 10
BITMAP
0400
7F80
7FC0
7FC0
01C0
03C0
1F80
1FC0
1FE0
01E0
01E0
77E0
7FC0
FFC0
3E00
ENDCHAR
STARTCHAR 00B4
ENCODING 180
SWIDTH 488 0
DWIDTH 19 0
BBX 8 6 6 21
BITMAP
0E
1F
7F
FE
78
60
ENDCHAR
STARTCHAR 00B5
ENCODING 181
SWIDTH 488 0
DWIDTH 19 0
BBX 15 24 2 -6
BITMAP
F83E
F83E
F83E
F83E
F83E
F83E
F83E
F83E
F83E
F83E
F83E
F83E
F83E
FC3E
FFFE
FFFE
FFFE
FFFE
F800
F800
F800
F800
F800
F800
ENDCHAR
STARTCHAR 00B6
ENCODING 182
SWIDTH 488 0
DWIDTH 19 0
BBX 17 30 1 -6
BITMAP
0FFF80
1FFF80
7FFF80
7FFF80
FFC780
FFC780
FFC780
FFC780
FFC780
FFC780
FFC780
7FC780
7FC780
3FC780
0FC780
03C780
03C780
03C780
03C780
03C780
03C780
03C780
03C780
03C780
03C780
03C780
03C780
03C780
03C780
03C780
ENDCHAR
STARTCHAR 00B7
ENCODING 183
SWIDTH 488 0
DWIDTH 19 0
BBX 7 7 6 7
BITMAP
38
7C
FE
FE
FE
7E
3C
ENDCHAR
STARTCHAR 00B8
ENCODING 184
SWIDTH 488 0
DWIDTH 19 0
BBX 8 8 6 -7
BITMAP
1C
1C
3E
0F
0F
7F
FE
78
ENDCHAR
STARTCHAR 00B9
ENCODING 185
SWIDTH 488 0
DWIDTH 19 0
BBX 11 14 5 10
BITMAP
0F00
3F00
FF00
FF00
7F00
0F00
0F00
0F00
0F00
0F00
FFE0
FFE0
FFE0
FFE0
ENDCHAR
STARTCHAR 00BA
ENCODING 186
SWIDTH 488 0
DWIDTH 19 0
BBX 13 14 3 11
BITMAP
0700
1FE0
3FF0
7FF8
F8F8
F078
F078
F078
F078
F078
F8F8
7FF0
3FF0
1FC0
ENDCHAR
STARTCHAR 00BB
ENCODING 187
SWIDTH 488 0
DWIDTH 19 0
BBX 15 16 2 2
BITMAP
2040
E0E0
F0F0
7870
3878
3C3C
1E3C
1E1E
1E1E
1E1E
3C3C
3C78
7878
70F0
F0E0
6060
ENDCHAR
STARTCHAR 00BC
ENCODING 188
SWIDTH 488 0
DWIDTH 19 0
BBX 19 24 0 0
BITMAP
1E0780
3E0780
FE0F00
FE0F00
1E1E00
1E1E00
1E3C00
1E3C00
1E7800
007800
00F000
00F000
01E000
01C000
03C3C0
0387C0
078FC0
070DC0
0F1DC0
1E19C0
1E3FE0
3C3FE0
3C01C0
7801C0
ENDCHAR
STARTCHAR 00BD
ENCODING 189
SWIDTH 488 0
DWIDTH 19 0
BBX 19 24 0 0
BITMAP
1E0780
3E0780
FE0F00
FE0F00
1E1E00
1E1E00
1E3C00
1E3C00
1E7800
007800
00F000
00F000
01E000
01C000
03CF80
039FE0
079FE0
0708E0
0F01E0
1E03C0
1E0F80
3C1E00
3C1FE0
781FE0
ENDCHAR
STARTCHAR 00BE
ENCODING 190
SWIDTH 488 0
DWIDTH 19 0
BBX 18 25 1 0
BITMAP
180000
FE0780
FF0F00
0F0F00
3E1E00
3E1E00
1F3C00
073C00
FF7800
FE7800
7CF000
00F000
01E000
01E000
03C000
03C780
078F80
079F80
0F1B80
0F3B80
1E3380
1E7FC0
3C7FC0
3C0380
780380
ENDCHAR
STARTCHAR 00BF
ENCODING 191
SWIDTH 488 0
DWIDTH 19 0
BBX 14 25 3 -7
BITMAP
03C0
07C0
0FE0
0FE0
07E0
07C0
0000
0000
0000
03C0
07C0
07C0
0F80
1F80
3F00
7E00
FC00
F800
F800
F808
FEF8
FFF8
7FFC
3FF8
0700
ENDCHAR
STARTCHAR 00C0
ENCODING 192
SWIDTH 488 0
DWIDTH 19 0
BBX 19 32 0 0
BITMAP
018000
03C000
03F000
03F800
00F800
003800
000000
000000
01F800
01F800
03F800
03FC00
03FC00
07BC00
07BC00
07BE00
079E00
0F1E00
0F1F00
0F1F00
1F0F00
1F0F00
1FFF80
1FFF80
3FFF80
3FFFC0
3C07C0
7C07C0
7C07C0
7C07E0
7C03E0
F803E0
ENDCHAR
STARTCHAR 00C1
ENCODING 193
SWIDTH 488 0
DWIDTH 19 0
BBX 19 32 0 0
BITMAP
003000
007800
00F800
03FC00
03F000
03C000
000000
000000
01F800
01F800
03F800
03FC00
03FC00
07BC00
07BC00
07BE00
079E00
0F1E00
0F1F00
0F1F00
1F0F00
1F0F00
1FFF80
1FFF80
3FFF80
3FFFC0
3C07C0
7C07C0
7C07C0
7C07E0
7C03E0
F803E0
ENDCHAR
STARTCHAR 00C2
ENCODING 194
SWIDTH 488 0
DWIDTH 19 0
BBX 19 32 0 0
BITMAP
006000
00F000
01F800
07FC00
0FBE00
070C00
020000
000000
01F800
01F800
03F800
03FC00
03FC00
07BC00
07BC00
07BE00
079E00
0F1E00
0F1F00
0F1F00
1F0F00
1F0F00
1FFF80
1FFF80
3FFF80
3FFFC0
3C07C0
7C07C0
7C07C0
7C07E0
7C03E0
F803E0
ENDCHAR
STARTCHAR 00C3
ENCODING 195
SWIDTH 488 0
DWIDTH 19 0
BBX 19 31 0 1
BITMAP
07C600
0FFF00
0FFE00
0E7C00
041000
000000
000000
01F800
01F800
03F800
03FC00
03FC00
07BC00
07BC00
07BE00
079E00
0F1E00
0F1F00
0F1F00
1F0F00
1F0F00
1FFF80
1FFF80
3FFF80
3FFFC0
3C07C0
7C07C0
7C07C0
7C07E0
7C03E0
F803E0
ENDCHAR
STARTCHAR 00C4
ENCODING 196
SWIDTH 488 0
DWIDTH 19 0
BBX 19 32 0 0
BITMAP
040400
0F1F00
1F9F00
1F9F00
0F1F00
060600
000000
000000
01F800
01F800
03F800
03FC00
03FC00
07BC00
07BC00
07BE00
079E00
0F1E00
0F1F00
0F1F00
1F0F00
1F0F00
1FFF80
1FFF80
3FFF80
3FFFC0
3C07C0
7C07C0
7C07C0
7C07E0
7C03E0
F803E0
ENDCHAR
STARTCHAR 00C5
ENCODING 197
SWIDTH 488 0
DWIDTH 19 0
BBX 19 31 0 0
BITMAP
006000
01F800
03F800
031C00
031C00
039C00
03F800
01F800
01F800
03F800
03F800
03FC00
07BC00
07BC00
07BE00
079E00
0F1E00
0F1F00
0F1F00
1F0F00
1F0F00
1FFF80
1FFF80
3FFF80
3FFFC0
3C07C0
7C07C0
7C07C0
7C07C0
7C03E0
F803E0
ENDCHAR
STARTCHAR 00C6
ENCODING 198
SWIDTH 488 0
DWIDTH 19 0
BBX 19 24 0 0
BITMAP
01FFE0
01FFE0
01FFE0
03FFE0
03FC00
03BC00
07BC00
07BC00
07BC00
0F3FC0
0F3FC0
0F3FC0
1F3FC0
1E3C00
1FFC00
1FFC00
3FFC00
3FFC00
3C3C00
7C3C00
7C3FE0
7C3FE0
7C3FE0
F83FE0
ENDCHAR
STARTCHAR 00C7
ENCODING 199
SWIDTH 488 0
DWIDTH 19 0
BBX 17 32 1 -7
BITMAP
003000
03FF00
0FFF80
1FFF80
3FFF00
3F0100
7E0000
7C0000
7C0000
F80000
F80000
F80000
F80000
F80000
F80000
F80000
F80000
7C0000
7C0000
7E0000
3F0100
3FFF00
1FFF80
0FFF80
03FF00
00E000
01F000
007800
007800
03F800
07F000
03C000
ENDCHAR
STARTCHAR 00C8
ENCODING 200
SWIDTH 488 0
DWIDTH 19 0
BBX 16 32 2 0
BITMAP
0600
0F00
0FC0
0FE0
03E0
00E0
0000
0000
FFFE
FFFE
FFFE
FFFE
F800
F800
F800
F800
F800
FFFC
FFFC
FFFC
FFFC
F800
F800
F800
F800
F800
F800
F800
FFFF
FFFF
FFFF
FFFF
ENDCHAR
STARTCHAR 00C9
ENCODING 201
SWIDTH 488 0
DWIDTH 19 0
BBX 16 32 2 0
BITMAP
00C0
01E0
03E0
0FF0
0FC0
0F00
0000
0000
FFFE
FFFE
FFFE
FFFE
F800
F800
F800
F800
F800
FFFC
FFFC
FFFC
FFFC
F800
F800
F800
F800
F800
F800
F800
FFFF
FFFF
FFFF
FFFF
ENDCHAR
STARTCHAR 00CA
ENCODING 202
SWIDTH 488 0
DWIDTH 19 0
BBX 16 32 2 0
BITMAP
0180
03C0
07E0
1FF0
3EF8
1C30
0800
0000
FFFE
FFFE
FFFE
FFFE
F800
F800
F800
F800
F800
FFFC
FFFC
FFFC
FFFC
F800
F800
F800
F800
F800
F800
F800
FFFF
FFFF
FFFF
FFFF
ENDCHAR
STARTCHAR 00CB
ENCODING 203
SWIDTH 488 0
DWIDTH 19 0
BBX 16 32 2 0
BITMAP
1010
3C7C
7E7C
7E7C
3C7C
1818
0000
0000
FFFE
FFFE
FFFE
FFFE
F800
F800
F800
F800
F800
FFFC
FFFC
FFFC
FFFC
F800
F800
F800
F800
F800
F800
F800
FFFF
FFFF
FFFF
FFFF
ENDCHAR
STARTCHAR 00CC
ENCODING 204
SWIDTH 488 0
DWIDTH 19 0
BBX 15 32 2 0
BITMAP
0600
0F00
0FC0
0FE0
03E0
00E0
0000
0000
FFFE
FFFE
FFFE
FFFE
07C0
07C0
07C0
07C0
07C0
07C0
07C0
07C0
07C0
07C0
07C0
07C0
07C0
07C0
07C0
07C0
FFFE
FFFE
FFFE
FFFE
ENDCHAR
STARTCHAR 00CD
ENCODING 205
SWIDTH 488 0
DWIDTH 19 0
BBX 15 32 2 0
BITMAP
00C0
01E0
03E0
0FF0
0FC0
0F00
0000
0000
FFFE
FFFE
FFFE
FFFE
07C0
07C0
07C0
07C0
07C0
07C0
07C0
07C0
07C0
07C0
07C0
07C0
07C0
07C0
07C0
07C0
FFFE
FFFE
FFFE
FFFE
ENDCHAR
STARTCHAR 00CE
ENCODING 206
SWIDTH 488 0
DWIDTH 19 0
BBX 15 32 2 0
BITMAP
0180
03C0
07E0
1FF0
3EF8
1C30
0800
0000
FFFE
FFFE
FFFE
FFFE
07C0
07C0
07C0
07C0
07C0
07C0
07C0
07C0
07C0
07C0
07C0
07C0
07C0
07C0
07C0
07C0
FFFE
FFFE
FFFE
FFFE
ENDCHAR
STARTCHAR 00CF
ENCODING 207
SWIDTH 488 0
DWIDTH 19 0
BBX 15 32 2 0
BITMAP
1010
3C7C
7E7C
7E7C
3C7C
1818
0000
0000
FFFE
FFFE
FFFE
FFFE
07C0
07C0
07C0
07C0
07C0
07C0
07C0
07C0
07C0
07C0
07C0
07C0
07C0
07C0
07C0
07C0
FFFE
FFFE
FFFE
FFFE
ENDCHAR
STARTCHAR 00D0
ENCODING 208
SWIDTH 488 0
DWIDTH 19 0
BBX 17 24 1 0
BITMAP
3FF000
3FFC00
3FFE00
3FFE00
3E3F00
3E1F00
3E0F80
3E0F80
3E0F80
3E0F80
FFCF80
FFC780
FFCF80
FFCF80
3E0F80
3E0F80
3E0F80
3E0F80
3E1F00
3E3F00
3FFE00
3FFC00
3FF800
3FE000
ENDCHAR
STARTCHAR 00D1
ENCODING 209
SWIDTH 488 0
DWIDTH 19 0
BBX 16 31 2 1
BITMAP
1F18
3FFC
3FF8
39F0
1040
0000
0000
F01F
F81F
F81F
FC1F
FC1F
FE1F
FE1F
FF1F
FF1F
F79F
F79F
F3DF
F3DF
F1FF
F1FF
F0FF
F0FF
F07F
F07F
F03F
F03F
F01F
F01F
F00F
ENDCHAR
STARTCHAR 00D2
ENCODING 210
SWIDTH 488 0
DWIDTH 19 0
BBX 17 33 1 -1
BITMAP
030000
078000
07E000
07F000
01F000
007000
000000
00C000
0FF800
1FFC00
3FFE00
3FFF00
7C1F00
7C0F80
780F80
F80F80
F80F80
F80F80
F80F80
F80780
F80780
F80F80
F80F80
F80F80
F80F80
780F80
7C0F80
7E1F00
3FFF00
3FFE00
1FFC00
07F800
008000
ENDCHAR
STARTCHAR 00D3
ENCODING 211
SWIDTH 488 0
DWIDTH 19 0
BBX 17 33 1 -1
BITMAP
006000
00F000
01F000
07F800
07E000
078000
000000
00C000
0FF800
1FFC00
3FFE00
3FFF00
7C1F00
7C0F80
780F80
F80F80
F80F80
F80F80
F80F80
F80780
F80780
F80F80
F80F80
F80F80
F80F80
780F80
7C0F80
7E1F00
3FFF00
3FFE00
1FFC00
07F800
008000
ENDCHAR
STARTCHAR 00D4
ENCODING 212
SWIDTH 488 0
DWIDTH 19 0
BBX 17 33 1 -1
BITMAP
00C000
01E000
03F000
0FF800
1F7C00
0E1800
040000
00C000
0FF800
1FFC00
3FFE00
3FFF00
7C1F00
7C0F80
780F80
F80F80
F80F80
F80F80
F80F80
F80780
F80780
F80F80
F80F80
F80F80
F80F80
780F80
7C0F80
7E1F00
3FFF00
3FFE00
1FFC00
07F800
008000
ENDCHAR
STARTCHAR 00D5
ENCODING 213
SWIDTH 488 0
DWIDTH 19 0
BBX 17 32 1 0
BITMAP
0F8C00
1FFE00
1FFC00
1CF800
082000
000000
00C000
0FF800
1FFC00
3FFE00
3FFF00
7C1F00
7C0F80
780F80
F80F80
F80F80
F80F80
F80F80
F80780
F80780
F80F80
F80F80
F80F80
F80F80
780F80
7C0F80
7E1F00
3FFF00
3FFE00
1FFC00
07F800
008000
ENDCHAR
STARTCHAR 00D6
ENCODING 214
SWIDTH 488 0
DWIDTH 19 0
BBX 17 33 1 -1
BITMAP
080800
1E3E00
3F3E00
3F3E00
1E3E00
0C0C00
000000
00C000
0FF800
1FFC00
3FFE00
3FFF00
7C1F00
7C0F80
780F80
F80F80
F80F80
F80F80
F80F80
F80780
F80780
F80F80
F80F80
F80F80
F80F80
780F80
7C0F80
7E1F00
3FFF00
3FFE00
1FFC00
07F800
008000
ENDCHAR
STARTCHAR 00D7
ENCODING 215
SWIDTH 488 0
DWIDTH 19 0
BBX 15 15 2 3
BITMAP
0008
301C
783E
7C7E
3EFC
1FF8
0FF0
07E0
0FE0
1FF0
3FF8
7E7C
FC3E
781E
300C
ENDCHAR
STARTCHAR 00D8
ENCODING 216
SWIDTH 488 0
DWIDTH 19 0
BBX 17 27 1 -2
BITMAP
000400
008700
07FF00
1FFF00
3FFE00
3FFF00
7E3F00
7C3F00
787F80
F87F80
F8FF80
F8FF80
F9EF80
F9E780
FBC780
FBCF80
FF8F80
FF8F80
FF0F80
7F0F80
7E0F80
7E1F00
3FFF00
3FFE00
3FFC00
7FF800
30C000
ENDCHAR
STARTCHAR 00D9
ENCODING 217
SWIDTH 488 0
DWIDTH 19 0
BBX 16 33 2 -1
BITMAP
0400
0F00
1F80
1FE0
07E0
01C0
0040
0000
F01F
F01F
F01F
F01F
F01F
F01F
F01F
F01F
F01F
F01F
F01F
F01F
F01F
F01F
F01F
F01F
F01F
F01F
F81F
F83E
FFFE
7FFE
3FFC
1FF0
0100
ENDCHAR
STARTCHAR 00DA
ENCODING 218
SWIDTH 488 0
DWIDTH 19 0
BBX 16 33 2 -1
BITMAP
0060
00E0
03F0
07F0
0FC0
0700
0000
0000
F01F
F01F
F01F
F01F
F01F
F01F
F01F
F01F
F01F
F01F
F01F
F01F
F01F
F01F
F01F
F01F
F01F
F01F
F81F
F83E
FFFE
7FFE
3FFC
1FF0
0100
ENDCHAR
STARTCHAR 00DB
ENCODING 219
SWIDTH 488 0
DWIDTH 19 0
BBX 16 33 2 -1
BITMAP
0180
03C0
07E0
1FF0
3EF8
1C30
0800
0000
F01F
F01F
F01F
F01F
F01F
F01F
F01F
F01F
F01F
F01F
F01F
F01F
F01F
F01F
F01F
F01F
F01F
F01F
F81F
F83E
FFFE
7FFE
3FFC
1FF0
0100
ENDCHAR
STARTCHAR 00DC
ENCODING 220
SWIDTH 488 0
DWIDTH 19 0
BBX 16 33 2 -1
BITMAP
1010
3C7C
7E7C
7E7C
3C7C
1818
0000
0000
F01F
F01F
F01F
F01F
F01F
F01F
F01F
F01F
F01F
F01F
F01F
F01F
F01F
F01F
F01F
F01F
F01F
F01F
F81F
F83E
FFFE
7FFE
3FFC
1FF0
0100
ENDCHAR
STARTCHAR 00DD
ENCODING 221
SWIDTH 488 0
DWIDTH 19 0
BBX 18 32 1 0
BITMAP
003000
007000
01F800
03F800
07E000
038000
000000
000000
F807C0
F80F80
F80F80
7C0F80
7C1F00
3E1F00
3E1E00
1E3E00
1F3C00
0F3C00
0FFC00
07F800
07F000
03F000
03E000
03E000
03E000
03E000
03E000
03E000
03E000
03E000
03E000
03E000
ENDCHAR
STARTCHAR 00DE
ENCODING 222
SWIDTH 488 0
DWIDTH 19 0
BBX 16 24 2 0
BITMAP
F800
F800
F800
FF00
FFF8
FFFC
FFFE
FFFF
F83F
F81F
F81F
F81F
F81F
F81F
F83F
FFFE
FFFE
FFFC
FFF0
FF00
F800
F800
F800
F800
ENDCHAR
STARTCHAR 00DF
ENCODING 223
SWIDTH 488 0
DWIDTH 19 0
BBX 18 27 1 0
BITMAP
07E000
1FF800
3FFC00
7FFC00
7E7E00
7C3E00
F83E00
F83E00
F83C00
F87C00
F87800
F8F800
F8F000
F8F000
F8F800
F8FC00
F8FE00
F87F00
F81F80
F80FC0
F807C0
F807C0
F807C0
F9FFC0
F9FFC0
F9FF80
F9FF00
ENDCHAR
STARTCHAR 00E0
ENCODING 224
SWIDTH 488 0
DWIDTH 19 0
BBX 15 27 2 0
BITMAP
0400
0700
0F80
1FC0
07F0
01E0
0040
0000
0FC0
7FF8
3FFC
3FFC
30FE
003E
003E
001E
1FFE
7FFE
FFFE
FC1E
F81E
F01E
F81E
FE3E
FFFE
7FFE
3FFE
ENDCHAR
STARTCHAR 00E1
ENCODING 225
SWIDTH 488 0
DWIDTH 19 0
BBX 15 26 2 1
BITMAP
00E0
01F0
07F0
0FE0
0780
0600
0000
0FC0
7FF8
3FFC
3FFC
30FE
003E
003E
001E
1FFE
7FFE
FFFE
FC1E
F81E
F01E
F81E
FE3E
FFFE
7FFE
3FFE
ENDCHAR
STARTCHAR 00E2
ENCODING 226
SWIDTH 488 0
DWIDTH 19 0
BBX 15 27 2 0
BITMAP
0100
0380
07C0
0FF0
1FF8
1E78
0830
0000
0FC0
7FF8
3FFC
3FFC
30FE
003E
003E
001E
1FFE
7FFE
FFFE
FC1E
F81E
F01E
F81E
FE3E
FFFE
7FFE
3FFE
ENDCHAR
STARTCHAR 00E3
ENCODING 227
SWIDTH 488 0
DWIDTH 19 0
BBX 15 26 2 0
BITMAP
0E18
1FFC
3FFC
3FF8
10F0
0000
0000
0FC0
7FF8
3FFC
3FFC
30FE
003E
003E
001E
1FFE
7FFE
FFFE
FC1E
F81E
F01E
F81E
FE3E
FFFE
7FFE
3FFE
ENDCHAR
STARTCHAR 00E4
ENCODING 228
SWIDTH 488 0
DWIDTH 19 0
BBX 15 26 2 0
BITMAP
3C3C
7C7C
7E7C
7C7C
3C38
0000
0000
0FC0
7FF8
3FFC
3FFC
30FE
003E
003E
001E
1FFE
7FFE
FFFE
FC1E
F81E
F01E
F81E
FE3E
FFFE
7FFE
3FFE
ENDCHAR
STARTCHAR 00E5
ENCODING 229
SWIDTH 488 0
DWIDTH 19 0
BBX 15 27 2 1
BITMAP
07E0
0FE0
0C70
0C70
0C70
0FE0
07E0
0000
0FC0
7FF8
3FFC
3FFC
30FE
003E
003E
001E
1FFE
7FFE
FFFE
FC1E
F81E
F01E
F81E
FE3E
FFFE
7FFE
3FFE
ENDCHAR
STARTCHAR 00E6
ENCODING 230
SWIDTH 488 0
DWIDTH 19 0
BBX 18 19 1 0
BITMAP
1E0C00
7FBF00
3FFF80
3FFF80
23F380
01E3C0
01E3C0
01E3C0
3FFFC0
7FFFC0
FFFFC0
F1E000
F1E000
F1E000
F1F000
FBFF80
7FFF80
7FFF80
3F9F80
ENDCHAR
STARTCHAR 00E7
ENCODING 231
SWIDTH 488 0
DWIDTH 19 0
BBX 16 26 2 -7
BITMAP
01F8
0FFF
1FFE
3FFE
7FDE
7C00
F800
F800
F800
F800
F800
F800
F800
FC00
7E00
7FFF
3FFF
1FFF
07FF
01C0
03E0
00F0
00F0
07F0
0FE0
0780
ENDCHAR
STARTCHAR 00E8
ENCODING 232
SWIDTH 488 0
DWIDTH 19 0
BBX 17 27 1 0
BITMAP
020000
038000
07C000
0FE000
03F800
00F000
002000
000000
01E000
0FFC00
1FFE00
3FFF00
3F3F00
7C0F80
7C0F80
F80F80
FFFF80
FFFF80
FFFF80
F80000
F80000
7C0000
7E0000
3FFF00
3FFF00
1FFF00
07FF00
ENDCHAR
STARTCHAR 00E9
ENCODING 233
SWIDTH 488 0
DWIDTH 19 0
BBX 17 27 1 0
BITMAP
001000
007000
00F800
01FC00
07F000
03C000
010000
000000
01E000
0FFC00
1FFE00
3FFF00
3F3F00
7C0F80
7C0F80
F80F80
FFFF80
FFFF80
FFFF80
F80000
F80000
7C0000
7E0000
3FFF00
3FFF00
1FFF00
07FF00
ENDCHAR
STARTCHAR 00EA
ENCODING 234
SWIDTH 488 0
DWIDTH 19 0
BBX 17 26 1 1
BITMAP
01E000
03F000
07F800
0FFC00
0F3C00
040800
000000
01E000
0FFC00
1FFE00
3FFF00
3F3F00
7C0F80
7C0F80
F80F80
FFFF80
FFFF80
FFFF80
F80000
F80000
7C0000
7E0000
3FFF00
3FFF00
1FFF00
07FF00
ENDCHAR
STARTCHAR 00EB
ENCODING 235
SWIDTH 488 0
DWIDTH 19 0
BBX 17 26 1 0
BITMAP
1E1E00
3E3E00
3F3E00
3E3E00
1E1C00
000000
000000
01E000
0FFC00
1FFE00
3FFF00
3F3F00
7C0F80
7C0F80
F80F80
FFFF80
FFFF80
FFFF80
F80000
F80000
7C0000
7E0000
3FFF00
3FFF00
1FFF00
07FF00
ENDCHAR
STARTCHAR 00EC
ENCODING 236
SWIDTH 488 0
DWIDTH 19 0
BBX 17 26 1 1
BITMAP
070000
0F8000
0FE000
07F000
01E000
006000
000000
000000
FFC000
FFC000
FFC000
FFC000
07C000
07C000
07C000
07C000
07C000
07C000
07C000
07C000
03C000
03E080
03FF80
03FF80
01FF80
00FF80
ENDCHAR
STARTCHAR 00ED
ENCODING 237
SWIDTH 488 0
DWIDTH 19 0
BBX 17 27 1 0
BITMAP
002000
006000
01F000
03F800
0FE000
078000
020000
000000
000000
FFC000
FFC000
FFC000
FFC000
07C000
07C000
07C000
07C000
07C000
07C000
07C000
07C000
03C000
03E080
03FF80
03FF80
01FF80
00FF80
ENDCHAR
STARTCHAR 00EE
ENCODING 238
SWIDTH 488 0
DWIDTH 19 0
BBX 17 27 1 0
BITMAP
008000
01C000
07E000
0FF000
1FF800
1E7800
0C1000
000000
000000
FFC000
FFC000
FFC000
FFC000
07C000
07C000
07C000
07C000
07C000
07C000
07C000
07C000
03C000
03E080
03FF80
03FF80
01FF80
00FF80
ENDCHAR
STARTCHAR 00EF
ENCODING 239
SWIDTH 488 0
DWIDTH 19 0
BBX 17 26 1 0
BITMAP
3C3C00
3E7E00
3E7E00
3E7E00
3C3C00
000000
000000
000000
FFC000
FFC000
FFC000
FFC000
07C000
07C000
07C000
07C000
07C000
07C000
07C000
07C000
03C000
03E080
03FF80
03FF80
01FF80
00FF80
ENDCHAR
STARTCHAR 00F0
ENCODING 240
SWIDTH 488 0
DWIDTH 19 0
BBX 16 28 2 -1
BITMAP
0100
03C0
07E3
07FF
03FF
03FE
0FF8
07FC
047C
003E
003E
1FFE
3FFE
7FFF
7EFF
F81F
F81F
F81F
F01F
F01E
F83E
F83E
FC7E
7FFC
7FFC
3FF8
1FF0
0100
ENDCHAR
STARTCHAR 00F1
ENCODING 241
SWIDTH 488 0
DWIDTH 19 0
BBX 15 26 2 0
BITMAP
0E18
1FFC
3FFC
3FF8
10F0
0000
0000
07C0
FFF0
FFF8
FFFC
FFFE
F83E
F83E
F83E
F83E
F83E
F83E
F83E
F83E
F83E
F83E
F83E
F83E
F83E
F83E
ENDCHAR
STARTCHAR 00F2
ENCODING 242
SWIDTH 488 0
DWIDTH 19 0
BBX 17 28 1 -1
BITMAP
020000
038000
07C000
0FE000
03F800
00F000
002000
000000
01E000
0FF800
1FFE00
3FFE00
7F7F00
7C1F80
7C0F80
F80F80
F80F80
F80F80
F80F80
F80F80
F80F80
7C0F80
7C1F00
3FFF00
3FFE00
1FFC00
07F800
008000
ENDCHAR
STARTCHAR 00F3
ENCODING 243
SWIDTH 488 0
DWIDTH 19 0
BBX 17 28 1 -1
BITMAP
002000
007000
01F000
03F800
07F000
07C000
020000
000000
01E000
0FF800
1FFE00
3FFE00
7F7F00
7C1F80
7C0F80
F80F80
F80F80
F80F80
F80F80
F80F80
F80F80
7C0F80
7C1F00
3FFF00
3FFE00
1FFC00
07F800
008000
ENDCHAR
STARTCHAR 00F4
ENCODING 244
SWIDTH 488 0
DWIDTH 19 0
BBX 17 28 1 -1
BITMAP
008000
01C000
03E000
07F800
0FFC00
0F3C00
041800
000000
01E000
0FF800
1FFE00
3FFE00
7F7F00
7C1F80
7C0F80
F80F80
F80F80
F80F80
F80F80
F80F80
F80F80
7C0F80
7C1F00
3FFF00
3FFE00
1FFC00
07F800
008000
ENDCHAR
STARTCHAR 00F5
ENCODING 245
SWIDTH 488 0
DWIDTH 19 0
BBX 17 27 1 -1
BITMAP
070C00
0FFE00
1FFE00
1FFC00
087800
000000
000000
01E000
0FF800
1FFE00
3FFE00
7F7F00
7C1F80
7C0F80
F80F80
F80F80
F80F80
F80F80
F80F80
F80F80
7C0F80
7C1F00
3FFF00
3FFE00
1FFC00
07F800
008000
ENDCHAR
STARTCHAR 00F6
ENCODING 246
SWIDTH 488 0
DWIDTH 19 0
BBX 17 27 1 -1
BITMAP
1E1E00
3E3E00
3F3E00
3E3E00
1E1C00
000000
000000
01E000
0FF800
1FFE00
3FFE00
7F7F00
7C1F80
7C0F80
F80F80
F80F80
F80F80
F80F80
F80F80
F80F80
7C0F80
7C1F00
3FFF00
3FFE00
1FFC00
07F800
008000
ENDCHAR
STARTCHAR 00F7
ENCODING 247
SWIDTH 488 0
DWIDTH 19 0
BBX 16 20 2 0
BITMAP
03C0
07C0
07C0
07C0
03C0
0100
0000
0000
FFFF
FFFF
FFFF
FFFF
0000
0000
0380
07C0
07C0
07C0
07C0
0380
ENDCHAR
STARTCHAR 00F8
ENCODING 248
SWIDTH 488 0
DWIDTH 19 0
BBX 17 20 1 0
BITMAP
01E300
0FFF80
1FFF00
3FFE00
7FFF00
7C3F00
7C7F80
F87F80
F8FF80
F9EF80
FBCF80
FBCF80
FF8F80
7F0F80
7E1F00
7FFF00
3FFE00
7FFC00
7FF800
30C000
ENDCHAR
STARTCHAR 00F9
ENCODING 249
SWIDTH 488 0
DWIDTH 19 0
BBX 15 27 2 0
BITMAP
0400
0700
0F80
1FC0
07F0
01E0
0040
0000
0000
F83E
F83E
F83E
F83E
F83E
F83E
F83E
F83E
F83E
F83E
F83E
F83E
F83E
7C3E
7FFE
7FFE
3FFE
1FFE
ENDCHAR
STARTCHAR 00FA
ENCODING 250
SWIDTH 488 0
DWIDTH 19 0
BBX 15 27 2 0
BITMAP
0040
00C0
03E0
07F0
1FC0
0F00
0400
0000
0000
F83E
F83E
F83E
F83E
F83E
F83E
F83E
F83E
F83E
F83E
F83E
F83E
F83E
7C3E
7FFE
7FFE
3FFE
1FFE
ENDCHAR
STARTCHAR 00FB
ENCODING 251
SWIDTH 488 0
DWIDTH 19 0
BBX 15 27 2 0
BITMAP
0100
0380
07C0
0FF0
1FF8
1E78
0830
0000
0000
F83E
F83E
F83E
F83E
F83E
F83E
F83E
F83E
F83E
F83E
F83E
F83E
F83E
7C3E
7FFE
7FFE
3FFE
1FFE
ENDCHAR
STARTCHAR 00FC
ENCODING 252
SWIDTH 488 0
DWIDTH 19 0
BBX 15 26 2 0
BITMAP
3C3C
7C7C
7E7C
7C7C
3C38
0000
0000
0000
F83E
F83E
F83E
F83E
F83E
F83E
F83E
F83E
F83E
F83E
F83E
F83E
F83E
7C3E
7FFE
7FFE
3FFE
1FFE
ENDCHAR
STARTCHAR 00FD
ENCODING 253
SWIDTH 488 0
DWIDTH 19 0
BBX 17 34 1 -7
BITMAP
002000
006000
01F000
03F800
0FE000
078000
020000
000000
000000
7C0F80
7C0F80
7C0F80
7C0F00
3E1F00
3E1F00
3E1E00
1F1E00
1F3E00
0F3E00
0FBC00
0FBC00
07FC00
07F800
03F800
03F000
01F000
01F000
03E000
03E000
7FC000
FFC000
FF8000
FF0000
380000
ENDCHAR
STARTCHAR 00FE
ENCODING 254
SWIDTH 488 0
DWIDTH 19 0
BBX 16 33 2 -6
BITMAP
3800
F800
F800
F800
F800
F800
F800
F800
FBC0
FFF0
FFFC
FFFC
FCFE
F83F
F81F
F81F
F81F
F81F
F81F
F81F
F81F
F81F
F83F
FFFE
FFFE
FFFC
FFF8
F800
F800
F800
F800
F800
F800
ENDCHAR
STARTCHAR 00FF
ENCODING 255
SWIDTH 488 0
DWIDTH 19 0
BBX 17 33 1 -7
BITMAP
1E1E00
3E3E00
3F3E00
3E3E00
1E1C00
000000
000000
000000
7C0F80
7C0F80
7C0F80
7C0F00
3E1F00
3E1F00
3E1E00
1F1E00
1F3E00
0F3E00
0FBC00
0FBC00
07FC00
07F800
03F800
03F000
01F000
01F000
03E000
03E000
7FC000
FFC000
FF8000
FF0000
380000
ENDCHAR
STARTCHAR 0100
ENCODING 256
SWIDTH 488 0
DWIDTH 19 0
BBX 19 31 0 0
BITMAP
0FFE00
0FFE00
0FFE00
0FFE00
000000
000000
000000
01F800
01F800
03F800
03FC00
03FC00
07BC00
07BC00
07BE00
079E00
0F1E00
0F1F00
0F1F00
1F0F00
1F0F00
1FFF80
1FFF80
3FFF80
3FFFC0
3C07C0
7C07C0
7C07C0
7C07E0
7C03E0
F803E0
ENDCHAR
STARTCHAR 0101
ENCODING 257
SWIDTH 488 0
DWIDTH 19 0
BBX 15 25 2 0
BITMAP
3FF8
3FF8
3FF8
0000
0000
0000
0FC0
7FF8
3FFC
3FFC
30FE
003E
003E
001E
1FFE
7FFE
FFFE
FC1E
F81E
F01E
F81E
FE3E
FFFE
7FFE
3FFE
ENDCHAR
STARTCHAR 0102
ENCODING 258
SWIDTH 488 0
DWIDTH 19 0
BBX 19 32 0 0
BITMAP
0F0E00
0F0E00
0FFE00
07FC00
03FC00
00F000
000000
000000
01F800
01F800
03F800
03FC00
03FC00
07BC00
07BC00
07BE00
079E00
0F1E00
0F1F00
0F1F00
1F0F00
1F0F00
1FFF80
1FFF80
3FFF80
3FFFC0
3C07C0
7C07C0
7C07C0
7C07E0
7C03E0
F803E0
ENDCHAR
STARTCHAR 0103
ENCODING 259
SWIDTH 488 0
DWIDTH 19 0
BBX 15 27 2 0
BITMAP
3C38
3C38
3C78
1FF8
1FF0
07E0
0000
0000
0FC0
7FF8
3FFC
3FFC
30FE
003E
003E
001E
1FFE
7FFE
FFFE
FC1E
F81E
F01E
F81E
FE3E
FFFE
7FFE
3FFE
ENDCHAR
STARTCHAR 0104
ENCODING 260
SWIDTH 488 0
DWIDTH 19 0
BBX 20 31 0 -7
BITMAP
01F800
01F800
03F800
03FC00
03FC00
07BC00
07BC00
07BE00
079E00
0F1E00
0F1F00
0F1F00
1F0F00
1F0F00
1FFF80
1FFF80
3FFF80
3FFFC0
3C07C0
7C07C0
7C07C0
7C07E0
7C03E0
F803E0
0003E0
000780
000780
000780
0007E0
0007F0
000180
ENDCHAR
STARTCHAR 0105
ENCODING 261
SWIDTH 488 0
DWIDTH 19 0
BBX 15 26 2 -7
BITMAP
0FC0
7FF8
3FFC
3FFC
30FE
003E
003E
001E
1FFE
7FFE
FFFE
FC1E
F81E
F01E
F81E
FE3E
FFFE
7FFE
3FFE
003C
0078
00F0
00F0
00FE
00FE
0038
ENDCHAR
STARTCHAR 0106
ENCODING 262
SWIDTH 488 0
DWIDTH 19 0
BBX 17 33 1 -1
BITMAP
001800
003C00
00FC00
01FE00
01F800
01C000
000000
003000
03FF00
0FFF80
1FFF80
3FFF00
3F0100
7E0000
7C0000
7C0000
F80000
F80000
F80000
F80000
F80000
F80000
F80000
F80000
FC0000
7C0000
7E0000
3F0100
3FFF00
1FFF80
0FFF80
03FF00
002000
ENDCHAR
STARTCHAR 0107
ENCODING 263
SWIDTH 488 0
DWIDTH 19 0
BBX 16 26 2 1
BITMAP
0070
00F8
03F8
07F0
03C0
0300
0000
01F8
0FFF
1FFE
3FFE
7FDE
7C00
F800
F800
F800
F800
F800
F800
F800
FC00
7E00
7FFF
3FFF
1FFF
07FF
ENDCHAR
STARTCHAR 0108
ENCODING 264
SWIDTH 488 0
DWIDTH 19 0
BBX 17 33 1 -1
BITMAP
003000
007800
00FC00
01FE00
07DF00
038600
010200
003000
03FF00
0FFF80
1FFF80
3FFF00
3F0100
7E0000
7C0000
7C0000
F80000
F80000
F80000
F80000
F80000
F80000
F80000
F80000
FC0000
7C0000
7E0000
3F0100
3FFF00
1FFF80
0FFF80
03FF00
002000
ENDCHAR
STARTCHAR 0109
ENCODING 265
SWIDTH 488 0
DWIDTH 19 0
BBX 16 27 2 0
BITMAP
0040
00E0
01F0
03F8
07FE
071C
020C
0000
01F8
0FFF
1FFE
3FFE
7FDE
7C00
F800
F800
F800
F800
F800
F800
F800
FC00
7E00
7FFF
3FFF
1FFF
07FF
ENDCHAR
STARTCHAR 010A
ENCODING 266
SWIDTH 488 0
DWIDTH 19 0
BBX 17 33 1 -1
BITMAP
003000
007800
00FC00
00FC00
00F800
003000
000000
003000
03FF00
0FFF80
1FFF80
3FFF00
3F0100
7E0000
7C0000
7C0000
F80000
F80000
F80000
F80000
F80000
F80000
F80000
F80000
FC0000
7C0000
7E0000
3F0100
3FFF00
1FFF80
0FFF80
03FF00
002000
ENDCHAR
STARTCHAR 010B
ENCODING 267
SWIDTH 488 0
DWIDTH 19 0
BBX 16 26 2 0
BITMAP
00F0
01F0
01F8
01F0
00F0
0000
0000
01F8
0FFF
1FFE
3FFE
7FDE
7C00
F800
F800
F800
F800
F800
F800
F800
FC00
7E00
7FFF
3FFF
1FFF
07FF
ENDCHAR
STARTCHAR 010C
ENCODING 268
SWIDTH 488 0
DWIDTH 19 0
BBX 17 33 1 -1
BITMAP
010600
03CF00
03FF00
01FE00
00F800
007000
000000
003000
03FF00
0FFF80
1FFF80
3FFF00
3F0100
7E0000
7C0000
7C0000
F80000
F80000
F80000
F80000
F80000
F80000
F80000
F80000
FC0000
7C0000
7E0000
3F0100
3FFF00
1FFF80
0FFF80
03FF00
002000
ENDCHAR
STARTCHAR 010D
ENCODING 269
SWIDTH 488 0
DWIDTH 19 0
BBX 16 27 2 0
BITMAP
0204
071C
07BE
03FC
01F8
00F0
0060
0000
01F8
0FFF
1FFE
3FFE
7FDE
7C00
F800
F800
F800
F800
F800
F800
F800
FC00
7E00
7FFF
3FFF
1FFF
07FF
ENDCHAR
STARTCHAR 010E
ENCODING 270
SWIDTH 488 0
DWIDTH 19 0
BBX 16 32 2 0
BITMAP
3060
78E0
3FE0
1FC0
0F80
0700
0200
0000
FFE0
FFF0
FFF8
FFFC
F87E
F83E
F81F
F81F
F81F
F81F
F81F
F80F
F81F
F81F
F81F
F81F
F81F
F83F
F83E
F87E
FFFC
FFF8
FFF0
FFC0
ENDCHAR
STARTCHAR 010F
ENCODING 271
SWIDTH 488 0
DWIDTH 19 0
BBX 20 27 0 0
BITMAP
001CF0
003CF0
003CF0
003CF0
003CF0
003CE0
003CE0
003CE0
073CE0
1FFC00
3FFC00
3FFC00
7EFC00
7C3C00
7C3C00
783C00
783C00
F83C00
F83C00
783C00
7C3C00
7C3C00
7C3C00
3FFC00
3FFC00
1FFC00
0FFC00
ENDCHAR
STARTCHAR 0110
ENCODING 272
SWIDTH 488 0
DWIDTH 19 0
BBX 17 24 1 0
BITMAP
3FF000
3FFC00
3FFE00
3FFE00
3E3F00
3E1F00
3E0F80
3E0F80
3E0F80
3E0F80
FFCF80
FFC780
FFCF80
FFCF80
3E0F80
3E0F80
3E0F80
3E0F80
3E1F00
3E3F00
3FFE00
3FFC00
3FF800
3FE000
ENDCHAR
STARTCHAR 0111
ENCODING 273
SWIDTH 488 0
DWIDTH 19 0
BBX 18 27 1 0
BITMAP
000700
001F00
001F00
03FFC0
03FFC0
03FFC0
001F00
001F00
039F00
1FFF00
3FFF00
3FFF00
7FFF00
7C1F00
F81F00
F81F00
F81F00
F81F00
F81F00
F81F00
F81F00
FC1F00
7C1F00
7FFF00
3FFF00
1FFF00
0FFE00
ENDCHAR
STARTCHAR 0112
ENCODING 274
SWIDTH 488 0
DWIDTH 19 0
BBX 16 31 2 0
BITMAP
3FF8
3FF8
3FF8
3FF8
0000
0000
0000
FFFE
FFFE
FFFE
FFFE
F800
F800
F800
F800
F800
FFFC
FFFC
FFFC
FFFC
F800
F800
F800
F800
F800
F800
F800
FFFF
FFFF
FFFF
FFFF
ENDCHAR
STARTCHAR 0113
ENCODING 275
SWIDTH 488 0
DWIDTH 19 0
BBX 17 25 1 0
BITMAP
1FFC00
1FFC00
1FFC00
000000
000000
000000
01E000
0FFC00
1FFE00
3FFF00
3F3F00
7C0F80
7C0F80
F80F80
FFFF80
FFFF80
FFFF80
F80000
F80000
7C0000
7E0000
3FFF00
3FFF00
1FFF00
07FF00
ENDCHAR
STARTCHAR 0114
ENCODING 276
SWIDTH 488 0
DWIDTH 19 0
BBX 16 32 2 0
BITMAP
3C38
3C38
3FF8
1FF0
0FF0
03C0
0000
0000
FFFE
FFFE
FFFE
FFFE
F800
F800
F800
F800
F800
FFFC
FFFC
FFFC
FFFC
F800
F800
F800
F800
F800
F800
F800
FFFF
FFFF
FFFF
FFFF
ENDCHAR
STARTCHAR 0115
ENCODING 277
SWIDTH 488 0
DWIDTH 19 0
BBX 17 27 1 0
BITMAP
1E1C00
1E1C00
1E3C00
0FFC00
0FF800
03F000
000000
000000
01E000
0FFC00
1FFE00
3FFF00
3F3F00
7C0F80
7C0F80
F80F80
FFFF80
FFFF80
FFFF80
F80000
F80000
7C0000
7E0000
3FFF00
3FFF00
1FFF00
07FF00
ENDCHAR
STARTCHAR 0116
ENCODING 278
SWIDTH 488 0
DWIDTH 19 0
BBX 16 32 2 0
BITMAP
0180
07C0
07C0
07C0
07C0
0380
0000
0000
FFFE
FFFE
FFFE
FFFE
F800
F800
F800
F800
F800
FFFC
FFFC
FFFC
FFFC
F800
F800
F800
F800
F800
F800
F800
FFFF
FFFF
FFFF
FFFF
ENDCHAR
STARTCHAR 0117
ENCODING 279
SWIDTH 488 0
DWIDTH 19 0
BBX 17 26 1 0
BITMAP
01E000
03E000
03E000
03E000
01E000
000000
000000
01E000
0FFC00
1FFE00
3FFF00
3F3F00
7C0F80
7C0F80
F80F80
FFFF80
FFFF80
FFFF80
F80000
F80000
7C0000
7E0000
3FFF00
3FFF00
1FFF00
07FF00
ENDCHAR
STARTCHAR 0118
ENCODING 280
SWIDTH 488 0
DWIDTH 19 0
BBX 16 31 2 -7
BITMAP
FFFE
FFFE
FFFE
FFFE
F800
F800
F800
F800
F800
FFFC
FFFC
FFFC
FFFC
F800
F800
F800
F800
F800
F800
F800
FFFF
FFFF
FFFF
FFFF
001E
003C
003C
0078
007F
003F
000E
ENDCHAR
STARTCHAR 0119
ENCODING 281
SWIDTH 488 0
DWIDTH 19 0
BBX 17 26 1 -7
BITMAP
01E000
0FFC00
1FFE00
3FFF00
3F3F00
7C0F80
7C0F80
F80F80
FFFF80
FFFF80
FFFF80
F80000
F80000
7C0000
7E0000
3FFF00
3FFF00
1FFF00
07FF00
003E00
003C00
007800
007800
007F00
007F00
001800
ENDCHAR
STARTCHAR 011A
ENCODING 282
SWIDTH 488 0
DWIDTH 19 0
BBX 16 32 2 0
BITMAP
0830
1E78
1FF8
0FE0
07C0
0380
0100
0000
FFFE
FFFE
FFFE
FFFE
F800
F800
F800
F800
F800
FFFC
FFFC
FFFC
FFFC
F800
F800
F800
F800
F800
F800
F800
FFFF
FFFF
FFFF
FFFF
ENDCHAR
STARTCHAR 011B
ENCODING 283
SWIDTH 488 0
DWIDTH 19 0
BBX 17 27 1 0
BITMAP
040800
0E3800
1F7C00
07F800
03F000
01E000
00C000
000000
01E000
0FFC00
1FFE00
3FFF00
3F3F00
7C0F80
7C0F80
F80F80
FFFF80
FFFF80
FFFF80
F80000
F80000
7C0000
7E0000
3FFF00
3FFF00
1FFF00
07FF00
ENDCHAR
STARTCHAR 011C
ENCODING 284
SWIDTH 488 0
DWIDTH 19 0
BBX 17 33 1 -1
BITMAP
002000
00F800
01FC00
03FE00
07DF00
038E00
000000
007000
03FF00
0FFF80
1FFF80
3FFF00
3F0100
7E0000
7C0000
7C0000
F80000
F80000
F80000
F80F80
F80F80
F80F80
F80F80
F80F80
F80F80
7C0F80
7C0F80
3E0F80
3FFF80
1FFF80
0FFF80
07FF80
006000
ENDCHAR
STARTCHAR 011D
ENCODING 285
SWIDTH 488 0
DWIDTH 19 0
BBX 16 33 1 -7
BITMAP
0080
01C0
03E0
07F8
0FFC
0F3C
0418
0000
01F0
0FFF
1FFF
3FFF
7F1F
7C1F
7C1F
F81F
F81F
F81F
F81F
F81F
7C1F
7E1F
7FFF
3FFF
1FFF
07DF
001F
001F
403F
7FFE
7FFE
7FFC
7FF0
ENDCHAR
STARTCHAR 011E
ENCODING 286
SWIDTH 488 0
DWIDTH 19 0
BBX 17 33 1 -1
BITMAP
070700
078F00
07FF00
03FE00
01FC00
00F800
000000
007000
03FF00
0FFF80
1FFF80
3FFF00
3F0100
7E0000
7C0000
7C0000
F80000
F80000
F80000
F80F80
F80F80
F80F80
F80F80
F80F80
F80F80
7C0F80
7C0F80
3E0F80
3FFF80
1FFF80
0FFF80
07FF80
006000
ENDCHAR
STARTCHAR 011F
ENCODING 287
SWIDTH 488 0
DWIDTH 19 0
BBX 16 33 1 -7
BITMAP
1E1C
1E1C
1E3C
0FFC
0FF8
03F0
0000
0000
01F0
0FFF
1FFF
3FFF
7F1F
7C1F
7C1F
F81F
F81F
F81F
F81F
F81F
7C1F
7E1F
7FFF
3FFF
1FFF
07DF
001F
001F
403F
7FFE
7FFE
7FFC
7FF0
ENDCHAR
STARTCHAR 0120
ENCODING 288
SWIDTH 488 0
DWIDTH 19 0
BBX 17 33 1 -1
BITMAP
002000
00F800
00F800
00F800
00F800
007000
000000
007000
03FF00
0FFF80
1FFF80
3FFF00
3F0100
7E0000
7C0000
7C0000
F80000
F80000
F80000
F80F80
F80F80
F80F80
F80F80
F80F80
F80F80
7C0F80
7C0F80
3E0F80
3FFF80
1FFF80
0FFF80
07FF80
006000
ENDCHAR
STARTCHAR 0121
ENCODING 289
SWIDTH 488 0
DWIDTH 19 0
BBX 16 32 1 -7
BITMAP
01E0
03E0
03E0
03E0
01E0
0000
0000
01F0
0FFF
1FFF
3FFF
7F1F
7C1F
7C1F
F81F
F81F
F81F
F81F
F81F
7C1F
7E1F
7FFF
3FFF
1FFF
07DF
001F
001F
403F
7FFE
7FFE
7FFC
7FF0
ENDCHAR
STARTCHAR 0122
ENCODING 290
SWIDTH 488 0
DWIDTH 19 0
BBX 17 32 1 -7
BITMAP
007000
03FF00
0FFF80
1FFF80
3FFF00
3F0100
7E0000
7C0000
7C0000
F80000
F80000
F80000
F80F80
F80F80
F80F80
F80F80
F80F80
F80F80
7C0F80
7C0F80
3E0F80
3FFF80
1FFF80
0FFF80
07FF80
006000
000000
00F000
00F000
07F000
07E000
030000
ENDCHAR
STARTCHAR 0123
ENCODING 291
SWIDTH 488 0
DWIDTH 19 0
BBX 16 33 1 -6
BITMAP
0070
00F8
01F0
01F0
01E0
01E0
0000
0000
01F0
0FFF
1FFF
3FFF
7F1F
7C1F
7C1F
F81F
F81F
F81F
F81F
F81F
7C1F
7E1F
7FFF
3FFF
1FFF
07DF
001F
001F
403F
7FFE
7FFE
7FFC
7FF0
ENDCHAR
STARTCHAR 0124
ENCODING 292
SWIDTH 488 0
DWIDTH 19 0
BBX 16 32 2 0
BITMAP
0180
03C0
07E0
1FF0
3EF8
1C30
0800
0000
F81F
F81F
F81F
F81F
F81F
F81F
F81F
F81F
F81F
FFFF
FFFF
FFFF
FFFF
F81F
F81F
F81F
F81F
F81F
F81F
F81F
F81F
F81F
F81F
F81F
ENDCHAR
STARTCHAR 0125
ENCODING 293
SWIDTH 488 0
DWIDTH 19 0
BBX 15 32 2 0
BITMAP
0C00
1F00
7F80
FFC0
71C0
4000
0000
F800
F800
F800
F800
F800
F800
F9C0
FFF0
FFFC
FFFC
FFFE
F83E
F83E
F83E
F83E
F83E
F83E
F83E
F83E
F83E
F83E
F83E
F83E
F83E
F83E
ENDCHAR
STARTCHAR 0126
ENCODING 294
SWIDTH 488 0
DWIDTH 19 0
BBX 18 24 1 0
BITMAP
7C1F00
7C1F00
7C1F00
FFFFC0
FFFFC0
FFFFC0
FFFFC0
7C1F00
7C1F00
7C1F00
7FFF00
7FFF00
7FFF00
7FFF00
7C1F00
7C1F00
7C1F00
7C1F00
7C1F00
7C1F00
7C1F00
7C1F00
7C1F00
7C1F00
ENDCHAR
STARTCHAR 0127
ENCODING 295
SWIDTH 488 0
DWIDTH 19 0
BBX 16 27 1 0
BITMAP
0E00
3E00
3E00
FFF0
FFF0
FFF0
3E00
3E00
3EE0
3FFC
3FFE
3FFE
3FFF
3E1F
3E1F
3E1F
3E1F
3E1F
3E1F
3E1F
3E1F
3E1F
3E1F
3E1F
3E1F
3E1F
3E1F
ENDCHAR
STARTCHAR 0128
ENCODING 296
SWIDTH 488 0
DWIDTH 19 0
BBX 15 31 2 1
BITMAP
1F18
3FFC
3FF8
39F0
1040
0000
0000
FFFE
FFFE
FFFE
FFFE
07C0
07C0
07C0
07C0
07C0
07C0
07C0
07C0
07C0
07C0
07C0
07C0
07C0
07C0
07C0
07C0
FFFE
FFFE
FFFE
FFFE
ENDCHAR
STARTCHAR 0129
ENCODING 297
SWIDTH 488 0
DWIDTH 19 0
BBX 17 26 1 0
BITMAP
0F0800
1FFC00
3FFC00
3FF800
18F000
000000
000000
000000
FFC000
FFC000
FFC000
FFC000
07C000
07C000
07C000
07C000
07C000
07C000
07C000
07C000
03C000
03E080
03FF80
03FF80
01FF80
00FF80
ENDCHAR
STARTCHAR 012A
ENCODING 298
SWIDTH 488 0
DWIDTH 19 0
BBX 15 31 2 0
BITMAP
3FF8
3FF8
3FF8
3FF8
0000
0000
0000
FFFE
FFFE
FFFE
FFFE
07C0
07C0
07C0
07C0
07C0
07C0
07C0
07C0
07C0
07C0
07C0
07C0
07C0
07C0
07C0
07C0
FFFE
FFFE
FFFE
FFFE
ENDCHAR
STARTCHAR 012B
ENCODING 299
SWIDTH 488 0
DWIDTH 19 0
BBX 17 25 1 0
BITMAP
3FFC00
3FFC00
3FFC00
000000
000000
000000
000000
FFC000
FFC000
FFC000
FFC000
07C000
07C000
07C000
07C000
07C000
07C000
07C000
07C000
03C000
03E080
03FF80
03FF80
01FF80
00FF80
ENDCHAR
STARTCHAR 012C
ENCODING 300
SWIDTH 488 0
DWIDTH 19 0
BBX 15 32 2 0
BITMAP
3C38
3C38
3FF8
1FF0
0FF0
03C0
0000
0000
FFFE
FFFE
FFFE
FFFE
07C0
07C0
07C0
07C0
07C0
07C0
07C0
07C0
07C0
07C0
07C0
07C0
07C0
07C0
07C0
07C0
FFFE
FFFE
FFFE
FFFE
ENDCHAR
STARTCHAR 012D
ENCODING 301
SWIDTH 488 0
DWIDTH 19 0
BBX 17 27 1 0
BITMAP
3C3C00
3C3C00
1E7800
1FF800
0FF000
07E000
000000
000000
000000
FFC000
FFC000
FFC000
FFC000
07C000
07C000
07C000
07C000
07C000
07C000
07C000
07C000
03C000
03E080
03FF80
03FF80
01FF80
00FF80
ENDCHAR
STARTCHAR 012E
ENCODING 302
SWIDTH 488 0
DWIDTH 19 0
BBX 15 31 2 -7
BITMAP
FFFE
FFFE
FFFE
FFFE
07C0
07C0
07C0
07C0
07C0
07C0
07C0
07C0
07C0
07C0
07C0
07C0
07C0
07C0
07C0
07C0
FFFE
FFFE
FFFE
FFFE
03C0
0780
0F00
0F00
0FE0
0FE0
0380
ENDCHAR
STARTCHAR 012F
ENCODING 303
SWIDTH 488 0
DWIDTH 19 0
BBX 17 34 1 -7
BITMAP
030000
078000
0FC000
0FC000
0FC000
078000
000000
000000
000000
FFC000
FFC000
FFC000
FFC000
07C000
07C000
07C000
07C000
07C000
07C000
07C000
07C000
03C000
03E080
03FF80
03FF80
01FF80
00FF80
000F00
001E00
003C00
003C00
003F80
003F80
000E00
ENDCHAR
STARTCHAR 0130
ENCODING 304
SWIDTH 488 0
DWIDTH 19 0
BBX 15 32 2 0
BITMAP
03C0
07C0
07C0
07C0
03C0
0000
0000
0000
FFFE
FFFE
FFFE
FFFE
07C0
07C0
07C0
07C0
07C0
07C0
07C0
07C0
07C0
07C0
07C0
07C0
07C0
07C0
07C0
07C0
FFFE
FFFE
FFFE
FFFE
ENDCHAR
STARTCHAR 0131
ENCODING 305
SWIDTH 488 0
DWIDTH 19 0
BBX 17 18 1 0
BITMAP
FFC000
FFC000
FFC000
FFC000
07C000
07C000
07C000
07C000
07C000
07C000
07C000
07C000
03C000
03E080
03FF80
03FF80
01FF80
00FF80
ENDCHAR
STARTCHAR 0132
ENCODING 306
SWIDTH 488 0
DWIDTH 19 0
BBX 18 25 1 -1
BITMAP
F807C0
F807C0
F807C0
F807C0
F807C0
F807C0
F807C0
F807C0
F807C0
F807C0
F807C0
F807C0
F807C0
F807C0
F807C0
F807C0
F807C0
F807C0
F807C0
F90F80
F9FF80
FBFF80
FBFF00
F9FE00
002000
ENDCHAR
STARTCHAR 0133
ENCODING 307
SWIDTH 488 0
DWIDTH 19 0
BBX 15 33 2 -6
BITMAP
3008
7C3E
FC7E
FC7E
FC7E
7C3E
1000
0000
0000
7C3E
7C3E
7C3E
7C3E
7C3E
7C3E
7C3E
7C3E
7C3E
7C3E
7C3E
7C3E
7C3E
7C3E
7C3E
7C3E
7C3E
7C3E
003E
007C
07FC
07FC
07F8
07F0
ENDCHAR
STARTCHAR 0134
ENCODING 308
SWIDTH 488 0
DWIDTH 19 0
BBX 15 33 2 -1
BITMAP
0060
00F0
01F8
03FC
0FBE
070C
0204
0000
3FFE
3FFE
3FFE
3FFE
003E
003E
003E
003E
003E
003E
003E
003E
003E
003E
003E
003E
003E
003E
003E
607E
7FFC
FFFC
FFF8
7FE0
0200
ENDCHAR
STARTCHAR 0135
ENCODING 309
SWIDTH 488 0
DWIDTH 19 0
BBX 14 34 2 -7
BITMAP
0080
01C0
03E0
07F0
1F78
0E38
0C18
0000
0000
7FFC
7FFC
7FFC
7FFC
007C
007C
007C
007C
007C
007C
007C
007C
007C
007C
007C
007C
007C
007C
0078
60F8
7FF8
FFF8
FFF0
7FE0
0200
ENDCHAR
STARTCHAR 0136
ENCODING 310
SWIDTH 488 0
DWIDTH 19 0
BBX 17 31 2 -7
BITMAP
F81F00
F83E00
F87E00
F87C00
F8FC00
F8F800
F9F000
FBF000
FBE000
FFC000
FF8000
FF8000
FFC000
FFE000
FBF000
F9F800
F8F800
F8FC00
F87E00
F83E00
F83F00
F81F00
F81F00
F81F80
000000
000000
01C000
03C000
0FC000
0F8000
060000
ENDCHAR
STARTCHAR 0137
ENCODING 311
SWIDTH 488 0
DWIDTH 19 0
BBX 17 34 2 -7
BITMAP
380000
F80000
F80000
F80000
F80000
F80000
F80000
F80000
F80000
F83F00
F87E00
F87C00
F8F800
F9F000
FBE000
FBC000
FF8000
FFC000
FFE000
FBF000
F9F800
F8F800
F87C00
F87E00
F83E00
F81F00
F81F80
000000
000000
01C000
03C000
0FC000
0F8000
060000
ENDCHAR
STARTCHAR 0138
ENCODING 312
SWIDTH 488 0
DWIDTH 19 0
BBX 17 18 2 0
BITMAP
F83F00
F87E00
F87C00
F8F800
F9F000
FBE000
FBC000
FF8000
FFC000
FFE000
FBF000
F9F800
F8F800
F87C00
F87E00
F83E00
F81F00
F81F80
ENDCHAR
STARTCHAR 0139
ENCODING 313
SWIDTH 488 0
DWIDTH 19 0
BBX 15 32 3 0
BITMAP
0300
0F00
1F80
3F80
7E00
3800
2000
0000
F800
F800
F800
F800
F800
F800
F800
F800
F800
F800
F800
F800
F800
F800
F800
F800
F800
F800
F800
F800
FFFE
FFFE
FFFE
FFFE
ENDCHAR
STARTCHAR 013A
ENCODING 314
SWIDTH 488 0
DWIDTH 19 0
BBX 17 32 1 0
BITMAP
003000
00F000
03F000
0FF000
078000
040000
000000
FFC000
FFC000
FFC000
FFC000
07C000
07C000
07C000
07C000
07C000
07C000
07C000
07C000
07C000
07C000
07C000
07C000
07C000
07C000
07C000
03C000
03E080
03FF80
03FF80
01FF80
00FF80
ENDCHAR
STARTCHAR 013B
ENCODING 315
SWIDTH 488 0
DWIDTH 19 0
BBX 15 31 3 -7
BITMAP
F800
F800
F800
F800
F800
F800
F800
F800
F800
F800
F800
F800
F800
F800
F800
F800
F800
F800
F800
F800
FFFE
FFFE
FFFE
FFFE
0000
0000
03C0
03C0
1FC0
1F80
0C00
ENDCHAR
STARTCHAR 013C
ENCODING 316
SWIDTH 488 0
DWIDTH 19 0
BBX 17 34 1 -7
BITMAP
FFC000
FFC000
FFC000
FFC000
07C000
07C000
07C000
07C000
07C000
07C000
07C000
07C000
07C000
07C000
07C000
07C000
07C000
07C000
07C000
07C000
07C000
03C000
03E080
03FF80
03FF80
01FF80
00FF80
000000
000000
003C00
003C00
01FC00
01F800
00C000
ENDCHAR
STARTCHAR 013D
ENCODING 317
SWIDTH 488 0
DWIDTH 19 0
BBX 15 24 3 0
BITMAP
F8F0
F8F0
F8F0
F8F0
F8F0
F8F0
F8E0
F8E0
F800
F800
F800
F800
F800
F800
F800
F800
F800
F800
F800
F800
FFFE
FFFE
FFFE
FFFE
ENDCHAR
STARTCHAR 013E
ENCODING 318
SWIDTH 488 0
DWIDTH 19 0
BBX 17 27 1 0
BITMAP
FFC780
FFC780
FFC780
FFC780
07C780
07C780
07C780
07C780
07C700
07C000
07C000
07C000
07C000
07C000
07C000
07C000
07C000
07C000
07C000
07C000
07C000
03C000
03E080
03FF80
03FF80
01FF80
00FF80
ENDCHAR
STARTCHAR 013F
ENCODING 319
SWIDTH 488 0
DWIDTH 19 0
BBX 15 24 3 0
BITMAP
F800
F800
F800
F800
F800
F800
F800
F83C
F87E
F8FE
F8FE
F87E
F87C
F800
F800
F800
F800
F800
F800
F800
FFFE
FFFE
FFFE
FFFE
ENDCHAR
STARTCHAR 0140
ENCODING 320
SWIDTH 488 0
DWIDTH 19 0
BBX 21 27 1 0
BITMAP
FFC000
FFC000
FFC000
FFC000
07C000
07C000
07C000
07C000
07C000
07C000
07C1F0
07C1F8
07C1F8
07C1F8
07C1F8
07C0E0
07C000
07C000
07C000
07C000
07C000
03C000
03E080
03FF80
03FF80
01FF80
00FF80
ENDCHAR
STARTCHAR 0141
ENCODING 321
SWIDTH 488 0
DWIDTH 19 0
BBX 18 24 0 0
BITMAP
1F0000
1F0000
1F0000
1F0000
1F0000
1F0000
1F0800
1F3800
1FFC00
1FFC00
1FF800
3FE000
FF8000
FF0000
7F0000
7F0000
1F0000
1F0000
1F0000
1F0000
1FFFC0
1FFFC0
1FFFC0
1FFFC0
ENDCHAR
STARTCHAR 0142
ENCODING 322
SWIDTH 488 0
DWIDTH 19 0
BBX 17 27 1 0
BITMAP
FFC000
FFC000
FFC000
FFC000
07C000
07C000
07C000
07C000
07D800
07FC00
07FC00
07F800
1FE000
3FC000
3FC000
1FC000
07C000
07C000
07C000
07C000
07C000
03C000
03E080
03FF80
03FF80
01FF80
00FF80
ENDCHAR
STARTCHAR 0143
ENCODING 323
SWIDTH 488 0
DWIDTH 19 0
BBX 16 32 2 0
BITMAP
0060
00E0
03F0
07F0
0FC0
0700
0000
0000
F01F
F81F
F81F
FC1F
FC1F
FE1F
FE1F
FF1F
FF1F
F79F
F79F
F3DF
F3DF
F1FF
F1FF
F0FF
F0FF
F07F
F07F
F03F
F03F
F01F
F01F
F00F
ENDCHAR
STARTCHAR 0144
ENCODING 324
SWIDTH 488 0
DWIDTH 19 0
BBX 15 27 2 0
BITMAP
0040
00E0
03E0
07F0
0FE0
0F80
0400
0000
07C0
FFF0
FFF8
FFFC
FFFE
F83E
F83E
F83E
F83E
F83E
F83E
F83E
F83E
F83E
F83E
F83E
F83E
F83E
F83E
ENDCHAR
STARTCHAR 0145
ENCODING 325
SWIDTH 488 0
DWIDTH 19 0
BBX 16 31 2 -7
BITMAP
F01F
F81F
F81F
FC1F
FC1F
FE1F
FE1F
FF1F
FF1F
F79F
F79F
F3DF
F3DF
F1FF
F1FF
F0FF
F0FF
F07F
F07F
F03F
F03F
F01F
F01F
F00F
0000
0000
01C0
03C0
0FC0
0F80
0600
ENDCHAR
STARTCHAR 0146
ENCODING 326
SWIDTH 488 0
DWIDTH 19 0
BBX 15 26 2 -7
BITMAP
07C0
FFF0
FFF8
FFFC
FFFE
F83E
F83E
F83E
F83E
F83E
F83E
F83E
F83E
F83E
F83E
F83E
F83E
F83E
F83E
0000
0000
03C0
03C0
1FC0
1F80
0C00
ENDCHAR
STARTCHAR 0147
ENCODING 327
SWIDTH 488 0
DWIDTH 19 0
BBX 16 32 2 0
BITMAP
0830
1E78
1FF8
0FE0
07C0
0380
0100
0000
F01F
F81F
F81F
FC1F
FC1F
FE1F
FE1F
FF1F
FF1F
F79F
F79F
F3DF
F3DF
F1FF
F1FF
F0FF
F0FF
F07F
F07F
F03F
F03F
F01F
F01F
F00F
ENDCHAR
STARTCHAR 0148
ENCODING 328
SWIDTH 488 0
DWIDTH 19 0
BBX 15 27 2 0
BITMAP
0810
1C70
3EF8
0FF0
07E0
03C0
0180
0000
07C0
FFF0
FFF8
FFFC
FFFE
F83E
F83E
F83E
F83E
F83E
F83E
F83E
F83E
F83E
F83E
F83E
F83E
F83E
F83E
ENDCHAR
STARTCHAR 0149
ENCODING 329
SWIDTH 488 0
DWIDTH 19 0
BBX 19 27 -1 0
BITMAP
7C0000
7C0000
7C0000
780000
780000
780000
F00000
700000
007C00
0FFF00
0FFF80
0FFFC0
0FFFC0
0F87E0
0F83E0
0F83E0
0F83E0
0F83E0
0F83E0
0F83E0
0F83E0
0F83E0
0F83E0
0F83E0
0F83E0
0F83E0
0F83E0
ENDCHAR
STARTCHAR 014A
ENCODING 330
SWIDTH 488 0
DWIDTH 19 0
BBX 16 31 2 -7
BITMAP
F01F
F81F
F81F
FC1F
FC1F
FE1F
FE1F
FF1F
FF1F
F79F
F79F
F3DF
F3DF
F1FF
F1FF
F0FF
F0FF
F07F
F07F
F03F
F03F
F01F
F01F
F01F
001F
001F
00FE
00FE
00FC
01FC
0040
ENDCHAR
STARTCHAR 014B
ENCODING 331
SWIDTH 488 0
DWIDTH 19 0
BBX 15 25 2 -6
BITMAP
07C0
FFF0
FFF8
FFFC
FFFE
F83E
F83E
F83E
F83E
F83E
F83E
F83E
F83E
F83E
F83E
F83E
F83E
F83E
F83E
003E
003E
017E
01FE
01FC
03F8
ENDCHAR
STARTCHAR 014C
ENCODING 332
SWIDTH 488 0
DWIDTH 19 0
BBX 17 32 1 -1
BITMAP
1FFC00
1FFC00
1FFC00
1FFC00
000000
000000
00C000
0FF800
1FFC00
3FFE00
3FFF00
7C1F00
7C0F80
780F80
F80F80
F80F80
F80F80
F80F80
F80780
F80780
F80F80
F80F80
F80F80
F80F80
780F80
7C0F80
7E1F00
3FFF00
3FFE00
1FFC00
07F800
008000
ENDCHAR
STARTCHAR 014D
ENCODING 333
SWIDTH 488 0
DWIDTH 19 0
BBX 17 26 1 -1
BITMAP
1FFC00
1FFC00
1FFC00
000000
000000
000000
01E000
0FF800
1FFE00
3FFE00
7F7F00
7C1F80
7C0F80
F80F80
F80F80
F80F80
F80F80
F80F80
F80F80
7C0F80
7C1F00
3FFF00
3FFE00
1FFC00
07F800
008000
ENDCHAR
STARTCHAR 014E
ENCODING 334
SWIDTH 488 0
DWIDTH 19 0
BBX 17 33 1 -1
BITMAP
1E1C00
1E1C00
1FFC00
0FF800
07F800
01E000
000000
00C000
0FF800
1FFC00
3FFE00
3FFF00
7C1F00
7C0F80
780F80
F80F80
F80F80
F80F80
F80F80
F80780
F80780
F80F80
F80F80
F80F80
F80F80
780F80
7C0F80
7E1F00
3FFF00
3FFE00
1FFC00
07F800
008000
ENDCHAR
STARTCHAR 014F
ENCODING 335
SWIDTH 488 0
DWIDTH 19 0
BBX 17 28 1 -1
BITMAP
1E1C00
1E1C00
1E3C00
0FFC00
0FF800
03F000
000000
000000
01E000
0FF800
1FFE00
3FFE00
7F7F00
7C1F80
7C0F80
F80F80
F80F80
F80F80
F80F80
F80F80
F80F80
7C0F80
7C1F00
3FFF00
3FFE00
1FFC00
07F800
008000
ENDCHAR
STARTCHAR 0150
ENCODING 336
SWIDTH 488 0
DWIDTH 19 0
BBX 17 33 1 -1
BITMAP
010200
038700
07CF80
0F9F00
1F3E00
0E1C00
000000
00C000
0FF800
1FFC00
3FFE00
3FFF00
7C1F00
7C0F80
780F80
F80F80
F80F80
F80F80
F80F80
F80780
F80780
F80F80
F80F80
F80F80
F80F80
780F80
7C0F80
7E1F00
3FFF00
3FFE00
1FFC00
07F800
008000
ENDCHAR
STARTCHAR 0151
ENCODING 337
SWIDTH 488 0
DWIDTH 19 0
BBX 17 28 1 -1
BITMAP
010200
038700
03C780
07CF80
0F1E00
1E3C00
0C1800
000000
01E000
0FF800
1FFE00
3FFE00
7F7F00
7C1F80
7C0F80
F80F80
F80F80
F80F80
F80F80
F80F80
F80F80
7C0F80
7C1F00
3FFF00
3FFE00
1FFC00
07F800
008000
ENDCHAR
STARTCHAR 0152
ENCODING 338
SWIDTH 488 0
DWIDTH 19 0
BBX 18 24 1 0
BITMAP
0FFFC0
1FFFC0
3FFFC0
7FFFC0
7C7800
F87800
F87800
F07800
F07800
F07F80
F07F80
F07F80
F07F80
F07800
F07800
F07800
F07800
F87800
F87800
7C7800
7FFFC0
3FFFC0
1FFFC0
0FFFC0
ENDCHAR
STARTCHAR 0153
ENCODING 339
SWIDTH 488 0
DWIDTH 19 0
BBX 18 19 1 0
BITMAP
0E0C00
3F3F00
7FFF80
7FFF80
FBF380
F1E3C0
F1E3C0
F1E3C0
F1FFC0
F1FFC0
F1FFC0
F1E000
F1E000
F1E000
F1F000
7FFF80
7FFF80
3FBF80
3F1F80
ENDCHAR
STARTCHAR 0154
ENCODING 340
SWIDTH 488 0
DWIDTH 19 0
BBX 17 32 2 0
BITMAP
00C000
01E000
03E000
0FF000
0FC000
0F0000
000000
000000
FFE000
FFF800
FFFC00
FFFE00
F87E00
F83E00
F83E00
F81E00
F83E00
F83E00
F87E00
FFFE00
FFFC00
FFF800
FFF000
F8F800
F8F800
F87C00
F87C00
F83E00
F83E00
F81F00
F81F00
F80F80
ENDCHAR
STARTCHAR 0155
ENCODING 341
SWIDTH 488 0
DWIDTH 19 0
BBX 15 26 3 1
BITMAP
00E0
01F0
07F0
0FE0
0780
0600
0000
02E0
3FFE
FFFE
FFFC
FFFC
F800
F800
F800
F800
F800
F800
F800
F800
F800
F800
F800
F800
F800
F800
ENDCHAR
STARTCHAR 0156
ENCODING 342
SWIDTH 488 0
DWIDTH 19 0
BBX 17 31 2 -7
BITMAP
FFE000
FFF800
FFFC00
FFFE00
F87E00
F83E00
F83E00
F81E00
F83E00
F83E00
F87E00
FFFE00
FFFC00
FFF800
FFF000
F8F800
F8F800
F87C00
F87C00
F83E00
F83E00
F81F00
F81F00
F80F80
000000
000000
01C000
03C000
0FC000
0F8000
060000
ENDCHAR
STARTCHAR 0157
ENCODING 343
SWIDTH 488 0
DWIDTH 19 0
BBX 17 26 1 -7
BITMAP
00B800
0FFF80
3FFF80
3FFF00
3FFF00
3E0000
3E0000
3E0000
3E0000
3E0000
3E0000
3E0000
3E0000
3E0000
3E0000
3E0000
3E0000
3E0000
3E0000
000000
000000
1E0000
1E0000
FE0000
FC0000
600000
ENDCHAR
STARTCHAR 0158
ENCODING 344
SWIDTH 488 0
DWIDTH 19 0
BBX 17 32 2 0
BITMAP
182000
3CF000
3FF000
1FE000
0FC000
038000
000000
000000
FFE000
FFF800
FFFC00
FFFE00
F87E00
F83E00
F83E00
F81E00
F83E00
F83E00
F87E00
FFFE00
FFFC00
FFF800
FFF000
F8F800
F8F800
F87C00
F87C00
F83E00
F83E00
F81F00
F81F00
F80F80
ENDCHAR
STARTCHAR 0159
ENCODING 345
SWIDTH 488 0
DWIDTH 19 0
BBX 15 27 3 0
BITMAP
0810
0C38
1F78
0FF0
07E0
03C0
0180
0000
02E0
3FFE
FFFE
FFFC
FFFC
F800
F800
F800
F800
F800
F800
F800
F800
F800
F800
F800
F800
F800
F800
ENDCHAR
STARTCHAR 015A
ENCODING 346
SWIDTH 488 0
DWIDTH 19 0
BBX 16 33 2 -1
BITMAP
0040
01E0
03F0
07F0
0FC0
0700
0400
01C0
1FFC
3FFE
7FFC
FE7C
F800
F800
F800
F800
FC00
7F80
7FE0
3FF8
0FFC
03FE
007E
003F
001F
001F
001F
403F
FFFE
FFFE
FFFC
7FF0
0300
ENDCHAR
STARTCHAR 015B
ENCODING 347
SWIDTH 488 0
DWIDTH 19 0
BBX 15 27 2 0
BITMAP
0040
00E0
01E0
07F0
0FE0
0F80
0600
0000
03F0
1FFC
3FFC
7FFC
7E3C
7800
7C00
7E00
7FC0
3FF8
0FFC
03FE
007E
003E
403E
7FFE
FFFE
FFFC
3FF0
ENDCHAR
STARTCHAR 015C
ENCODING 348
SWIDTH 488 0
DWIDTH 19 0
BBX 16 33 2 -1
BITMAP
0180
03C0
07E0
1FF0
3EF8
1C30
0800
01C0
1FFC
3FFE
7FFC
FE7C
F800
F800
F800
F800
FC00
7F80
7FE0
3FF8
0FFC
03FE
007E
003F
001F
001F
001F
403F
FFFE
FFFE
FFFC
7FF0
0300
ENDCHAR
STARTCHAR 015D
ENCODING 349
SWIDTH 488 0
DWIDTH 19 0
BBX 15 27 2 0
BITMAP
0100
0380
07C0
0FF0
1FF8
1E78
0830
0000
03F0
1FFC
3FFC
7FFC
7E3C
7800
7C00
7E00
7FC0
3FF8
0FFC
03FE
007E
003E
403E
7FFE
FFFE
FFFC
3FF0
ENDCHAR
STARTCHAR 015E
ENCODING 350
SWIDTH 488 0
DWIDTH 19 0
BBX 16 32 2 -7
BITMAP
01C0
1FFC
3FFE
7FFC
FE7C
F800
F800
F800
F800
FC00
7F80
7FE0
3FF8
0FFC
03FE
007E
003F
001F
001F
001F
403F
FFFE
FFFE
FFFC
7FF0
0700
0780
01C0
01C0
1FC0
1FC0
0600
ENDCHAR
STARTCHAR 015F
ENCODING 351
SWIDTH 488 0
DWIDTH 19 0
BBX 15 26 2 -7
BITMAP
03F0
1FFC
3FFC
7FFC
7E3C
7800
7C00
7E00
7FC0
3FF8
0FFC
03FE
007E
003E
403E
7FFE
FFFE
FFFC
3FF0
0380
07C0
01E0
01E0
1FE0
1FC0
0700
ENDCHAR
STARTCHAR 0160
ENCODING 352
SWIDTH 488 0
DWIDTH 19 0
BBX 16 33 2 -1
BITMAP
0830
1E78
1FF8
0FE0
07C0
0380
0100
01C0
1FFC
3FFE
7FFC
FE7C
F800
F800
F800
F800
FC00
7F80
7FE0
3FF8
0FFC
03FE
007E
003F
001F
001F
001F
403F
FFFE
FFFE
FFFC
7FF0
0300
ENDCHAR
STARTCHAR 0161
ENCODING 353
SWIDTH 488 0
DWIDTH 19 0
BBX 15 27 2 0
BITMAP
0810
1C70
3EF8
0FF0
07E0
03C0
0180
0000
03F0
1FFC
3FFC
7FFC
7E3C
7800
7C00
7E00
7FC0
3FF8
0FFC
03FE
007E
003E
403E
7FFE
FFFE
FFFC
3FF0
ENDCHAR
STARTCHAR 0162
ENCODING 354
SWIDTH 488 0
DWIDTH 19 0
BBX 17 31 1 -7
BITMAP
FFFF80
FFFF80
FFFF80
FFFF80
03E000
03E000
03E000
03E000
03E000
03E000
03E000
03E000
03E000
03E000
03E000
03E000
03E000
03E000
03E000
03E000
03E000
03E000
03E000
03E000
01C000
03E000
00F000
00F000
0FF000
0FE000
030000
ENDCHAR
STARTCHAR 0163
ENCODING 355
SWIDTH 488 0
DWIDTH 19 0
BBX 17 31 1 -7
BITMAP
008000
078000
078000
078000
078000
078000
FFFF80
FFFF80
FFFF80
FFFF80
078000
078000
078000
078000
078000
078000
078000
078000
078000
07C080
07FF80
07FF80
03FF80
01FF80
007800
007C00
001C00
001E00
01FC00
01FC00
006000
ENDCHAR
STARTCHAR 0164
ENCODING 356
SWIDTH 488 0
DWIDTH 19 0
BBX 17 32 1 0
BITMAP
041800
0F3C00
0FFC00
07F000
03E000
01C000
008000
000000
FFFF80
FFFF80
FFFF80
FFFF80
03E000
03E000
03E000
03E000
03E000
03E000
03E000
03E000
03E000
03E000
03E000
03E000
03E000
03E000
03E000
03E000
03E000
03E000
03E000
03E000
ENDCHAR
STARTCHAR 0165
ENCODING 357
SWIDTH 488 0
DWIDTH 19 0
BBX 17 27 1 0
BITMAP
000F00
000F00
000E00
008E00
078E00
078E00
078E00
078000
078000
FFFF80
FFFF80
FFFF80
FFFF80
078000
078000
078000
078000
078000
078000
078000
078000
078000
07C080
07FF80
07FF80
03FF80
01FF80
ENDCHAR
STARTCHAR 0166
ENCODING 358
SWIDTH 488 0
DWIDTH 19 0
BBX 17 24 1 0
BITMAP
FFFF80
FFFF80
FFFF80
FFFF80
03E000
03E000
03E000
03E000
03E000
03E000
03E000
7FFF00
7FFF00
7FFF00
7FFF00
03E000
03E000
03E000
03E000
03E000
03E000
03E000
03E000
03E000
ENDCHAR
STARTCHAR 0167
ENCODING 359
SWIDTH 488 0
DWIDTH 19 0
BBX 17 24 1 0
BITMAP
008000
078000
078000
078000
078000
078000
FFFF80
FFFF80
FFFF80
FFFF80
078000
078000
078000
FFFF80
FFFF80
FFFF80
078000
078000
078000
07C080
07FF80
07FF80
03FF80
01FF80
ENDCHAR
STARTCHAR 0168
ENCODING 360
SWIDTH 488 0
DWIDTH 19 0
BBX 16 32 2 0
BITMAP
1F18
3FFC
3FF8
39F0
1000
0000
0000
F01F
F01F
F01F
F01F
F01F
F01F
F01F
F01F
F01F
F01F
F01F
F01F
F01F
F01F
F01F
F01F
F01F
F01F
F81F
F83E
FFFE
7FFE
3FFC
1FF0
0100
ENDCHAR
STARTCHAR 0169
ENCODING 361
SWIDTH 488 0
DWIDTH 19 0
BBX 15 26 2 0
BITMAP
0E18
1FFC
3FFC
3FF8
10F0
0000
0000
0000
F83E
F83E
F83E
F83E
F83E
F83E
F83E
F83E
F83E
F83E
F83E
F83E
F83E
7C3E
7FFE
7FFE
3FFE
1FFE
ENDCHAR
STARTCHAR 016A
ENCODING 362
SWIDTH 488 0
DWIDTH 19 0
BBX 16 32 2 -1
BITMAP
3FF8
3FF8
3FF8
3FF8
0000
0000
0000
F01F
F01F
F01F
F01F
F01F
F01F
F01F
F01F
F01F
F01F
F01F
F01F
F01F
F01F
F01F
F01F
F01F
F01F
F81F
F83E
FFFE
7FFE
3FFC
1FF0
0100
ENDCHAR
STARTCHAR 016B
ENCODING 363
SWIDTH 488 0
DWIDTH 19 0
BBX 15 25 2 0
BITMAP
3FF8
3FF8
3FF8
0000
0000
0000
0000
F83E
F83E
F83E
F83E
F83E
F83E
F83E
F83E
F83E
F83E
F83E
F83E
F83E
7C3E
7FFE
7FFE
3FFE
1FFE
ENDCHAR
STARTCHAR 016C
ENCODING 364
SWIDTH 488 0
DWIDTH 19 0
BBX 16 33 2 -1
BITMAP
3C38
3C38
3FF8
1FF0
0FF0
03C0
0000
0000
F01F
F01F
F01F
F01F
F01F
F01F
F01F
F01F
F01F
F01F
F01F
F01F
F01F
F01F
F01F
F01F
F01F
F01F
F81F
F83E
FFFE
7FFE
3FFC
1FF0
0100
ENDCHAR
STARTCHAR 016D
ENCODING 365
SWIDTH 488 0
DWIDTH 19 0
BBX 15 27 2 0
BITMAP
3C38
3C38
3C78
1FF8
1FF0
07E0
0000
0000
0000
F83E
F83E
F83E
F83E
F83E
F83E
F83E
F83E
F83E
F83E
F83E
F83E
F83E
7C3E
7FFE
7FFE
3FFE
1FFE
ENDCHAR
STARTCHAR 016E
ENCODING 366
SWIDTH 488 0
DWIDTH 19 0
BBX 16 33 2 -1
BITMAP
07C0
0FE0
0EF0
0C70
0C70
0FF0
07E0
0380
0000
F01F
F01F
F01F
F01F
F01F
F01F
F01F
F01F
F01F
F01F
F01F
F01F
F01F
F01F
F01F
F01F
F01F
F81F
F83E
FFFE
7FFE
3FFC
1FF0
0100
ENDCHAR
STARTCHAR 016F
ENCODING 367
SWIDTH 488 0
DWIDTH 19 0
BBX 15 27 2 1
BITMAP
07E0
0FE0
0C70
0C70
0C70
0FE0
07E0
0000
0000
F83E
F83E
F83E
F83E
F83E
F83E
F83E
F83E
F83E
F83E
F83E
F83E
F83E
7C3E
7FFE
7FFE
3FFE
1FFE
ENDCHAR
STARTCHAR 0170
ENCODING 368
SWIDTH 488 0
DWIDTH 19 0
BBX 16 33 2 -1
BITMAP
0204
070E
0F9F
1F3E
3E7C
1C38
0000
0000
F01F
F01F
F01F
F01F
F01F
F01F
F01F
F01F
F01F
F01F
F01F
F01F
F01F
F01F
F01F
F01F
F01F
F01F
F81F
F83E
FFFE
7FFE
3FFC
1FF0
0100
ENDCHAR
STARTCHAR 0171
ENCODING 369
SWIDTH 488 0
DWIDTH 19 0
BBX 16 27 2 0
BITMAP
0204
070E
0F9F
1F3E
3E7C
3C78
1020
0000
0000
F83E
F83E
F83E
F83E
F83E
F83E
F83E
F83E
F83E
F83E
F83E
F83E
F83E
7C3E
7FFE
7FFE
3FFE
1FFE
ENDCHAR
STARTCHAR 0172
ENCODING 370
SWIDTH 488 0
DWIDTH 19 0
BBX 16 31 2 -7
BITMAP
F01F
F01F
F01F
F01F
F01F
F01F
F01F
F01F
F01F
F01F
F01F
F01F
F01F
F01F
F01F
F01F
F01F
F01F
F81F
F83E
FFFE
7FFE
3FFC
1FF8
01F0
01E0
03C0
03C0
03F8
03F8
00E0
ENDCHAR
STARTCHAR 0173
ENCODING 371
SWIDTH 488 0
DWIDTH 19 0
BBX 15 25 2 -7
BITMAP
F83E
F83E
F83E
F83E
F83E
F83E
F83E
F83E
F83E
F83E
F83E
F83E
F83E
7C3E
7FFE
7FFE
3FFE
1FFE
003C
0078
00F0
00F0
00FE
00FE
0038
ENDCHAR
STARTCHAR 0174
ENCODING 372
SWIDTH 488 0
DWIDTH 19 0
BBX 18 32 1 0
BITMAP
00C000
01E000
03F000
0FF800
1F7C00
0E1800
040000
000000
F007C0
F00780
F00780
F00780
F00780
F00780
F00780
F00780
F1E780
F1E780
F3E780
F3E780
F3F780
F3F780
777780
777780
773F80
7E3F80
7E3F80
7E1F80
7C1F80
7C1F00
7C0F00
780F00
ENDCHAR
STARTCHAR 0175
ENCODING 373
SWIDTH 488 0
DWIDTH 19 0
BBX 19 27 0 0
BITMAP
004000
00E000
01F000
03FC00
07FE00
079E00
020C00
000000
000000
F801E0
7801E0
7801E0
78F1E0
78F1E0
78F1C0
79F1C0
79F1C0
79FBC0
79FBC0
3BBBC0
3BBFC0
3B9F80
3F1F80
3F1F80
1F0F80
1E0F80
1E0F00
ENDCHAR
STARTCHAR 0176
ENCODING 374
SWIDTH 488 0
DWIDTH 19 0
BBX 18 32 1 0
BITMAP
00C000
01E000
03F000
0FF800
1F7C00
0E1800
040000
000000
F807C0
F80F80
F80F80
7C0F80
7C1F00
3E1F00
3E1E00
1E3E00
1F3C00
0F3C00
0FFC00
07F800
07F000
03F000
03E000
03E000
03E000
03E000
03E000
03E000
03E000
03E000
03E000
03E000
ENDCHAR
STARTCHAR 0177
ENCODING 375
SWIDTH 488 0
DWIDTH 19 0
BBX 17 34 1 -7
BITMAP
008000
01C000
03E000
07F800
0FFC00
0F3C00
041800
000000
000000
7C0F80
7C0F80
7C0F80
7C0F00
3E1F00
3E1F00
3E1E00
1F1E00
1F3E00
0F3E00
0FBC00
0FBC00
07FC00
07F800
03F800
03F000
01F000
01F000
03E000
03E000
7FC000
FFC000
FF8000
FF0000
380000
ENDCHAR
STARTCHAR 0178
ENCODING 376
SWIDTH 488 0
DWIDTH 19 0
BBX 18 32 1 0
BITMAP
080800
1E3E00
3F3E00
3F3E00
1E3E00
0C0C00
000000
000000
F807C0
F80F80
F80F80
7C0F80
7C1F00
3E1F00
3E1E00
1E3E00
1F3C00
0F3C00
0FFC00
07F800
07F000
03F000
03E000
03E000
03E000
03E000
03E000
03E000
03E000
03E000
03E000
03E000
ENDCHAR
STARTCHAR 0179
ENCODING 377
SWIDTH 488 0
DWIDTH 19 0
BBX 16 32 2 0
BITMAP
0060
00E0
03F0
07F0
0FC0
0700
0000
0000
FFFE
FFFE
FFFE
FFFE
007E
007C
00F8
01F8
01F0
03E0
03E0
07C0
07C0
0F80
1F00
1F00
3E00
3E00
7C00
7C00
FFFF
FFFF
FFFF
FFFF
ENDCHAR
STARTCHAR 017A
ENCODING 378
SWIDTH 488 0
DWIDTH 19 0
BBX 14 26 3 1
BITMAP
01C0
03E0
0FE0
1FC0
0F00
0C00
0000
0000
FFFC
FFFC
FFFC
FFF8
01F0
03F0
07E0
07C0
0F80
1F80
1F00
3E00
7C00
7C00
FFFC
FFFC
FFFC
FFFC
ENDCHAR
STARTCHAR 017B
ENCODING 379
SWIDTH 488 0
DWIDTH 19 0
BBX 16 32 2 0
BITMAP
0180
07C0
07C0
07C0
07C0
0380
0000
0000
FFFE
FFFE
FFFE
FFFE
007E
007C
00F8
01F8
01F0
03E0
03E0
07C0
07C0
0F80
1F00
1F00
3E00
3E00
7C00
7C00
FFFF
FFFF
FFFF
FFFF
ENDCHAR
STARTCHAR 017C
ENCODING 380
SWIDTH 488 0
DWIDTH 19 0
BBX 14 26 3 0
BITMAP
0780
0F80
0F80
0F80
0780
0000
0000
0000
FFFC
FFFC
FFFC
FFF8
01F0
03F0
07E0
07C0
0F80
1F80
1F00
3E00
7C00
7C00
FFFC
FFFC
FFFC
FFFC
ENDCHAR
STARTCHAR 017D
ENCODING 381
SWIDTH 488 0
DWIDTH 19 0
BBX 16 32 2 0
BITMAP
0830
1E78
1FF8
0FE0
07C0
0380
0100
0000
FFFE
FFFE
FFFE
FFFE
007E
007C
00F8
01F8
01F0
03E0
03E0
07C0
07C0
0F80
1F00
1F00
3E00
3E00
7C00
7C00
FFFF
FFFF
FFFF
FFFF
ENDCHAR
STARTCHAR 017E
ENCODING 382
SWIDTH 488 0
DWIDTH 19 0
BBX 14 27 3 0
BITMAP
1020
38E0
7DF0
1FE0
0FC0
0780
0300
0000
0000
FFFC
FFFC
FFFC
FFF8
01F0
03F0
07E0
07C0
0F80
1F80
1F00
3E00
7C00
7C00
FFFC
FFFC
FFFC
FFFC
ENDCHAR
STARTCHAR 017F
ENCODING 383
SWIDTH 488 0
DWIDTH 19 0
BBX 14 27 5 0
BITMAP
07F0
1FFC
3FFC
7FFC
7E18
7C00
F800
F800
F800
F800
F800
F800
F800
F800
F800
F800
F800
F800
F800
F800
F800
F800
F800
F800
F800
F800
F800
ENDCHAR
STARTCHAR 0180
ENCODING 384
SWIDTH 488 0
DWIDTH 19 0
BBX 17 27 1 0
BITMAP
0E0000
3E0000
3E0000
FFF000
FFF000
FFF000
3E0000
3E0000
3E7000
3FFC00
3FFE00
3FFF00
3FFF00
3E1F80
3E0F80
3E0F80
3E0F80
3E0F80
3E0F80
3E0F80
3E0F80
3E0F80
3E1F00
3FFF00
3FFE00
3FFC00
3FF800
ENDCHAR
STARTCHAR 0181
ENCODING 385
SWIDTH 488 0
DWIDTH 19 0
BBX 19 24 0 0
BITMAP
1FFE00
7FFF00
7FFF80
FFEF80
F3C7C0
F3C3C0
F3C3C0
F3C3C0
03C780
03FF80
03FF00
03FF00
03FF80
03CFC0
03C3C0
03C1E0
03C1E0
03C1E0
03C1E0
03C3E0
03FFC0
03FFC0
03FF80
03FE00
ENDCHAR
STARTCHAR 0182
ENCODING 386
SWIDTH 488 0
DWIDTH 19 0
BBX 16 24 2 0
BITMAP
FFFC
FFFC
FFFC
FFFC
F800
F800
F800
F800
FE00
FFF0
FFFC
FFFE
FFFE
F83F
F81F
F81F
F80F
F81F
F81F
F83F
FFFE
FFFE
FFFC
FFF0
ENDCHAR
STARTCHAR 0183
ENCODING 387
SWIDTH 488 0
DWIDTH 19 0
BBX 16 27 2 0
BITMAP
FFFC
FFFC
FFFC
FFFC
F800
F800
F800
F800
F9E0
FFF8
FFFC
FFFE
FFFE
F83F
F81F
F81F
F81F
F81F
F81F
F81F
F81F
F81F
F83E
FFFE
FFFC
FFF8
7FF0
ENDCHAR
STARTCHAR 0184
ENCODING 388
SWIDTH 488 0
DWIDTH 19 0
BBX 18 27 0 0
BITMAP
020000
1E0000
7E0000
FE0000
7E0000
3E0000
3E0000
3E0000
3E7800
3FFE00
3FFF00
3FFF80
3FFF80
3E0FC0
3E07C0
3E07C0
3E07C0
3E07C0
3E07C0
3E07C0
3E07C0
3E07C0
3E0F80
3FFF80
3FFF00
3FFE00
1FFC00
ENDCHAR
STARTCHAR 0185
ENCODING 389
SWIDTH 488 0
DWIDTH 19 0
BBX 18 24 0 0
BITMAP
070000
3F0000
FF0000
7F0000
7F0000
3F0000
1F0000
1F0000
1F0000
1FFC00
1FFF00
1FFF80
1FFF80
1F0FC0
1F07C0
1F07C0
1F07C0
1F07C0
1F07C0
1F0FC0
1FFF80
1FFF80
1FFF00
1FFC00
ENDCHAR
STARTCHAR 0186
ENCODING 390
SWIDTH 488 0
DWIDTH 19 0
BBX 17 26 1 -1
BITMAP
070000
7FF000
FFF800
7FFC00
7FFE00
403F00
001F00
001F80
000F80
000F80
000F80
000F80
000F80
000F80
000F80
000F80
000F80
000F80
001F00
001F00
403F00
7FFE00
FFFC00
FFF800
7FF000
020000
ENDCHAR
STARTCHAR 0187
ENCODING 391
SWIDTH 488 0
DWIDTH 19 0
BBX 19 28 1 -1
BITMAP
0003E0
0007E0
0067E0
07FFE0
0FFE00
1FFE00
3FFE00
3E0000
7C0000
7C0000
FC0000
F80000
F80000
F80000
F80000
F80000
F80000
F80000
F80000
F80000
7C0000
7C0000
3E0200
3FFE00
1FFE00
0FFF00
07FC00
004000
ENDCHAR
STARTCHAR 0188
ENCODING 392
SWIDTH 488 0
DWIDTH 19 0
BBX 18 23 2 -1
BITMAP
000300
000FC0
001FC0
01FFC0
0FFE00
1FFC00
3FF800
7FB800
FC0000
F80000
F80000
F80000
F00000
F00000
F80000
F80000
F80000
FE0000
7FFC00
3FFC00
1FFC00
0FFC00
00C000
ENDCHAR
STARTCHAR 0189
ENCODING 393
SWIDTH 488 0
DWIDTH 19 0
BBX 17 24 1 0
BITMAP
3FF000
3FFC00
3FFE00
3FFE00
3E3F00
3E1F00
3E0F80
3E0F80
3E0F80
3E0F80
FFCF80
FFC780
FFCF80
FFCF80
3E0F80
3E0F80
3E0F80
3E0F80
3E1F00
3E3F00
3FFE00
3FFC00
3FF800
3FE000
ENDCHAR
STARTCHAR 018A
ENCODING 394
SWIDTH 488 0
DWIDTH 19 0
BBX 19 24 0 0
BITMAP
1FFC00
3FFF00
7FFF00
FFDF80
F3C7C0
F3C3C0
F3C3C0
F3C3C0
03C3E0
03C1E0
03C1E0
03C1E0
03C1E0
03C1E0
03C3E0
03C3E0
03C3C0
03C3C0
03C3C0
03C780
03FF80
03FF00
03FE00
03FC00
ENDCHAR
STARTCHAR 018B
ENCODING 395
SWIDTH 488 0
DWIDTH 19 0
BBX 16 24 1 0
BITMAP
3FFF
3FFF
3FFF
3FFF
000F
000F
000F
000F
000F
07FF
1FFF
3FFF
7FFF
7E0F
F80F
F80F
F80F
F80F
FC0F
7E0F
7FFF
3FFF
1FFF
07FF
ENDCHAR
STARTCHAR 018C
ENCODING 396
SWIDTH 488 0
DWIDTH 19 0
BBX 16 27 1 0
BITMAP
3FFF
3FFF
3FFF
3FFF
001F
001F
001F
001F
039F
1FFF
3FFF
3FFF
7F7F
7C1F
F81F
F81F
F81F
F81F
F81F
F81F
F81F
FC1F
7C1F
7FFF
3FFF
1FFF
0FFF
ENDCHAR
STARTCHAR 018D
ENCODING 397
SWIDTH 488 0
DWIDTH 19 0
BBX 17 26 1 -7
BITMAP
03E000
0FFC00
3FFE00
3FFF00
7F3F80
7C0F80
F80F80
F80F80
F80F80
F80F80
FC0F80
7C0F80
7E1F00
3F3E00
1FFC00
0FF800
07F800
01FC00
00FE00
003E00
003E00
187E00
1FFC00
3FFC00
3FF000
030000
ENDCHAR
STARTCHAR 018E
ENCODING 398
SWIDTH 488 0
DWIDTH 19 0
BBX 16 24 2 0
BITMAP
7FFF
7FFF
7FFF
7FFF
001F
001F
001F
001F
001F
1FFF
1FFF
1FFF
1FFF
001F
001F
001F
001F
001F
001F
001F
FFFF
FFFF
FFFF
FFFF
ENDCHAR
STARTCHAR 018F
ENCODING 399
SWIDTH 488 0
DWIDTH 19 0
BBX 17 26 1 -1
BITMAP
078000
7FF000
7FF800
7FFC00
3FFE00
003F00
001F00
000F00
000F80
000780
000780
000780
FFFF80
FFFF80
FFFF80
F00780
F00780
F80F80
F80F80
780F00
7C1F00
3F3E00
3FFE00
1FFC00
0FF000
008000
ENDCHAR
STARTCHAR 0190
ENCODING 400
SWIDTH 488 0
DWIDTH 19 0
BBX 18 26 1 -1
BITMAP
00E000
0FFE00
1FFF80
3FFF80
3FFF00
7E0300
7C0000
7C0000
7C0000
3E0000
3FFC00
1FFC00
0FFC00
3FFC00
7FC000
7C0000
F80000
F80000
F80000
FC0000
7E0380
7FFF80
3FFFC0
1FFFC0
0FFF00
004000
ENDCHAR
STARTCHAR 0191
ENCODING 401
SWIDTH 488 0
DWIDTH 19 0
BBX 19 31 -2 -7
BITMAP
0FFFE0
0FFFE0
0FFFE0
0FFFE0
0F8000
0F8000
0F8000
0F8000
0F8000
0F8000
0FFFC0
0FFFC0
0FFFC0
0FFFC0
0F8000
0F8000
0F8000
0F8000
0F8000
0F8000
0F8000
0F8000
0F8000
0F8000
0F8000
0F8000
7F8000
FF8000
FF0000
FE0000
200000
ENDCHAR
STARTCHAR 0192
ENCODING 402
SWIDTH 488 0
DWIDTH 19 0
BBX 19 34 0 -7
BITMAP
003F80
00FFE0
01FFE0
03FFE0
03F0C0
03E000
07C000
07C000
07C000
7FFFC0
7FFFC0
7FFFC0
7FFFC0
07C000
07C000
07C000
07C000
07C000
07C000
07C000
07C000
07C000
07C000
07C000
07C000
07C000
07C000
07C000
07C000
7FC000
7F8000
FF8000
FE0000
300000
ENDCHAR
STARTCHAR 0193
ENCODING 403
SWIDTH 488 0
DWIDTH 19 0
BBX 19 28 1 -1
BITMAP
0003E0
0007E0
0067E0
07FFE0
0FFE00
1FFE00
3FFE00
3E0000
7C0000
7C0000
F80000
F80000
F80000
F80000
F80F80
F80F80
F80F80
F80F80
F80F80
F80F80
7C0F80
7C0F80
3E0F80
3FFF80
1FFF80
0FFF80
07FF80
006000
ENDCHAR
STARTCHAR 0194
ENCODING 404
SWIDTH 488 0
DWIDTH 19 0
BBX 18 30 1 -6
BITMAP
F007C0
F80780
F80F80
780F80
7C0F00
3C1F00
3E1E00
1E1E00
1E3C00
1F3C00
0F3C00
0F7800
07F800
07F000
03F000
03E000
03F000
07F000
07F800
0FF800
0F7C00
1F3C00
1E3C00
1E3E00
1E1E00
1E3E00
1F7E00
1FFC00
0FFC00
07F800
ENDCHAR
STARTCHAR 0195
ENCODING 405
SWIDTH 488 0
DWIDTH 19 0
BBX 18 28 1 -1
BITMAP
300000
F00000
F00000
F00000
F00000
F00000
F00000
F00000
F60000
FF83C0
FFC3C0
FFC3C0
F1C3C0
F1E3C0
F1E3C0
F1E3C0
F1E3C0
F1E3C0
F1E3C0
F1E3C0
F1E3C0
F1E3C0
F1E3C0
F1E780
F0FF80
F0FF80
F07F00
000800
ENDCHAR
STARTCHAR 0196
ENCODING 406
SWIDTH 488 0
DWIDTH 19 0
BBX 17 25 1 -1
BITMAP
FFFE00
FFFE00
FFFE00
FFFE00
07C000
07C000
07C000
07C000
07C000
07C000
07C000
07C000
07C000
07C000
07C000
07C000
07C000
07C000
07C000
07C000
07FF00
03FF80
03FF80
00FF80
001000
ENDCHAR
STARTCHAR 0197
ENCODING 407
SWIDTH 488 0
DWIDTH 19 0
BBX 15 24 2 0
BITMAP
FFFE
FFFE
FFFE
FFFE
07C0
07C0
07C0
07C0
07C0
07C0
3FFC
3FFC
3FFC
07C0
07C0
07C0
07C0
07C0
07C0
07C0
FFFE
FFFE
FFFE
FFFE
ENDCHAR
STARTCHAR 0198
ENCODING 408
SWIDTH 488 0
DWIDTH 19 0
BBX 18 25 2 0
BITMAP
000200
F81F80
F83FC0
F83FC0
F87F80
F8FC00
F8F800
F9F000
FBE000
FBE000
FFC000
FF8000
FF8000
FFC000
FFE000
FBF000
F9F800
F8F800
F8FC00
F87C00
F83E00
F83F00
F81F00
F81F00
F81F80
ENDCHAR
STARTCHAR 0199
ENCODING 409
SWIDTH 488 0
DWIDTH 19 0
BBX 17 27 2 0
BITMAP
0F8000
3F8000
7F8000
7F8000
7C0000
F80000
F80000
F80000
F80000
F83F00
F87E00
F87C00
F8F800
F9F000
FBE000
FBC000
FF8000
FFC000
FFE000
FBF000
F9F800
F8F800
F87C00
F87E00
F83E00
F81F00
F81F80
ENDCHAR
STARTCHAR 019A
ENCODING 410
SWIDTH 488 0
DWIDTH 19 0
BBX 17 27 2 0
BITMAP
FFC000
FFC000
FFC000
FFC000
07C000
07C000
07C000
07C000
07C000
07C000
07C000
FFFE00
FFFE00
FFFE00
FFFE00
07C000
07C000
07C000
07C000
07C000
07C000
07C000
03E000
03FF80
03FF80
01FF80
00FF80
ENDCHAR
STARTCHAR 019B
ENCODING 411
SWIDTH 488 0
DWIDTH 19 0
BBX 17 27 1 0
BITMAP
FC0000
FF0000
FF8C00
FFFC00
0FFE00
0FF800
7FE000
7FE000
39F000
01F000
03F000
03F800
07F800
07FC00
0FFC00
0FFC00
1F7E00
1F3E00
1F3E00
3E3F00
3E3F00
7E1F00
7C1F00
7C1F80
FC1F80
F80F80
F80F80
ENDCHAR
STARTCHAR 019C
ENCODING 412
SWIDTH 488 0
DWIDTH 19 0
BBX 18 24 1 0
BITMAP
F003C0
F003C0
F003C0
F003C0
F003C0
F003C0
F003C0
F003C0
F003C0
F1E3C0
F1E3C0
F1E3C0
F1E3C0
F1E3C0
F1E3C0
F1E3C0
F1E3C0
F1E3C0
F1E3C0
F1E3C0
FFFFC0
FFFFC0
7FFFC0
3F7FC0
ENDCHAR
STARTCHAR 019D
ENCODING 413
SWIDTH 488 0
DWIDTH 19 0
BBX 21 31 -3 -7
BITMAP
0780F8
07C0F8
07C0F8
07E0F8
07E0F8
07F0F8
07F0F8
07F8F8
07F8F8
07BCF8
07BCF8
079EF8
079EF8
078FF8
078FF8
0787F8
0787F8
0783F8
0783F8
0781F8
0781F8
0780F8
0780F8
078078
078000
0F8000
7F8000
7F8000
7F0000
FE0000
100000
ENDCHAR
STARTCHAR 019E
ENCODING 414
SWIDTH 488 0
DWIDTH 19 0
BBX 15 25 2 -6
BITMAP
07C0
FFF0
FFF8
FFFC
FFFE
F83E
F83E
F83E
F83E
F83E
F83E
F83E
F83E
F83E
F83E
F83E
F83E
F83E
F83E
003E
003E
003E
003E
003E
003E
ENDCHAR
STARTCHAR 019F
ENCODING 415
SWIDTH 488 0
DWIDTH 19 0
BBX 17 26 1 -1
BITMAP
00C000
0FF800
1FFC00
3FFE00
3FFF00
7C1F00
7C0F80
780F80
F80F80
F80F80
F80F80
FFFF80
FFFF80
FFFF80
FFFF80
F80F80
F80F80
F80F80
780F80
7C0F80
7E1F00
3FFF00
3FFE00
1FFC00
07F800
008000
ENDCHAR
STARTCHAR 01A0
ENCODING 416
SWIDTH 488 0
DWIDTH 19 0
BBX 18 29 1 -1
BITMAP
0003C0
0003C0
0003C0
00C3C0
0FFBC0
1FFFC0
3FFF80
3FFF00
7C1F00
7C0F80
780F80
F80F80
F80F80
F80F80
F80F80
F80780
F80780
F80F80
F80F80
F80F80
F80F80
780F80
7C0F80
7E1F00
3FFF00
3FFE00
1FFC00
07F800
008000
ENDCHAR
STARTCHAR 01A1
ENCODING 417
SWIDTH 488 0
DWIDTH 19 0
BBX 18 23 1 -1
BITMAP
0003C0
0003C0
0003C0
01E3C0
0FFFC0
1FFF80
3FFF80
7F7F00
7C1F80
7C0F80
F80F80
F80F80
F80F80
F80F80
F80F80
F80F80
7C0F80
7C1F00
3FFF00
3FFE00
1FFC00
07F800
008000
ENDCHAR
STARTCHAR 01A2
ENCODING 418
SWIDTH 488 0
DWIDTH 19 0
BBX 17 26 1 -1
BITMAP
0E1C00
3FFF00
3FFF80
7FFF80
7FFF80
71E780
F1E380
F1E380
F1E380
F1E380
F1E380
F1E380
F1E380
F1E380
F1E380
F1E380
F1E380
F1E380
F1E380
71E380
79E380
7FC380
7FC380
3FC380
1F8380
040000
ENDCHAR
STARTCHAR 01A3
ENCODING 419
SWIDTH 488 0
DWIDTH 19 0
BBX 18 25 1 -6
BITMAP
0F1800
3FFF00
7FFF80
7FFF80
79E780
F1E3C0
F0F3C0
F0F3C0
F0F3C0
F0F3C0
F0F3C0
F0F3C0
F0F3C0
F0E3C0
F1E3C0
7FE3C0
7FE3C0
3FC3C0
1F83C0
0003C0
0003C0
0003C0
0003C0
0003C0
0003C0
ENDCHAR
STARTCHAR 01A4
ENCODING 420
SWIDTH 488 0
DWIDTH 19 0
BBX 18 24 0 0
BITMAP
1FFE00
3FFF00
7FFF80
FFCFC0
F3C7C0
F3C3C0
F3C3C0
F3C3C0
03C3C0
03C3C0
03C3C0
03CFC0
03FF80
03FF80
03FF00
03F800
03C000
03C000
03C000
03C000
03C000
03C000
03C000
03C000
ENDCHAR
STARTCHAR 01A5
ENCODING 421
SWIDTH 488 0
DWIDTH 19 0
BBX 16 33 2 -6
BITMAP
0F80
3F80
7F80
7F80
7C00
F800
F800
F800
FFC0
FFF0
FFFC
FFFC
FCFE
F83F
F81F
F81F
F81F
F81F
F81F
F81F
F81F
F81F
F83F
FFFE
FFFE
FFFC
FFF8
F800
F800
F800
F800
F800
F800
ENDCHAR
STARTCHAR 01A6
ENCODING 422
SWIDTH 488 0
DWIDTH 19 0
BBX 18 31 2 -4
BITMAP
F80000
F80000
F80000
FFE000
FFF800
FFFC00
FFFE00
F87E00
F83E00
F83E00
F81E00
F83E00
F83E00
F87E00
FFFE00
FFFC00
FFF800
FFF000
F9F000
F8F800
F8FC00
F87C00
F83E00
F83E00
F81F00
F81F00
F81F00
000F80
000F80
0007C0
0007C0
ENDCHAR
STARTCHAR 01A7
ENCODING 423
SWIDTH 488 0
DWIDTH 19 0
BBX 16 26 2 -1
BITMAP
0700
3FF0
7FFC
7FFC
3CFE
003E
001E
001F
003F
007E
01FE
0FFC
3FF8
7FF0
7F80
FE00
F800
F800
F000
F800
F806
FFFE
7FFE
3FFF
1FFC
0180
ENDCHAR
STARTCHAR 01A8
ENCODING 424
SWIDTH 488 0
DWIDTH 19 0
BBX 15 19 2 0
BITMAP
0F80
7FF0
7FF8
7FFC
78FE
003E
003E
00FE
07FC
1FF8
7FF0
7F80
FC00
F800
F806
FFFE
7FFE
3FFE
1FFC
ENDCHAR
STARTCHAR 01A9
ENCODING 425
SWIDTH 488 0
DWIDTH 19 0
BBX 17 24 1 0
BITMAP
7FFF80
7FFF80
7FFF80
7FFF80
3E0000
1F0000
0F8000
07C000
07E000
03E000
01F000
00F800
01F800
01F000
03E000
07C000
0F8000
1F0000
3E0000
7C0000
FFFF80
FFFF80
FFFF80
FFFF80
ENDCHAR
STARTCHAR 01AA
ENCODING 426
SWIDTH 488 0
DWIDTH 19 0
BBX 18 34 0 -7
BITMAP
0FC000
3FE000
7FF000
7FF000
F8F800
F0F800
F8F800
79F800
7FF800
3FF800
1FF800
00F800
00F800
00F800
00F800
00F800
00F800
00F800
00F800
00F800
00F800
00F800
00F800
00F800
00F800
00F800
00F800
00F800
00FC00
007F80
007FC0
003FC0
001FC0
000100
ENDCHAR
STARTCHAR 01AB
ENCODING 427
SWIDTH 488 0
DWIDTH 19 0
BBX 18 31 1 -7
BITMAP
008000
0F8000
0F8000
0F8000
0F8000
0F8000
FFFF80
FFFF80
FFFF80
FFFF80
0F8000
0F8000
0F8000
0F8000
0F8000
0F8000
0F8000
0F8000
0F8000
07C000
07FF80
07FF80
03FF80
01FFC0
0003C0
0003C0
000780
007F80
00FF80
00FF00
001000
ENDCHAR
STARTCHAR 01AC
ENCODING 428
SWIDTH 488 0
DWIDTH 19 0
BBX 18 24 0 0
BITMAP
0FFFC0
3FFFC0
7FFFC0
7FFFC0
F8F800
F0F800
70F800
78F800
00F800
00F800
00F800
00F800
00F800
00F800
00F800
00F800
00F800
00F800
00F800
00F800
00F800
00F800
00F800
00F800
ENDCHAR
STARTCHAR 01AD
ENCODING 429
SWIDTH 488 0
DWIDTH 19 0
BBX 18 27 1 0
BITMAP
007F00
01FF80
03FF80
07FF80
07FB80
07C000
0F8000
0F8000
0F8000
FFFF80
FFFF80
FFFF80
FFFF80
0F8000
0F8000
0F8000
0F8000
0F8000
0F8000
0F8000
0F8000
0F8000
07C080
07FF80
07FF80
03FFC0
01FF80
ENDCHAR
STARTCHAR 01AE
ENCODING 430
SWIDTH 488 0
DWIDTH 19 0
BBX 17 31 1 -7
BITMAP
FFFF80
FFFF80
FFFF80
FFFF80
03E000
03E000
03E000
03E000
03E000
03E000
03E000
03E000
03E000
03E000
03E000
03E000
03E000
03E000
03E000
03E000
03E000
03E000
03E000
03E000
03E000
03F000
01FE00
01FE00
00FE00
007E00
000800
ENDCHAR
STARTCHAR 01AF
ENCODING 431
SWIDTH 488 0
DWIDTH 19 0
BBX 18 29 2 -1
BITMAP
0003C0
0003C0
0003C0
0007C0
F07F80
F07F80
F07C00
F07C00
F07C00
F07C00
F07C00
F07C00
F07C00
F07C00
F07C00
F07C00
F07C00
F07C00
F07C00
F07C00
F07C00
F07C00
F07C00
F87800
FDF800
7FF800
7FF000
3FE000
020000
ENDCHAR
STARTCHAR 01B0
ENCODING 432
SWIDTH 488 0
DWIDTH 19 0
BBX 17 22 2 0
BITMAP
000780
000780
000780
000F80
F0FF00
F0FE00
F0F800
F0F800
F0F800
F0F800
F0F800
F0F800
F0F800
F0F800
F0F800
F0F800
F0F800
F8F800
FCF800
7FF800
7FF800
3FF800
ENDCHAR
STARTCHAR 01B1
ENCODING 433
SWIDTH 488 0
DWIDTH 19 0
BBX 19 25 0 -1
BITMAP
FF9FE0
FF9FE0
FF9FE0
FF9FE0
1F0F00
3E0F80
3E0780
3C07C0
7C03C0
7C03C0
7803E0
7803E0
7803E0
F803E0
7803E0
7C03E0
7C03E0
7C07C0
7E07C0
3E0FC0
3FFF80
1FFF00
0FFE00
07FC00
004000
ENDCHAR
STARTCHAR 01B2
ENCODING 434
SWIDTH 488 0
DWIDTH 19 0
BBX 16 25 2 -1
BITMAP
F1F8
F1FC
F1FE
F1FE
F03F
F01F
F01F
F01F
F01F
F01F
F01F
F00F
F00F
F01F
F01F
F01F
F01F
F81F
F81F
F83E
FFFE
7FFC
3FF8
1FF0
0100
ENDCHAR
STARTCHAR 01B3
ENCODING 435
SWIDTH 488 0
DWIDTH 19 0
BBX 19 24 1 0
BITMAP
F807E0
F80FE0
F81FC0
7C1FC0
7C1E00
3C3C00
3E3C00
3E7800
1E7800
1F7800
0FF000
0FF000
07E000
07E000
03E000
03E000
03E000
03E000
03E000
03E000
03E000
03E000
03E000
03E000
ENDCHAR
STARTCHAR 01B4
ENCODING 436
SWIDTH 488 0
DWIDTH 19 0
BBX 19 25 1 -7
BITMAP
000100
F80FE0
F81FC0
7C1FC0
7C1FC0
7C3E00
3C3C00
3E3C00
3E3C00
1E3C00
1F7800
1F7800
0F7800
0FF800
07F000
07F000
07F000
03E000
03E000
03E000
07C000
7FC000
FF8000
FF0000
FE0000
ENDCHAR
STARTCHAR 01B5
ENCODING 437
SWIDTH 488 0
DWIDTH 19 0
BBX 16 24 2 0
BITMAP
FFFE
FFFE
FFFE
FFFE
007C
007C
00F8
01F8
01F0
03E0
FFFE
FFFE
FFFE
FFFE
1F00
1F00
3E00
3E00
7C00
7C00
FFFF
FFFF
FFFF
FFFF
ENDCHAR
STARTCHAR 01B6
ENCODING 438
SWIDTH 488 0
DWIDTH 19 0
BBX 14 18 3 0
BITMAP
FFFC
FFFC
FFFC
FFF8
01F0
03F0
07E0
FFF8
FFF8
FFF8
1F00
3E00
7C00
7C00
FFFC
FFFC
FFFC
FFFC
ENDCHAR
STARTCHAR 01B7
ENCODING 439
SWIDTH 488 0
DWIDTH 19 0
BBX 18 25 1 -1
BITMAP
7FFF80
7FFF80
7FFF80
7FFF80
001F00
003E00
007C00
00F800
01F000
03E000
03F000
03FE00
03FF00
007F80
000F80
0007C0
0007C0
0007C0
000FC0
601F80
7FFF80
FFFF00
FFFE00
3FFC00
018000
ENDCHAR
STARTCHAR 01B8
ENCODING 440
SWIDTH 488 0
DWIDTH 19 0
BBX 17 25 2 -1
BITMAP
FFFF00
FFFF00
FFFF00
FFFF00
7C0000
3E0000
1F0000
0F8000
07C000
03E000
0FF000
3FF000
7FF000
FE0000
F80000
F80000
F00000
F80000
F80000
FC0300
FFFF00
7FFF80
3FFF80
0FFE00
00C000
ENDCHAR
STARTCHAR 01B9
ENCODING 441
SWIDTH 488 0
DWIDTH 19 0
BBX 16 24 2 -6
BITMAP
7FFE
7FFE
7FFE
7FFE
3E00
1F00
0F80
0FC0
07C0
03E0
07F0
1FF0
3FF0
7E00
FC00
F800
F800
F800
F800
FC02
7FFF
7FFF
3FFF
0FFE
ENDCHAR
STARTCHAR 01BA
ENCODING 442
SWIDTH 488 0
DWIDTH 19 0
BBX 15 24 2 -7
BITMAP
FFFE
FFFE
FFFE
FFFE
00FC
01F8
03F0
07C0
0FE0
0FFC
0FFE
003E
001E
001E
001E
007E
07FE
3FFC
7FF0
FF80
FC00
F000
F000
F000
ENDCHAR
STARTCHAR 01BB
ENCODING 443
SWIDTH 488 0
DWIDTH 19 0
BBX 17 25 1 0
BITMAP
018000
1FF800
7FFC00
FFFE00
7FFF00
303F00
201F00
001F00
001F00
003F00
003E00
007C00
3FFF80
3FFF80
3FFF80
3FFF80
0FC000
1F8000
3F0000
3E0000
7C0000
7FFF80
7FFF80
7FFF80
7FFF80
ENDCHAR
STARTCHAR 01BC
ENCODING 444
SWIDTH 488 0
DWIDTH 19 0
BBX 17 25 1 -1
BITMAP
FFFF80
FFFF80
FFFF80
FFFF80
1E0000
1E0000
1E0000
1E0000
1E0000
1FE000
1FFC00
1FFE00
1FFF00
003F00
000F80
000F80
000F80
000F80
000F80
201F80
3FFF00
7FFF00
7FFE00
3FF800
010000
ENDCHAR
STARTCHAR 01BD
ENCODING 445
SWIDTH 488 0
DWIDTH 19 0
BBX 17 19 1 -1
BITMAP
FFFF00
FFFF00
FFFF00
FFFF00
1E0000
1E0000
1FC000
1FFC00
3FFE00
3FFF00
001F00
000F80
000F80
001F80
3FFF00
3FFF00
7FFE00
7FF800
018000
ENDCHAR
STARTCHAR 01BE
ENCODING 446
SWIDTH 488 0
DWIDTH 19 0
BBX 16 25 2 -1
BITMAP
0100
1F00
1F00
1F00
1F00
1F00
FFFE
FFFE
FFFE
FFFE
1F00
1F00
1F80
0FE0
0FF8
07FE
01FF
003F
001F
300F
3FFF
3FFF
7FFE
1FF8
0100
ENDCHAR
STARTCHAR 01BF
ENCODING 447
SWIDTH 488 0
DWIDTH 19 0
BBX 16 25 2 -6
BITMAP
03C0
7FF8
FFFC
FFFE
FCFE
F83F
F81F
F81F
F81F
F81F
F81F
F81F
F83F
F83E
F8FE
F9FC
FFF8
FFF0
FFC0
FF00
FC00
F800
F800
F800
F800
ENDCHAR
STARTCHAR 01C0
ENCODING 448
SWIDTH 488 0
DWIDTH 19 0
BBX 5 33 7 -6
BITMAP
F8
F8
F8
F8
F8
F8
F8
F8
F8
F8
F8
F8
F8
F8
F8
F8
F8
F8
F8
F8
F8
F8
F8
F8
F8
F8
F8
F8
F8
F8
F8
F8
F8
ENDCHAR
STARTCHAR 01C1
ENCODING 449
SWIDTH 488 0
DWIDTH 19 0
BBX 12 33 4 -6
BITMAP
F1F0
F1F0
F1F0
F1F0
F1F0
F1F0
F1F0
F1F0
F1F0
F1F0
F1F0
F1F0
F1F0
F1F0
F1F0
F1F0
F1F0
F1F0
F1F0
F1F0
F1F0
F1F0
F1F0
F1F0
F1F0
F1F0
F1F0
F1F0
F1F0
F1F0
F1F0
F1F0
F1F0
ENDCHAR
STARTCHAR 01C2
ENCODING 450
SWIDTH 488 0
DWIDTH 19 0
BBX 18 33 1 -6
BITMAP
03E000
03E000
03E000
03E000
03E000
03E000
03E000
03E000
03E000
03E000
03E000
FFFFC0
FFFFC0
FFFFC0
FFFFC0
03E000
03E000
03E000
FFFFC0
FFFFC0
FFFFC0
FFFFC0
03E000
03E000
03E000
03E000
03E000
03E000
03E000
03E000
03E000
03E000
03E000
ENDCHAR
STARTCHAR 01C3
ENCODING 451
SWIDTH 488 0
DWIDTH 19 0
BBX 7 24 6 0
BITMAP
7C
7C
7C
7C
7C
7C
7C
7C
7C
7C
7C
7C
7C
7C
3C
00
00
00
38
7C
7E
FE
7E
7C
ENDCHAR
STARTCHAR 01C4
ENCODING 452
SWIDTH 488 0
DWIDTH 19 0
BBX 19 31 1 1
BITMAP
0038E0
003DE0
001FC0
000780
000200
000000
000000
FE1FC0
FF1FC0
FF1FC0
E79FC0
E383C0
E38380
E3C380
E3C380
E3C780
E3C700
E1C700
E1C700
E1CF00
E3CE00
E3CE00
E3CE00
E3DE00
E3DC00
E39C00
E79C00
EFBFC0
FF3FC0
FF3FC0
FC3FC0
ENDCHAR
STARTCHAR 01C5
ENCODING 453
SWIDTH 488 0
DWIDTH 19 0
BBX 19 26 1 0
BITMAP
001040
0038E0
FE1FC0
FF0F80
FF0700
E78200
E38000
E38000
E3DFC0
E3DFC0
E3DFC0
E3C3C0
E1C380
E1C380
E1C780
E3C700
E3C700
E3CF00
E3CE00
E3CE00
E39E00
E79C00
EF9FC0
FF1FC0
FF1FC0
FC1FC0
ENDCHAR
STARTCHAR 01C6
ENCODING 454
SWIDTH 488 0
DWIDTH 19 0
BBX 20 27 0 -1
BITMAP
00C000
01C820
01DC70
01CFE0
01C7C0
01C380
01C100
01C000
0DC000
3FCFE0
3FCFE0
7FCFE0
79C1E0
71C1C0
71C1C0
F1C3C0
F1C380
F1C380
F1C780
F1C700
F1C700
71CF00
71CE00
79CFE0
3FCFE0
3FCFE0
1FCFE0
ENDCHAR
STARTCHAR 01C7
ENCODING 455
SWIDTH 488 0
DWIDTH 19 0
BBX 18 24 1 -1
BITMAP
E003C0
E003C0
E003C0
E003C0
E003C0
E003C0
E003C0
E003C0
E003C0
E003C0
E003C0
E003C0
E003C0
E003C0
E003C0
E003C0
E003C0
E003C0
E003C0
E003C0
E00780
FF9F80
FF9F80
FF9E00
ENDCHAR
STARTCHAR 01C8
ENCODING 456
SWIDTH 488 0
DWIDTH 19 0
BBX 17 33 2 -7
BITMAP
000600
000F00
E00F80
E00F80
E00F00
E00000
E00000
E00000
E00700
E00700
E00700
E00700
E00700
E00700
E00700
E00700
E00700
E00700
E00700
E00700
E00700
E00700
E00700
FFC700
FFC700
FFC700
000700
000F00
000F00
00FE00
01FE00
01FC00
006000
ENDCHAR
STARTCHAR 01C9
ENCODING 457
SWIDTH 488 0
DWIDTH 19 0
BBX 16 34 2 -7
BITMAP
7000
F00E
F01F
F01F
F01F
F01F
F004
F000
F000
F00E
F00E
F00E
F00E
F00E
F00E
F00E
F00E
F00E
F00E
F00E
F00E
F00E
F00E
F80E
7F0E
3F0E
1F0E
000E
000E
001E
01FE
01FC
03F8
00C0
ENDCHAR
STARTCHAR 01CA
ENCODING 458
SWIDTH 488 0
DWIDTH 19 0
BBX 18 25 1 -1
BITMAP
E3C3C0
E3C3C0
E3C3C0
F3C3C0
F3C3C0
F3C3C0
F3C3C0
FBC3C0
FBC3C0
FBC3C0
FBC3C0
EFC3C0
EFC3C0
EFC3C0
EFC3C0
E7C3C0
E7C3C0
E7C3C0
E7C3C0
E3C3C0
E3C780
E3DF80
E3DF80
E1DF00
001000
ENDCHAR
STARTCHAR 01CB
ENCODING 459
SWIDTH 488 0
DWIDTH 19 0
BBX 17 33 1 -7
BITMAP
000700
000F80
E3CF80
E3CF80
E3CF80
F3C200
F3C000
F3C000
F3C700
FBC700
FBC700
FBC700
FBC700
EFC700
EFC700
EFC700
EFC700
E7C700
E7C700
E7C700
E7C700
E3C700
E3C700
E3C700
E3C700
E1C700
000700
000700
000F00
00FF00
00FE00
01FC00
006000
ENDCHAR
STARTCHAR 01CC
ENCODING 460
SWIDTH 488 0
DWIDTH 19 0
BBX 18 33 1 -7
BITMAP
000300
000780
0007C0
0007C0
000780
000000
000000
0E0000
FF8380
FFC380
FFC380
E1E380
E1E380
E0E380
E0E380
E0E380
E0E380
E0E380
E0E380
E0E380
E0E380
E0E380
E0E380
E0E380
E0E380
E0E380
000380
000780
000780
007F00
00FF00
00FE00
003000
ENDCHAR
STARTCHAR 01CD
ENCODING 461
SWIDTH 488 0
DWIDTH 19 0
BBX 19 32 0 0
BITMAP
020C00
079E00
07FE00
03F800
01F000
00E000
004000
000000
01F800
01F800
03F800
03FC00
03FC00
07BC00
07BC00
07BE00
079E00
0F1E00
0F1F00
0F1F00
1F0F00
1F0F00
1FFF80
1FFF80
3FFF80
3FFFC0
3C07C0
7C07C0
7C07C0
7C07E0
7C03E0
F803E0
ENDCHAR
STARTCHAR 01CE
ENCODING 462
SWIDTH 488 0
DWIDTH 19 0
BBX 15 27 2 0
BITMAP
0810
1C70
3EF8
0FF0
07E0
03C0
0180
0000
0FC0
7FF8
3FFC
3FFC
30FE
003E
003E
001E
1FFE
7FFE
FFFE
FC1E
F81E
F01E
F81E
FE3E
FFFE
7FFE
3FFE
ENDCHAR
STARTCHAR 01CF
ENCODING 463
SWIDTH 488 0
DWIDTH 19 0
BBX 15 32 2 0
BITMAP
0830
1E78
1FF8
0FE0
07C0
0380
0100
0000
FFFE
FFFE
FFFE
FFFE
07C0
07C0
07C0
07C0
07C0
07C0
07C0
07C0
07C0
07C0
07C0
07C0
07C0
07C0
07C0
07C0
FFFE
FFFE
FFFE
FFFE
ENDCHAR
STARTCHAR 01D0
ENCODING 464
SWIDTH 488 0
DWIDTH 19 0
BBX 17 27 1 0
BITMAP
081000
1C3800
1FF800
0FF000
07E000
03C000
018000
000000
000000
FFC000
FFC000
FFC000
FFC000
07C000
07C000
07C000
07C000
07C000
07C000
07C000
07C000
03C000
03E080
03FF80
03FF80
01FF80
00FF80
ENDCHAR
STARTCHAR 01D1
ENCODING 465
SWIDTH 488 0
DWIDTH 19 0
BBX 17 33 1 -1
BITMAP
041800
0F3C00
0FFC00
07F000
03E000
01C000
008000
00C000
0FF800
1FFC00
3FFE00
3FFF00
7C1F00
7C0F80
780F80
F80F80
F80F80
F80F80
F80F80
F80780
F80780
F80F80
F80F80
F80F80
F80F80
780F80
7C0F80
7E1F00
3FFF00
3FFE00
1FFC00
07F800
008000
ENDCHAR
STARTCHAR 01D2
ENCODING 466
SWIDTH 488 0
DWIDTH 19 0
BBX 17 28 1 -1
BITMAP
040800
0E3800
1F7C00
07F800
03F000
01E000
00C000
000000
01E000
0FF800
1FFE00
3FFE00
7F7F00
7C1F80
7C0F80
F80F80
F80F80
F80F80
F80F80
F80F80
F80F80
7C0F80
7C1F00
3FFF00
3FFE00
1FFC00
07F800
008000
ENDCHAR
STARTCHAR 01D3
ENCODING 467
SWIDTH 488 0
DWIDTH 19 0
BBX 16 33 2 -1
BITMAP
0830
1E78
1FF8
0FE0
07C0
0380
0100
0000
F01F
F01F
F01F
F01F
F01F
F01F
F01F
F01F
F01F
F01F
F01F
F01F
F01F
F01F
F01F
F01F
F01F
F01F
F81F
F83E
FFFE
7FFE
3FFC
1FF0
0100
ENDCHAR
STARTCHAR 01D4
ENCODING 468
SWIDTH 488 0
DWIDTH 19 0
BBX 15 27 2 0
BITMAP
0810
1C70
3EF8
0FF0
07E0
03C0
0180
0000
0000
F83E
F83E
F83E
F83E
F83E
F83E
F83E
F83E
F83E
F83E
F83E
F83E
F83E
7C3E
7FFE
7FFE
3FFE
1FFE
ENDCHAR
STARTCHAR 01D5
ENCODING 469
SWIDTH 488 0
DWIDTH 19 0
BBX 16 33 2 -1
BITMAP
1FF0
1FF0
0000
0800
3C78
3E78
3E78
1C30
0000
F01F
F01F
F01F
F01F
F01F
F01F
F01F
F01F
F01F
F01F
F01F
F01F
F01F
F01F
F01F
F01F
F01F
F81F
F83E
FFFE
7FFE
3FFC
1FF0
0100
ENDCHAR
STARTCHAR 01D6
ENCODING 470
SWIDTH 488 0
DWIDTH 19 0
BBX 15 28 2 0
BITMAP
1FF0
1FF0
0000
1830
3C78
3E78
3C78
0830
0000
0000
F83E
F83E
F83E
F83E
F83E
F83E
F83E
F83E
F83E
F83E
F83E
F83E
F83E
7C3E
7FFE
7FFE
3FFE
1FFE
ENDCHAR
STARTCHAR 01D7
ENCODING 471
SWIDTH 488 0
DWIDTH 19 0
BBX 16 33 2 -1
BITMAP
0080
01C0
03C0
7BBC
793C
783C
381C
0000
0000
F01F
F01F
F01F
F01F
F01F
F01F
F01F
F01F
F01F
F01F
F01F
F01F
F01F
F01F
F01F
F01F
F01F
F81F
F83E
FFFE
7FFE
3FFC
1FF0
0100
ENDCHAR
STARTCHAR 01D8
ENCODING 472
SWIDTH 488 0
DWIDTH 19 0
BBX 15 30 2 1
BITMAP
0060
00F0
00F0
01E0
03C0
3398
793C
783E
783C
0000
0000
0000
F83E
F83E
F83E
F83E
F83E
F83E
F83E
F83E
F83E
F83E
F83E
F83E
F83E
7C3E
7FFE
7FFE
3FFE
1FFE
ENDCHAR
STARTCHAR 01D9
ENCODING 473
SWIDTH 488 0
DWIDTH 19 0
BBX 16 33 2 -1
BITMAP
06C0
0FE0
07C0
79BC
783C
783C
381C
0000
0000
F01F
F01F
F01F
F01F
F01F
F01F
F01F
F01F
F01F
F01F
F01F
F01F
F01F
F01F
F01F
F01F
F01F
F81F
F83E
FFFE
7FFE
3FFC
1FF0
0100
ENDCHAR
STARTCHAR 01DA
ENCODING 474
SWIDTH 488 0
DWIDTH 19 0
BBX 15 30 2 0
BITMAP
0800
1C70
1EF0
0FE0
07C0
3398
783C
783E
783C
0000
0000
0000
F83E
F83E
F83E
F83E
F83E
F83E
F83E
F83E
F83E
F83E
F83E
F83E
F83E
7C3E
7FFE
7FFE
3FFE
1FFE
ENDCHAR
STARTCHAR 01DB
ENCODING 475
SWIDTH 488 0
DWIDTH 19 0
BBX 16 33 2 -1
BITMAP
0300
0780
07C0
7BFC
78BC
783C
381C
0000
0000
F01F
F01F
F01F
F01F
F01F
F01F
F01F
F01F
F01F
F01F
F01F
F01F
F01F
F01F
F01F
F01F
F01F
F81F
F83E
FFFE
7FFE
3FFC
1FF0
0100
ENDCHAR
STARTCHAR 01DC
ENCODING 476
SWIDTH 488 0
DWIDTH 19 0
BBX 15 30 2 1
BITMAP
0C00
1E00
0F00
0780
0780
33DC
793C
783E
783C
0000
0000
0000
F83E
F83E
F83E
F83E
F83E
F83E
F83E
F83E
F83E
F83E
F83E
F83E
F83E
7C3E
7FFE
7FFE
3FFE
1FFE
ENDCHAR
STARTCHAR 01DD
ENCODING 477
SWIDTH 488 0
DWIDTH 19 0
BBX 17 19 1 0
BITMAP
0FC000
7FF800
7FFC00
3FFE00
3CFF00
001F00
000F80
000F80
FFFF80
FFFF80
FFFF80
FFFF80
F80F80
780F00
7C1F00
7FFF00
3FFE00
1FFC00
0FF000
ENDCHAR
STARTCHAR 01DE
ENCODING 478
SWIDTH 488 0
DWIDTH 19 0
BBX 19 32 0 0
BITMAP
07FC00
07FC00
000000
020000
0F1E00
0F9E00
0F9E00
070C00
000000
01F000
01F800
01F800
03F800
03FC00
03FC00
07BC00
07BE00
079E00
0F1E00
0F1F00
0F1F00
1F0F00
1E0F80
1FFF80
3FFF80
3FFF80
3FFFC0
7C07C0
7C07C0
7C07C0
7C03E0
F803E0
ENDCHAR
STARTCHAR 01DF
ENCODING 479
SWIDTH 488 0
DWIDTH 19 0
BBX 15 28 2 0
BITMAP
1FF0
1FF0
0000
1830
3C78
3E78
3C78
0830
0000
0FC0
7FF8
3FFC
3FFC
30FE
003E
003E
001E
1FFE
7FFE
FFFE
FC1E
F81E
F01E
F81E
FE3E
FFFE
7FFE
3FFE
ENDCHAR
STARTCHAR 01E0
ENCODING 480
SWIDTH 488 0
DWIDTH 19 0
BBX 19 32 0 0
BITMAP
07FC00
07FC00
000000
004000
00F000
01F000
00F000
00E000
000000
01F000
01F800
01F800
03F800
03FC00
03FC00
07BC00
07BE00
079E00
0F1E00
0F1F00
0F1F00
1F0F00
1E0F80
1FFF80
3FFF80
3FFF80
3FFFC0
7C07C0
7C07C0
7C07C0
7C03E0
F803E0
ENDCHAR
STARTCHAR 01E1
ENCODING 481
SWIDTH 488 0
DWIDTH 19 0
BBX 15 28 2 0
BITMAP
1FF0
1FF0
0000
0180
03C0
07C0
03C0
0180
0000
0FC0
7FF8
3FFC
3FFC
30FE
003E
003E
001E
1FFE
7FFE
FFFE
FC1E
F81E
F01E
F81E
FE3E
FFFE
7FFE
3FFE
ENDCHAR
STARTCHAR 01E2
ENCODING 482
SWIDTH 488 0
DWIDTH 19 0
BBX 19 31 0 0
BITMAP
01FFC0
01FFC0
01FFC0
01FFC0
000000
000000
000000
01FFE0
01FFE0
01FFE0
03FFE0
03FC00
03BC00
07BC00
07BC00
07BC00
0F3FC0
0F3FC0
0F3FC0
1F3FC0
1E3C00
1FFC00
1FFC00
3FFC00
3FFC00
3C3C00
7C3C00
7C3FE0
7C3FE0
7C3FE0
F83FE0
ENDCHAR
STARTCHAR 01E3
ENCODING 483
SWIDTH 488 0
DWIDTH 19 0
BBX 18 25 1 0
BITMAP
0FFE00
0FFE00
0FFE00
000000
000000
000000
1E0C00
7FBF00
3FFF80
3FFF80
23F380
01E3C0
01E3C0
01E3C0
3FFFC0
7FFFC0
FFFFC0
F1E000
F1E000
F1E000
F1F000
FBFF80
7FFF80
7FFF80
3F9F80
ENDCHAR
STARTCHAR 01E4
ENCODING 484
SWIDTH 488 0
DWIDTH 19 0
BBX 18 26 1 -1
BITMAP
006000
07FE00
0FFF00
1FFF00
3FFE00
3E0200
7C0000
7C0000
780000
F80000
F80000
F80000
F81F00
F81F00
F8FFC0
F8FFC0
F8FFC0
F8FFC0
7C1F00
7C1F00
7E1F00
3FFF00
1FFF00
0FFF00
07FF00
004000
ENDCHAR
STARTCHAR 01E5
ENCODING 485
SWIDTH 488 0
DWIDTH 19 0
BBX 17 26 1 -7
BITMAP
01E000
0FFE00
1FFE00
3FFE00
7E1E00
7C1E00
7C1E00
F8FF80
F8FF80
F8FF80
F81E00
F81E00
7C1E00
7E3E00
7FFE00
3FFE00
1FFE00
079E00
003E00
003E00
403E00
7FFC00
7FFC00
7FF800
7FF000
030000
ENDCHAR
STARTCHAR 01E6
ENCODING 486
SWIDTH 488 0
DWIDTH 19 0
BBX 17 33 1 -1
BITMAP
030400
079E00
07FE00
03FC00
00F800
007000
000000
007000
03FF00
0FFF80
1FFF80
3FFF00
3F0100
7E0000
7C0000
7C0000
F80000
F80000
F80000
F80F80
F80F80
F80F80
F80F80
F80F80
F80F80
7C0F80
7C0F80
3E0F80
3FFF80
1FFF80
0FFF80
07FF80
006000
ENDCHAR
STARTCHAR 01E7
ENCODING 487
SWIDTH 488 0
DWIDTH 19 0
BBX 16 33 1 -7
BITMAP
0408
0E1C
0FFC
07F8
03F0
01E0
00C0
0000
01F0
0FFF
1FFF
3FFF
7F1F
7C1F
7C1F
F81F
F81F
F81F
F81F
F81F
7C1F
7E1F
7FFF
3FFF
1FFF
07DF
001F
001F
403F
7FFE
7FFE
7FFC
7FF0
ENDCHAR
STARTCHAR 01E8
ENCODING 488
SWIDTH 488 0
DWIDTH 19 0
BBX 17 32 2 0
BITMAP
083000
1E7800
1FF800
0FE000
07C000
038000
010000
000000
F81F00
F83E00
F87E00
F87C00
F8FC00
F8F800
F9F000
FBF000
FBE000
FFC000
FF8000
FF8000
FFC000
FFE000
FBF000
F9F800
F8F800
F8FC00
F87E00
F83E00
F83F00
F81F00
F81F00
F81F80
ENDCHAR
STARTCHAR 01E9
ENCODING 489
SWIDTH 488 0
DWIDTH 19 0
BBX 17 32 2 0
BITMAP
608000
FBC000
7FC000
3F0000
0E0000
040000
000000
080000
F80000
F80000
F80000
F80000
F80000
F80000
F83F00
F87E00
F87C00
F8F800
F9F000
FBE000
FBC000
FF8000
FFC000
FFE000
FBF000
F9F800
F8F800
F87C00
F87E00
F83E00
F81F00
F81F80
ENDCHAR
STARTCHAR 01EA
ENCODING 490
SWIDTH 488 0
DWIDTH 19 0
BBX 17 32 1 -7
BITMAP
00C000
0FF800
1FFC00
3FFE00
3FFF00
7C1F00
7C0F80
780F80
F80F80
F80F80
F80F80
F80F80
F80780
F80780
F80F80
F80F80
F80F80
F80F80
780F80
7C0F00
7E1F00
3FFF00
3FFE00
1FFC00
07F800
01E000
03C000
03C000
07C000
07F000
03F000
00C000
ENDCHAR
STARTCHAR 01EB
ENCODING 491
SWIDTH 488 0
DWIDTH 19 0
BBX 17 26 1 -7
BITMAP
01E000
0FF800
1FFE00
3FFE00
7F7F00
7C1F80
7C0F80
F80F80
F80F80
F80F80
F80F80
F80F80
F80F80
7C0F80
7C1F00
3FFF00
3FFE00
1FFC00
07F800
00F000
01E000
03C000
03C000
03F800
03F800
00E000
ENDCHAR
STARTCHAR 01EC
ENCODING 492
SWIDTH 488 0
DWIDTH 19 0
BBX 17 38 1 -7
BITMAP
1FFC00
1FFC00
1FFC00
1FFC00
000000
000000
00C000
0FF800
1FFC00
3FFE00
3FFF00
7C1F00
7C0F80
780F80
F80F80
F80F80
F80F80
F80F80
F80780
F80780
F80F80
F80F80
F80F80
F80F80
780F80
7C0F00
7E1F00
3FFF00
3FFE00
1FFC00
07F800
01E000
03C000
03C000
07C000
07F000
03F000
00C000
ENDCHAR
STARTCHAR 01ED
ENCODING 493
SWIDTH 488 0
DWIDTH 19 0
BBX 17 32 1 -7
BITMAP
1FFC00
1FFC00
1FFC00
000000
000000
000000
01E000
0FF800
1FFE00
3FFE00
7F7F00
7C1F80
7C0F80
F80F80
F80F80
F80F80
F80F80
F80F80
F80F80
7C0F80
7C1F00
3FFF00
3FFE00
1FFC00
07F800
00F000
01E000
03C000
03C000
03F800
03F800
00E000
ENDCHAR
STARTCHAR 01EE
ENCODING 494
SWIDTH 488 0
DWIDTH 19 0
BBX 18 33 1 -1
BITMAP
041800
0F3C00
0FFC00
07F000
03E000
01C000
008000
000000
7FFF80
7FFF80
7FFF80
7FFF80
001F00
003E00
007C00
00F800
01F000
03E000
03F000
03FE00
03FF00
007F80
000F80
0007C0
0007C0
0007C0
000FC0
601F80
7FFF80
FFFF00
FFFE00
3FFC00
018000
ENDCHAR
STARTCHAR 01EF
ENCODING 495
SWIDTH 488 0
DWIDTH 19 0
BBX 16 33 1 -6
BITMAP
0408
0E38
1F7C
07F8
03F0
01E0
00C0
0000
0000
7FFF
7FFF
7FFF
7FFE
007C
007C
00F8
01F0
03E0
07C0
07F0
07FC
07FE
003E
001F
001F
001F
001F
001F
403F
7FFE
7FFE
FFFC
7FF0
ENDCHAR
STARTCHAR 01F0
ENCODING 496
SWIDTH 488 0
DWIDTH 19 0
BBX 14 34 2 -7
BITMAP
0810
1C70
3EF8
0FF0
07E0
03C0
0180
0000
0000
7FFC
7FFC
7FFC
7FFC
007C
007C
007C
007C
007C
007C
007C
007C
007C
007C
007C
007C
007C
007C
0078
60F8
7FF8
FFF8
FFF0
7FE0
0200
ENDCHAR
STARTCHAR 01F1
ENCODING 497
SWIDTH 488 0
DWIDTH 19 0
BBX 18 24 1 0
BITMAP
FE1FC0
FF1FC0
FF1FC0
E79FC0
E383C0
E38380
E3C380
E3C380
E3C780
E3C700
E1C700
E1C700
E1CF00
E3CE00
E3CE00
E3CE00
E3DE00
E3DC00
E39C00
E79C00
EFBFC0
FF3FC0
FF3FC0
FC3FC0
ENDCHAR
STARTCHAR 01F2
ENCODING 498
SWIDTH 488 0
DWIDTH 19 0
BBX 18 24 1 0
BITMAP
FE0000
FF0000
FF0000
E78000
E38000
E38000
E3DFC0
E3DFC0
E3DFC0
E3C3C0
E1C380
E1C380
E1C780
E3C700
E3C700
E3CF00
E3CE00
E3CE00
E39E00
E79C00
EF9FC0
FF1FC0
FF1FC0
FC1FC0
ENDCHAR
STARTCHAR 01F3
ENCODING 499
SWIDTH 488 0
DWIDTH 19 0
BBX 19 27 0 -1
BITMAP
00C000
01C000
01C000
01C000
01C000
01C000
01C000
01C000
0DC000
3FCFE0
3FCFE0
7FCFE0
79C1E0
71C1C0
71C1C0
F1C3C0
F1C380
F1C380
F1C780
F1C700
F1C700
71CF00
71CE00
79CFE0
3FCFE0
3FCFE0
1FCFE0
ENDCHAR
STARTCHAR 01F4
ENCODING 500
SWIDTH 488 0
DWIDTH 19 0
BBX 17 33 1 -1
BITMAP
003000
007800
01F800
03FC00
03E000
038000
000000
007000
03FF00
0FFF80
1FFF80
3FFF00
3F0100
7E0000
7C0000
7C0000
F80000
F80000
F80000
F80F80
F80F80
F80F80
F80F80
F80F80
F80F80
7C0F80
7C0F80
3E0F80
3FFF80
1FFF80
0FFF80
07FF80
006000
ENDCHAR
STARTCHAR 01F5
ENCODING 501
SWIDTH 488 0
DWIDTH 19 0
BBX 16 32 1 -6
BITMAP
0070
00F8
03F8
07F0
03C0
0300
0000
01F0
0FFF
1FFF
3FFF
7F1F
7C1F
7C1F
F81F
F81F
F81F
F81F
F81F
7C1F
7E1F
7FFF
3FFF
1FFF
07DF
001F
001F
403F
7FFE
7FFE
7FFC
7FF0
ENDCHAR
STARTCHAR 01F6
ENCODING 502
SWIDTH 488 0
DWIDTH 19 0
BBX 18 25 1 -1
BITMAP
F1E000
F1E000
F1E000
F1E000
F1E000
F1E3C0
F1E3C0
F1E3C0
F1E3C0
FFE3C0
FFE3C0
FFE3C0
FFE3C0
F1E3C0
F1E3C0
F1E3C0
F1E3C0
F1E3C0
F1E3C0
F1E380
F1E780
F0FF80
F0FF00
F07F00
000800
ENDCHAR
STARTCHAR 01F7
ENCODING 503
SWIDTH 488 0
DWIDTH 19 0
BBX 16 30 2 -6
BITMAP
3FF0
FFFC
FFFE
FFFE
F83F
F81F
F81F
F80F
F80F
F80F
F81F
F81F
F81F
F81F
F83E
F83E
F87C
F8FC
F9F8
FFF0
FFE0
FFC0
FF00
FC00
F800
F800
F800
F800
F800
F800
ENDCHAR
STARTCHAR 01F8
ENCODING 504
SWIDTH 488 0
DWIDTH 19 0
BBX 16 32 2 0
BITMAP
0600
0F00
0FC0
1FE0
03E0
00E0
0000
0000
F01F
F81F
F81F
FC1F
FC1F
FE1F
FE1F
FF1F
FF1F
F79F
F79F
F3DF
F3DF
F1FF
F1FF
F0FF
F0FF
F07F
F07F
F03F
F03F
F01F
F01F
F00F
ENDCHAR
STARTCHAR 01F9
ENCODING 505
SWIDTH 488 0
DWIDTH 19 0
BBX 15 26 2 1
BITMAP
0E00
1F00
1FC0
0FE0
03C0
00C0
0000
07C0
FFF0
FFF8
FFFC
FFFE
F83E
F83E
F83E
F83E
F83E
F83E
F83E
F83E
F83E
F83E
F83E
F83E
F83E
F83E
ENDCHAR
STARTCHAR 01FA
ENCODING 506
SWIDTH 488 0
DWIDTH 19 0
BBX 19 32 0 0
BITMAP
003000
00F800
01F000
01C000
000000
00F000
01F800
039800
031800
03B800
01F800
03F800
03F800
03FC00
07BC00
07BC00
07BE00
079E00
0F1E00
0F1F00
0F1F00
1F0F00
1E0F00
1FFF80
3FFF80
3FFF80
3FFFC0
3C07C0
7C07C0
7C07C0
7C03E0
F803E0
ENDCHAR
STARTCHAR 01FB
ENCODING 507
SWIDTH 488 0
DWIDTH 19 0
BBX 15 32 2 0
BITMAP
00C0
03E0
07C0
0700
0000
03C0
07E0
0E60
0C60
0E60
07E0
0380
0000
0FC0
7FF8
3FFC
3FFC
30FE
003E
003E
001E
1FFE
7FFE
FFFE
FC1E
F81E
F01E
F81E
FE3E
FFFE
7FFE
3FFE
ENDCHAR
STARTCHAR 01FC
ENCODING 508
SWIDTH 488 0
DWIDTH 19 0
BBX 19 32 0 0
BITMAP
000200
000F00
001F80
007F80
007E00
003800
002000
000000
01FFE0
01FFE0
01FFE0
03FFE0
03FC00
03BC00
07BC00
07BC00
07BC00
0F3FC0
0F3FC0
0F3FC0
1F3FC0
1E3C00
1FFC00
1FFC00
3FFC00
3FFC00
3C3C00
7C3C00
7C3FE0
7C3FE0
7C3FE0
F83FE0
ENDCHAR
STARTCHAR 01FD
ENCODING 509
SWIDTH 488 0
DWIDTH 19 0
BBX 18 27 1 0
BITMAP
001000
003800
00F800
01FC00
03F800
03E000
018000
000000
1E0C00
7FBF00
3FFF80
3FFF80
23F380
01E3C0
01E3C0
01E3C0
3FFFC0
7FFFC0
FFFFC0
F1E000
F1E000
F1E000
F1F000
FBFF80
7FFF80
7FFF80
3F9F80
ENDCHAR
STARTCHAR 01FE
ENCODING 510
SWIDTH 488 0
DWIDTH 19 0
BBX 17 33 1 -2
BITMAP
003000
007000
01F800
03F800
07E000
038000
000400
008700
07FF00
1FFF00
3FFE00
3FFF00
7E3F00
7C3F00
787F80
F87F80
F8FF80
F8FF80
F9EF80
F9E780
FBC780
FBCF80
FF8F80
FF8F80
FF0F80
7F0F80
7E0F80
7E1F00
3FFF00
3FFE00
3FFC00
7FF800
30C000
ENDCHAR
STARTCHAR 01FF
ENCODING 511
SWIDTH 488 0
DWIDTH 19 0
BBX 17 27 1 0
BITMAP
007000
00F800
03F800
07F000
03C000
030000
000000
01E300
0FFF80
1FFF00
3FFE00
7FFF00
7C3F00
7C7F80
F87F80
F8FF80
F9EF80
FBCF80
FBCF80
FF8F80
7F0F80
7E1F00
7FFF00
3FFE00
7FFC00
7FF800
30C000
ENDCHAR
STARTCHAR 0200
ENCODING 512
SWIDTH 488 0
DWIDTH 19 0
BBX 19 32 0 0
BITMAP
0C1000
1C3800
3E7C00
0F3E00
079E00
038E00
000400
000000
01F800
01F800
03F800
03FC00
03FC00
07BC00
07BC00
07BE00
079E00
0F1E00
0F1F00
0F1F00
1F0F00
1F0F00
1FFF80
1FFF80
3FFF80
3FFFC0
3C07C0
7C07C0
7C07C0
7C07E0
7C03E0
F803E0
ENDCHAR
STARTCHAR 0201
ENCODING 513
SWIDTH 488 0
DWIDTH 19 0
BBX 15 27 2 0
BITMAP
1000
3060
78F0
3CF8
1E78
0F3C
0418
0000
0FC0
7FF8
3FFC
3FFC
30FE
003E
003E
001E
1FFE
7FFE
FFFE
FC1E
F81E
F01E
F81E
FE3E
FFFE
7FFE
3FFE
ENDCHAR
STARTCHAR 0202
ENCODING 514
SWIDTH 488 0
DWIDTH 19 0
BBX 19 32 0 0
BITMAP
006000
03F800
07FC00
0FFE00
0F1E00
0F0E00
000000
000000
01F800
01F800
03F800
03FC00
03FC00
07BC00
07BC00
07BE00
079E00
0F1E00
0F1F00
0F1F00
1F0F00
1F0F00
1FFF80
1FFF80
3FFF80
3FFFC0
3C07C0
7C07C0
7C07C0
7C07E0
7C03E0
F803E0
ENDCHAR
STARTCHAR 0203
ENCODING 515
SWIDTH 488 0
DWIDTH 19 0
BBX 15 26 2 0
BITMAP
07E0
1FF0
1FF8
3C78
3C38
3C38
0000
0FC0
7FF8
3FFC
3FFC
30FE
003E
003E
001E
1FFE
7FFE
FFFE
FC1E
F81E
F01E
F81E
FE3E
FFFE
7FFE
3FFE
ENDCHAR
STARTCHAR 0204
ENCODING 516
SWIDTH 488 0
DWIDTH 19 0
BBX 16 32 2 0
BITMAP
3040
70E0
F9F0
3CF8
1E78
0E38
0010
0000
FFFE
FFFE
FFFE
FFFE
F800
F800
F800
F800
F800
FFFC
FFFC
FFFC
FFFC
F800
F800
F800
F800
F800
F800
F800
FFFF
FFFF
FFFF
FFFF
ENDCHAR
STARTCHAR 0205
ENCODING 517
SWIDTH 488 0
DWIDTH 19 0
BBX 17 27 1 0
BITMAP
080000
183000
3C7800
1E7C00
0F3C00
079E00
020C00
000000
01E000
0FFC00
1FFE00
3FFF00
3F3F00
7C0F80
7C0F80
F80F80
FFFF80
FFFF80
FFFF80
F80000
F80000
7C0000
7E0000
3FFF00
3FFF00
1FFF00
07FF00
ENDCHAR
STARTCHAR 0206
ENCODING 518
SWIDTH 488 0
DWIDTH 19 0
BBX 16 32 2 0
BITMAP
01C0
0FF0
1FF8
1FF8
1C3C
3C3C
0000
0000
FFFE
FFFE
FFFE
FFFE
F800
F800
F800
F800
F800
FFFC
FFFC
FFFC
FFFC
F800
F800
F800
F800
F800
F800
F800
FFFF
FFFF
FFFF
FFFF
ENDCHAR
STARTCHAR 0207
ENCODING 519
SWIDTH 488 0
DWIDTH 19 0
BBX 17 26 1 0
BITMAP
03F000
0FF800
0FFC00
1E3C00
1E1C00
1E1C00
000000
01E000
0FFC00
1FFE00
3FFF00
3F3F00
7C0F80
7C0F80
F80F80
FFFF80
FFFF80
FFFF80
F80000
F80000
7C0000
7E0000
3FFF00
3FFF00
1FFF00
07FF00
ENDCHAR
STARTCHAR 0208
ENCODING 520
SWIDTH 488 0
DWIDTH 19 0
BBX 15 32 2 0
BITMAP
3040
70E0
F9F0
3CF8
1E78
0E38
0010
0000
FFFE
FFFE
FFFE
FFFE
07C0
07C0
07C0
07C0
07C0
07C0
07C0
07C0
07C0
07C0
07C0
07C0
07C0
07C0
07C0
07C0
FFFE
FFFE
FFFE
FFFE
ENDCHAR
STARTCHAR 0209
ENCODING 521
SWIDTH 488 0
DWIDTH 19 0
BBX 17 26 1 1
BITMAP
30E000
79F000
7CF800
3E7800
0E3C00
041800
000000
000000
FFC000
FFC000
FFC000
FFC000
07C000
07C000
07C000
07C000
07C000
07C000
07C000
07C000
03C000
03E080
03FF80
03FF80
01FF80
00FF80
ENDCHAR
STARTCHAR 020A
ENCODING 522
SWIDTH 488 0
DWIDTH 19 0
BBX 15 32 2 0
BITMAP
0180
0FE0
1FF0
3FF8
3C78
3C38
0000
0000
FFFE
FFFE
FFFE
FFFE
07C0
07C0
07C0
07C0
07C0
07C0
07C0
07C0
07C0
07C0
07C0
07C0
07C0
07C0
07C0
07C0
FFFE
FFFE
FFFE
FFFE
ENDCHAR
STARTCHAR 020B
ENCODING 523
SWIDTH 488 0
DWIDTH 19 0
BBX 17 26 1 0
BITMAP
0FC000
1FF000
3FF000
3C7800
387800
387800
000000
000000
FFC000
FFC000
FFC000
FFC000
07C000
07C000
07C000
07C000
07C000
07C000
07C000
07C000
03C000
03E080
03FF80
03FF80
01FF80
00FF80
ENDCHAR
STARTCHAR 020C
ENCODING 524
SWIDTH 488 0
DWIDTH 19 0
BBX 17 33 1 -1
BITMAP
182000
387000
3CF800
1E7C00
0F3C00
071C00
000000
00C000
0FF800
1FFC00
3FFE00
3FFF00
7C1F00
7C0F80
780F80
F80F80
F80F80
F80F80
F80F80
F80780
F80780
F80F80
F80F80
F80F80
F80F80
780F80
7C0F80
7E1F00
3FFF00
3FFE00
1FFC00
07F800
008000
ENDCHAR
STARTCHAR 020D
ENCODING 525
SWIDTH 488 0
DWIDTH 19 0
BBX 17 28 1 -1
BITMAP
002000
187000
3CF800
3E7800
1F3C00
0F1E00
060C00
000000
01E000
0FF800
1FFE00
3FFE00
7F7F00
7C1F80
7C0F80
F80F80
F80F80
F80F80
F80F80
F80F80
F80F80
7C0F80
7C1F00
3FFF00
3FFE00
1FFC00
07F800
008000
ENDCHAR
STARTCHAR 020E
ENCODING 526
SWIDTH 488 0
DWIDTH 19 0
BBX 17 33 1 -1
BITMAP
00C000
07F000
0FF800
1FFC00
1E3C00
1E1C00
000000
00C000
0FF800
1FFC00
3FFE00
3FFF00
7C1F00
7C0F80
780F80
F80F80
F80F80
F80F80
F80F80
F80780
F80780
F80F80
F80F80
F80F80
F80F80
780F80
7C0F80
7E1F00
3FFF00
3FFE00
1FFC00
07F800
008000
ENDCHAR
STARTCHAR 020F
ENCODING 527
SWIDTH 488 0
DWIDTH 19 0
BBX 17 27 1 -1
BITMAP
03F000
0FF800
0FFC00
1E3C00
1E1C00
1E1C00
000000
01E000
0FF800
1FFE00
3FFE00
7F7F00
7C1F80
7C0F80
F80F80
F80F80
F80F80
F80F80
F80F80
F80F80
7C0F80
7C1F00
3FFF00
3FFE00
1FFC00
07F800
008000
ENDCHAR
STARTCHAR 0210
ENCODING 528
SWIDTH 488 0
DWIDTH 19 0
BBX 17 32 2 0
BITMAP
20C000
71C000
FBE000
78F000
3C7800
1C3800
080000
000000
FFE000
FFF800
FFFC00
FFFE00
F87E00
F83E00
F83E00
F81E00
F83E00
F83E00
F87E00
FFFE00
FFFC00
FFF800
FFF000
F8F800
F8F800
F87C00
F87C00
F83E00
F83E00
F81F00
F81F00
F80F80
ENDCHAR
STARTCHAR 0211
ENCODING 529
SWIDTH 488 0
DWIDTH 19 0
BBX 15 27 3 0
BITMAP
2040
70C0
F9E0
78F0
3C78
1E3C
0C10
0000
02E0
3FFE
FFFE
FFFC
FFFC
F800
F800
F800
F800
F800
F800
F800
F800
F800
F800
F800
F800
F800
F800
ENDCHAR
STARTCHAR 0212
ENCODING 530
SWIDTH 488 0
DWIDTH 19 0
BBX 17 32 2 0
BITMAP
038000
1FE000
3FF000
3FF000
387800
787800
000000
000000
FFE000
FFF800
FFFC00
FFFE00
F87E00
F83E00
F83E00
F81E00
F83E00
F83E00
F87E00
FFFE00
FFFC00
FFF800
FFF000
F8F800
F8F800
F87C00
F87C00
F83E00
F83E00
F81F00
F81F00
F80F80
ENDCHAR
STARTCHAR 0213
ENCODING 531
SWIDTH 488 0
DWIDTH 19 0
BBX 15 26 3 0
BITMAP
07E0
1FF0
1FF8
3C78
3C38
3C38
0000
02E0
3FFE
FFFE
FFFC
FFFC
F800
F800
F800
F800
F800
F800
F800
F800
F800
F800
F800
F800
F800
F800
ENDCHAR
STARTCHAR 0214
ENCODING 532
SWIDTH 488 0
DWIDTH 19 0
BBX 16 33 2 -1
BITMAP
3040
70E0
79F0
3CF8
1E78
0E38
0000
0000
F01F
F01F
F01F
F01F
F01F
F01F
F01F
F01F
F01F
F01F
F01F
F01F
F01F
F01F
F01F
F01F
F01F
F01F
F81F
F83E
FFFE
7FFE
3FFC
1FF0
0100
ENDCHAR
STARTCHAR 0215
ENCODING 533
SWIDTH 488 0
DWIDTH 19 0
BBX 15 27 2 0
BITMAP
0040
30E0
79F0
7CF0
3E78
1E3C
0C18
0000
0000
F83E
F83E
F83E
F83E
F83E
F83E
F83E
F83E
F83E
F83E
F83E
F83E
F83E
7C3E
7FFE
7FFE
3FFE
1FFE
ENDCHAR
STARTCHAR 0216
ENCODING 534
SWIDTH 488 0
DWIDTH 19 0
BBX 16 33 2 -1
BITMAP
0180
0FE0
1FF0
3FF8
3C78
3C38
0000
0000
F01F
F01F
F01F
F01F
F01F
F01F
F01F
F01F
F01F
F01F
F01F
F01F
F01F
F01F
F01F
F01F
F01F
F01F
F81F
F83E
FFFE
7FFE
3FFC
1FF0
0100
ENDCHAR
STARTCHAR 0217
ENCODING 535
SWIDTH 488 0
DWIDTH 19 0
BBX 15 26 2 0
BITMAP
07E0
1FF0
1FF8
3C78
3C38
3C38
0000
0000
F83E
F83E
F83E
F83E
F83E
F83E
F83E
F83E
F83E
F83E
F83E
F83E
F83E
7C3E
7FFE
7FFE
3FFE
1FFE
ENDCHAR
STARTCHAR 0218
ENCODING 536
SWIDTH 488 0
DWIDTH 19 0
BBX 16 32 2 -7
BITMAP
01C0
1FFC
3FFE
7FFC
FE7C
F800
F800
F800
F800
FC00
7F80
7FE0
3FF8
0FFC
03FE
007E
003F
001F
001F
001F
403F
FFFE
FFFE
FFFC
7FF0
0300
0000
03C0
07C0
1F80
1F80
0C00
ENDCHAR
STARTCHAR 0219
ENCODING 537
SWIDTH 488 0
DWIDTH 19 0
BBX 15 26 2 -7
BITMAP
03F0
1FFC
3FFC
7FFC
7E3C
7800
7C00
7E00
7FC0
3FF8
0FFC
03FE
007E
003E
403E
7FFE
FFFE
FFFC
3FF0
0000
0000
03C0
07C0
1F80
1F80
0C00
ENDCHAR
STARTCHAR 021A
ENCODING 538
SWIDTH 488 0
DWIDTH 19 0
BBX 17 31 1 -7
BITMAP
FFFF80
FFFF80
FFFF80
FFFF80
03E000
03E000
03E000
03E000
03E000
03E000
03E000
03E000
03E000
03E000
03E000
03E000
03E000
03E000
03E000
03E000
03E000
03E000
03E000
03E000
000000
000000
01E000
01E000
0FE000
0FC000
060000
ENDCHAR
STARTCHAR 021B
ENCODING 539
SWIDTH 488 0
DWIDTH 19 0
BBX 17 31 1 -7
BITMAP
008000
078000
078000
078000
078000
078000
FFFF80
FFFF80
FFFF80
FFFF80
078000
078000
078000
078000
078000
078000
078000
078000
078000
07C080
07FF80
07FF80
03FF80
01FF80
000000
000000
003800
007800
01F800
01F800
01C000
ENDCHAR
STARTCHAR 021C
ENCODING 540
SWIDTH 488 0
DWIDTH 19 0
BBX 17 31 1 -6
BITMAP
030000
7FF000
7FFC00
7FFE00
7FFE00
003F00
001F00
001F00
001F00
001F00
001F00
003E00
03FE00
0FFC00
0FF800
0FFC00
0FFE00
003F00
001F80
000F80
000F80
000F80
000F80
000F80
001F80
003F00
007F00
7FFE00
7FFC00
FFF000
FFC000
ENDCHAR
STARTCHAR 021D
ENCODING 541
SWIDTH 488 0
DWIDTH 19 0
BBX 14 25 3 -6
BITMAP
1F00
FFE0
7FF0
7FF8
61F8
00FC
007C
0078
00F8
01F8
0FF0
0FC0
0FF0
0FF8
00FC
007C
007C
007C
007C
00FC
03F8
FFF8
FFF0
FFC0
FF00
ENDCHAR
STARTCHAR 021E
ENCODING 542
SWIDTH 488 0
DWIDTH 19 0
BBX 16 32 2 0
BITMAP
0830
1E78
1FF8
0FE0
07C0
0380
0100
0000
F81F
F81F
F81F
F81F
F81F
F81F
F81F
F81F
F81F
FFFF
FFFF
FFFF
FFFF
F81F
F81F
F81F
F81F
F81F
F81F
F81F
F81F
F81F
F81F
F81F
ENDCHAR
STARTCHAR 021F
ENCODING 543
SWIDTH 488 0
DWIDTH 19 0
BBX 15 32 2 0
BITMAP
6080
FBC0
7FC0
3F00
0E00
0400
0000
0800
F800
F800
F800
F800
F800
F9C0
FFF0
FFFC
FFFC
FFFE
F83E
F83E
F83E
F83E
F83E
F83E
F83E
F83E
F83E
F83E
F83E
F83E
F83E
F83E
ENDCHAR
STARTCHAR 0220
ENCODING 544
SWIDTH 488 0
DWIDTH 19 0
BBX 16 31 2 -6
BITMAP
03C0
FFF0
FFFC
FFFC
FFFE
F83E
F81E
F81F
F81F
F81F
F81F
F81F
F81F
F81F
F81F
F81F
F81F
F81F
F81F
F81F
F81F
F81F
F81F
F81F
F81F
001F
001F
001F
001F
001F
001F
ENDCHAR
STARTCHAR 0221
ENCODING 545
SWIDTH 488 0
DWIDTH 19 0
BBX 19 33 1 -6
BITMAP
001800
007800
007800
007800
007800
007800
007800
007800
0E7800
3FF800
7FF800
7FF800
FCF800
F87800
F07800
F07800
F07800
F07800
F07800
F07800
F07800
F07800
F87F00
7EFFC0
7FFFC0
3FFDE0
1FF8E0
00F8E0
01F8E0
03FCE0
07BFE0
071FC0
030F80
ENDCHAR
STARTCHAR 0222
ENCODING 546
SWIDTH 488 0
DWIDTH 19 0
BBX 17 25 1 -1
BITMAP
3E1E00
3E1E00
3C1F00
3C1F00
3C1F00
3C1F00
3C1F00
3E1F00
3E3E00
1FFE00
0FFC00
1FFE00
3FFF00
7E1F80
FC0F80
F80F80
F80780
F80F80
F80F80
FC1F80
7FFF80
7FFF00
3FFE00
0FFC00
008000
ENDCHAR
STARTCHAR 0223
ENCODING 547
SWIDTH 488 0
DWIDTH 19 0
BBX 17 28 1 -1
BITMAP
3C1F00
7C1F00
7C1F00
7C1F00
7C1F00
7C1F00
7C1F00
7C1F00
7E1F00
3E3F00
1FFE00
0FFC00
1FFC00
3FFE00
7E3F00
7C1F80
F80F80
F80F80
F80F80
F80F80
F80F80
FC0F80
7C1F80
7FFF00
3FFF00
1FFE00
0FF800
008000
ENDCHAR
STARTCHAR 0224
ENCODING 548
SWIDTH 488 0
DWIDTH 19 0
BBX 16 31 2 -7
BITMAP
FFFE
FFFE
FFFE
FFFE
007E
007C
00F8
01F8
01F0
03E0
03E0
07C0
07C0
0F80
1F00
1F00
3E00
3E00
7C00
7C00
FFFF
FFFF
FFFF
FFFF
000F
000F
001E
01FE
01FE
01FC
0040
ENDCHAR
STARTCHAR 0225
ENCODING 549
SWIDTH 488 0
DWIDTH 19 0
BBX 14 24 3 -6
BITMAP
FFFC
FFFC
FFFC
FFF8
01F0
03F0
07E0
07C0
0F80
1F80
1F00
3E00
7C00
7C00
FFFC
FFFC
FFFC
FFFC
003C
003C
007C
03F8
03F8
07F0
ENDCHAR
STARTCHAR 0226
ENCODING 550
SWIDTH 488 0
DWIDTH 19 0
BBX 19 32 0 0
BITMAP
006000
01F000
01F000
01F000
01F000
00E000
000000
000000
01F800
01F800
03F800
03FC00
03FC00
07BC00
07BC00
07BE00
079E00
0F1E00
0F1F00
0F1F00
1F0F00
1F0F00
1FFF80
1FFF80
3FFF80
3FFFC0
3C07C0
7C07C0
7C07C0
7C07E0
7C03E0
F803E0
ENDCHAR
STARTCHAR 0227
ENCODING 551
SWIDTH 488 0
DWIDTH 19 0
BBX 15 26 2 0
BITMAP
03C0
07C0
07C0
07C0
03C0
0000
0000
0FC0
7FF8
3FFC
3FFC
30FE
003E
003E
001E
1FFE
7FFE
FFFE
FC1E
F81E
F01E
F81E
FE3E
FFFE
7FFE
3FFE
ENDCHAR
STARTCHAR 0228
ENCODING 552
SWIDTH 488 0
DWIDTH 19 0
BBX 16 31 2 -7
BITMAP
FFFE
FFFE
FFFE
FFFE
F800
F800
F800
F800
F800
FFFC
FFFC
FFFC
FFFC
F800
F800
F800
F800
F800
F800
F800
FFFF
FFFF
FFFF
FFFF
01C0
03E0
00F0
00F0
0FF0
0FE0
0300
ENDCHAR
STARTCHAR 0229
ENCODING 553
SWIDTH 488 0
DWIDTH 19 0
BBX 17 26 1 -7
BITMAP
01E000
0FFC00
1FFE00
3FFF00
3F3F00
7C0F80
7C0F80
F80F80
FFFF80
FFFF80
FFFF80
F80000
F80000
7C0000
7E0000
3FFF00
3FFF00
1FFF00
07FF00
00E000
01F000
007800
007800
03F800
07F000
03C000
ENDCHAR
STARTCHAR 022A
ENCODING 554
SWIDTH 488 0
DWIDTH 19 0
BBX 17 33 1 -1
BITMAP
0FF800
0FF800
000000
040000
1E3C00
1F3C00
1F3C00
0E1800
000000
03F000
0FFC00
1FFE00
3FFF00
7E3F00
7C1F80
7C0F80
F80F80
F80F80
F80F80
F80F80
F80780
F80780
F80F80
F80F80
F80F80
F80F80
7C0F80
7C1F00
3FFF00
3FFE00
1FFC00
0FF800
008000
ENDCHAR
STARTCHAR 022B
ENCODING 555
SWIDTH 488 0
DWIDTH 19 0
BBX 17 29 1 -1
BITMAP
0FF800
0FF800
000000
0C1800
1E3C00
1F3C00
1E3C00
041800
000000
01E000
0FF800
1FFE00
3FFE00
7F7F00
7C1F80
7C0F80
F80F80
F80F80
F80F80
F80F80
F80F80
F80F80
7C0F80
7C1F00
3FFF00
3FFE00
1FFC00
07F800
008000
ENDCHAR
STARTCHAR 022C
ENCODING 556
SWIDTH 488 0
DWIDTH 19 0
BBX 17 33 1 -1
BITMAP
0FF800
0FF800
000000
000800
0FDC00
0FFC00
0FF800
002000
000000
03F000
0FFC00
1FFE00
3FFF00
7E3F00
7C1F80
7C0F80
F80F80
F80F80
F80F80
F80F80
F80780
F80780
F80F80
F80F80
F80F80
F80F80
7C0F80
7C1F00
3FFF00
3FFE00
1FFC00
0FF800
008000
ENDCHAR
STARTCHAR 022D
ENCODING 557
SWIDTH 488 0
DWIDTH 19 0
BBX 17 29 1 -1
BITMAP
0FF800
0FF800
000000
030800
0FFC00
0FF800
0CF800
000000
000000
01E000
0FF800
1FFE00
3FFE00
7F7F00
7C1F80
7C0F80
F80F80
F80F80
F80F80
F80F80
F80F80
F80F80
7C0F80
7C1F00
3FFF00
3FFE00
1FFC00
07F800
008000
ENDCHAR
STARTCHAR 022E
ENCODING 558
SWIDTH 488 0
DWIDTH 19 0
BBX 17 33 1 -1
BITMAP
00C000
03E000
03E000
03E000
03E000
01C000
000000
00C000
0FF800
1FFC00
3FFE00
3FFF00
7C1F00
7C0F80
780F80
F80F80
F80F80
F80F80
F80F80
F80780
F80780
F80F80
F80F80
F80F80
F80F80
780F80
7C0F80
7E1F00
3FFF00
3FFE00
1FFC00
07F800
008000
ENDCHAR
STARTCHAR 022F
ENCODING 559
SWIDTH 488 0
DWIDTH 19 0
BBX 17 27 1 -1
BITMAP
01E000
03E000
03E000
03E000
01E000
000000
000000
01E000
0FF800
1FFE00
3FFE00
7F7F00
7C1F80
7C0F80
F80F80
F80F80
F80F80
F80F80
F80F80
F80F80
7C0F80
7C1F00
3FFF00
3FFE00
1FFC00
07F800
008000
ENDCHAR
STARTCHAR 0230
ENCODING 560
SWIDTH 488 0
DWIDTH 19 0
BBX 17 33 1 -1
BITMAP
0FF800
0FF800
000000
008000
01E000
03E000
01E000
01C000
000000
03F000
0FFC00
1FFE00
3FFF00
7E3F00
7C1F80
7C0F80
F80F80
F80F80
F80F80
F80F80
F80780
F80780
F80F80
F80F80
F80F80
F80F80
7C0F80
7C1F00
3FFF00
3FFE00
1FFC00
0FF800
008000
ENDCHAR
STARTCHAR 0231
ENCODING 561
SWIDTH 488 0
DWIDTH 19 0
BBX 17 29 1 -1
BITMAP
0FF800
0FF800
000000
00C000
01E000
03E000
01E000
00C000
000000
01E000
0FF800
1FFE00
3FFE00
7F7F00
7C1F80
7C0F80
F80F80
F80F80
F80F80
F80F80
F80F80
F80F80
7C0F80
7C1F00
3FFF00
3FFE00
1FFC00
07F800
008000
ENDCHAR
STARTCHAR 0232
ENCODING 562
SWIDTH 488 0
DWIDTH 19 0
BBX 18 31 1 0
BITMAP
1FFC00
1FFC00
1FFC00
1FFC00
000000
000000
000000
F807C0
F80F80
F80F80
7C0F80
7C1F00
3E1F00
3E1E00
1E3E00
1F3C00
0F3C00
0FFC00
07F800
07F000
03F000
03E000
03E000
03E000
03E000
03E000
03E000
03E000
03E000
03E000
03E000
ENDCHAR
STARTCHAR 0233
ENCODING 563
SWIDTH 488 0
DWIDTH 19 0
BBX 17 32 1 -7
BITMAP
1FFC00
1FFC00
1FFC00
000000
000000
000000
000000
7C0F80
7C0F80
7C0F80
7C0F00
3E1F00
3E1F00
3E1E00
1F1E00
1F3E00
0F3E00
0FBC00
0FBC00
07FC00
07F800
03F800
03F000
01F000
01F000
03E000
03E000
7FC000
FFC000
FF8000
FF0000
380000
ENDCHAR
STARTCHAR 0234
ENCODING 564
SWIDTH 488 0
DWIDTH 19 0
BBX 18 33 1 -6
BITMAP
FFC000
FFC000
FFC000
FFC000
07C000
07C000
07C000
07C000
07C000
07C000
07C000
07C000
07C000
07C000
07C000
07C000
07C000
07C000
07C000
07C000
07C000
07C000
07FF00
07FF80
07FF80
07E7C0
07C3C0
0FC3C0
1FC3C0
3FE7C0
7DFF80
38FF80
107E00
ENDCHAR
STARTCHAR 0235
ENCODING 565
SWIDTH 488 0
DWIDTH 19 0
BBX 19 25 1 -6
BITMAP
078000
FFE000
FFF000
FFF000
F9F800
F07800
F07800
F07800
F07800
F07800
F07800
F07800
F07800
F07800
F07F00
F07FC0
F07FC0
F07DE0
F078E0
00F8E0
01F8E0
03FCE0
07BFE0
071FC0
030F80
ENDCHAR
STARTCHAR 0236
ENCODING 566
SWIDTH 488 0
DWIDTH 19 0
BBX 17 30 1 -6
BITMAP
008000
078000
078000
078000
078000
078000
FFFF80
FFFF80
FFFF80
FFFF80
078000
078000
078000
078000
078000
078000
078000
078000
078000
07FE00
07FF00
07FF00
07CF80
0F8780
1F8780
3FC780
7FCF80
FBFF00
7BFF00
30FE00
ENDCHAR
STARTCHAR 0237
ENCODING 567
SWIDTH 488 0
DWIDTH 19 0
BBX 14 25 2 -7
BITMAP
7FFC
7FFC
7FFC
7FFC
007C
007C
007C
007C
007C
007C
007C
007C
007C
007C
007C
007C
007C
007C
0078
60F8
7FF8
FFF8
FFF0
7FE0
0200
ENDCHAR
STARTCHAR 0238
ENCODING 568
SWIDTH 488 0
DWIDTH 19 0
BBX 17 28 1 -1
BITMAP
00E000
01E000
01E000
01E000
01E000
01E000
01E000
01E000
0DEC00
3FFE00
7FFF00
7FFF00
7BE780
F1E780
F1E780
F1E380
F1E380
F1E380
F1E380
F1E380
F1E780
F1E780
F1E780
79EF80
7FFF00
3FFF00
1FFE00
041000
ENDCHAR
STARTCHAR 0239
ENCODING 569
SWIDTH 488 0
DWIDTH 19 0
BBX 17 25 1 -6
BITMAP
0E3800
1FFE00
3FFF00
7FFF00
79E780
F1E780
F1E780
F1E780
F1E380
F1E380
F1E380
F1E380
F1E780
F1E780
F1E780
7BEF80
7FFF00
3FFF00
3FFE00
01E000
01E000
01E000
01E000
01E000
01E000
ENDCHAR
STARTCHAR 023A
ENCODING 570
SWIDTH 488 0
DWIDTH 19 0
BBX 19 30 0 -3
BITMAP
000600
000E00
000C00
01FC00
01FC00
03FC00
03F800
03FC00
07BC00
07BC00
07BE00
07BE00
0F3E00
0F3F00
0F7F00
1F6F00
1F6F00
1FFF80
1FFF80
3FFF80
3FFF80
3CC7C0
7CC7C0
7DC7C0
7D83C0
7D83E0
F983E0
038000
030000
030000
ENDCHAR
STARTCHAR 023B
ENCODING 571
SWIDTH 488 0
DWIDTH 19 0
BBX 18 30 1 -3
BITMAP
000780
000780
003F00
03FF00
0FFFC0
1FFFC0
3FFFC0
3F1F80
7E1C00
7C1C00
7C3C00
F83800
F83800
F87800
F87000
F87000
F8F000
F8E000
F8E000
7DE000
7DC000
7FC000
3FC100
3FFF00
1FFF80
0FFF80
07FF00
072000
0F0000
0E0000
ENDCHAR
STARTCHAR 023C
ENCODING 572
SWIDTH 488 0
DWIDTH 19 0
BBX 16 24 2 -3
BITMAP
001C
001C
01FC
0FFF
1FFF
3FFE
7FFE
FC70
F870
F8E0
F8E0
F0E0
F1C0
F9C0
F9C0
FF80
FF80
7FFF
3FFF
1FFF
07FF
0E00
0E00
0600
ENDCHAR
STARTCHAR 023D
ENCODING 573
SWIDTH 488 0
DWIDTH 19 0
BBX 17 24 1 0
BITMAP
1F0000
1F0000
1F0000
1F0000
1F0000
1F0000
1F0000
1F0000
1F0000
FFF800
FFF800
FFF800
FFF800
1F0000
1F0000
1F0000
1F0000
1F0000
1F0000
1F0000
1FFF80
1FFF80
1FFF80
1FFF80
ENDCHAR
STARTCHAR 023E
ENCODING 574
SWIDTH 488 0
DWIDTH 19 0
BBX 20 29 0 -2
BITMAP
000060
000070
0000F0
7FFFE0
7FFFC0
7FFFC0
7FFF80
03E780
03EF00
03FE00
03FE00
03FC00
03F800
03F800
03F000
03E000
03E000
03E000
03E000
07E000
0FE000
0FE000
1FE000
1FE000
3FE000
7BE000
73E000
F00000
600000
ENDCHAR
STARTCHAR 023F
ENCODING 575
SWIDTH 488 0
DWIDTH 19 0
BBX 15 25 2 -6
BITMAP
03F0
1FFC
3FFC
7FFC
7E3C
7800
7C00
7E00
7FC0
3FF8
0FFC
03FE
007E
003E
003E
FFFE
FFFC
FFF8
FFE0
3E00
1F00
0FC4
0FFC
03FC
01FC
ENDCHAR
STARTCHAR 0240
ENCODING 576
SWIDTH 488 0
DWIDTH 19 0
BBX 15 24 3 -6
BITMAP
FFFC
FFFC
FFFC
FFF8
01F0
03F0
07E0
07C0
0F80
1F80
1F00
3E00
7C00
7C00
F800
F800
FE00
FF00
1F80
0FC0
03FE
01FE
00FE
007E
ENDCHAR
STARTCHAR 0241
ENCODING 577
SWIDTH 488 0
DWIDTH 19 0
BBX 16 25 2 0
BITMAP
0180
3FF0
FFFC
7FFE
7FFE
603F
001F
001F
001F
003E
007E
01FC
03F8
07F0
0FE0
0FC0
0F80
0F80
0F80
0F80
0F80
0F80
0F80
0F80
0F80
ENDCHAR
STARTCHAR 0242
ENCODING 578
SWIDTH 488 0
DWIDTH 19 0
BBX 15 19 2 0
BITMAP
07C0
3FF8
FFFC
7FFE
7EFE
203E
003E
003E
00FE
01FC
03F8
07E0
0FC0
0F80
0F80
0F80
0F80
0F80
0F80
ENDCHAR
STARTCHAR 0243
ENCODING 579
SWIDTH 488 0
DWIDTH 19 0
BBX 17 24 1 0
BITMAP
3FF800
3FFC00
3FFE00
3FFF00
3E1F00
3E1F00
3E1F00
3E1F00
3E1F00
3FFE00
3FFC00
3FFC00
3FFF00
3E7F00
3E0F80
FFCF80
FFC780
FFCF80
3E0F80
3E1F80
3FFF00
3FFF00
3FFE00
3FF800
ENDCHAR
STARTCHAR 0244
ENCODING 580
SWIDTH 488 0
DWIDTH 19 0
BBX 18 25 1 -1
BITMAP
7C1F00
7C1F00
7C1F00
7C1F00
7C1F00
7C1F00
7C1F00
7C1F00
7C1F00
FFFFC0
FFFFC0
FFFFC0
FFFFC0
7C1F00
7C1F00
7C1F00
7C1F00
7C1F00
3E1F00
3E3F00
3FFE00
1FFE00
1FFC00
0FF800
008000
ENDCHAR
STARTCHAR 0245
ENCODING 581
SWIDTH 488 0
DWIDTH 19 0
BBX 19 24 0 0
BITMAP
01F800
01F800
03F800
03FC00
03FC00
07BC00
07BC00
07BE00
079E00
0F1E00
0F1F00
0F1F00
1F0F00
1E0F00
1E0F80
1E0F80
3E0F80
3E07C0
3C07C0
7C07C0
7C07C0
7C07E0
7C03E0
F803E0
ENDCHAR
STARTCHAR 0246
ENCODING 582
SWIDTH 488 0
DWIDTH 19 0
BBX 17 30 2 -4
BITMAP
000300
000380
000780
FFFF00
FFFF00
FFFF00
FFFE00
F81E00
F81C00
F81C00
F83C00
F83800
FFFE00
FFFE00
FFFE00
FFFE00
F8E000
F8E000
F9E000
F9C000
FBC000
FB8000
FB8000
FFFF00
FFFF00
FFFF00
FFFF00
0E0000
1E0000
1C0000
ENDCHAR
STARTCHAR 0247
ENCODING 583
SWIDTH 488 0
DWIDTH 19 0
BBX 17 24 1 -3
BITMAP
001C00
001C00
03F800
0FFC00
1FFE00
3FFF00
7F7F80
7C7F80
F8EF80
F8E780
FFFF80
FFFF80
FFFF80
F9C000
FB8000
FF8000
7F8100
7FFF00
3FFF00
1FFF00
0FFF00
0E6000
0E0000
0E0000
ENDCHAR
STARTCHAR 0248
ENCODING 584
SWIDTH 488 0
DWIDTH 19 0
BBX 17 25 2 -1
BITMAP
3FFC00
3FFC00
3FFC00
3FFC00
007C00
007C00
007C00
007C00
007C00
07FF80
07FF80
07FF80
07FF80
007C00
007C00
007C00
007C00
007C00
007C00
60F800
7FF800
FFF800
FFF000
7FC000
060000
ENDCHAR
STARTCHAR 0249
ENCODING 585
SWIDTH 488 0
DWIDTH 19 0
BBX 17 34 2 -7
BITMAP
004000
00F000
01F800
01F800
01F800
00F000
000000
000000
000000
7FFC00
7FFC00
7FFC00
7FFC00
007C00
007C00
007C00
7FFF80
7FFF80
7FFF80
007C00
007C00
007C00
007C00
007C00
007C00
007C00
007C00
007800
60F800
7FF800
FFF800
FFF000
7FE000
020000
ENDCHAR
STARTCHAR 024A
ENCODING 586
SWIDTH 488 0
DWIDTH 19 0
BBX 19 32 1 -7
BITMAP
018000
0FF000
1FF800
3FFC00
3FFC00
7C3E00
7C3E00
781F00
F81F00
F81F00
F81F00
F81F00
F81F00
F81F00
F81F00
F81F00
F81F00
F81F00
781F00
7C3F00
7C3F00
3FFF00
3FFF00
1FFF00
0FEF00
010F00
000F00
000FE0
000FE0
000FE0
0007E0
000080
ENDCHAR
STARTCHAR 024B
ENCODING 587
SWIDTH 488 0
DWIDTH 19 0
BBX 19 25 1 -6
BITMAP
01E000
0FFE00
1FFE00
3FFE00
7F3E00
7C1E00
7C1E00
F81E00
F81E00
F81E00
F81E00
F81E00
F81E00
7C1E00
7C1E00
7FFE00
3FFE00
3FFE00
0FFE00
001E00
001F00
001FC0
001FC0
001FE0
000FE0
ENDCHAR
STARTCHAR 024C
ENCODING 588
SWIDTH 488 0
DWIDTH 19 0
BBX 17 24 1 0
BITMAP
3FF800
3FFC00
3FFE00
3FFF00
3E3F00
3E1F00
3E1F00
3E0F00
3E1F00
3E1F00
3E3F00
FFFF00
FFFE00
FFFC00
FFF800
3E7C00
3E7C00
3E3E00
3E3E00
3E1F00
3E1F00
3E0F80
3E0F80
3E0F80
ENDCHAR
STARTCHAR 024D
ENCODING 589
SWIDTH 488 0
DWIDTH 19 0
BBX 17 19 1 0
BITMAP
003C00
1FFF80
3FFF80
3FFF00
3FFF00
3E0000
3E0000
3E0000
3E0000
FFFC00
FFFC00
FFFC00
3E0000
3E0000
3E0000
3E0000
3E0000
3E0000
3E0000
ENDCHAR
STARTCHAR 024E
ENCODING 590
SWIDTH 488 0
DWIDTH 19 0
BBX 19 24 0 0
BITMAP
7C07C0
7C07C0
3E07C0
3E0780
FFFFE0
FFFFE0
FFFFE0
FFFFE0
0F9E00
079E00
07BC00
03FC00
03F800
01F800
01F000
01F000
01F000
01F000
01F000
01F000
01F000
01F000
01F000
01F000
ENDCHAR
STARTCHAR 024F
ENCODING 591
SWIDTH 488 0
DWIDTH 19 0
BBX 19 25 0 -7
BITMAP
3E07C0
3E07C0
3E0780
3E0F80
1F0F80
FFFFE0
FFFFE0
FFFFE0
0F9F00
079E00
07DE00
07DE00
03FC00
03FC00
01FC00
01F800
00F800
00F800
01F000
01F000
3FE000
7FE000
7FC000
7F8000
1C0000
ENDCHAR
STARTCHAR 0292
ENCODING 658
SWIDTH 488 0
DWIDTH 19 0
BBX 16 24 1 -6
BITMAP
7FFF
7FFF
7FFF
7FFE
007C
007C
00F8
01F0
03E0
07C0
07F0
07FC
07FE
003E
001F
001F
001F
001F
001F
403F
7FFE
7FFE
FFFC
7FF0
ENDCHAR
STARTCHAR 02BC
ENCODING 700
SWIDTH 488 0
DWIDTH 19 0
BBX 6 8 7 19
BITMAP
7C
7C
78
78
78
78
F0
F0
ENDCHAR
STARTCHAR 02C6
ENCODING 710
SWIDTH 488 0
DWIDTH 19 0
BBX 10 7 5 20
BITMAP
0800
1C00
3E00
7F80
FFC0
F3C0
4180
ENDCHAR
STARTCHAR 02C7
ENCODING 711
SWIDTH 488 0
DWIDTH 19 0
BBX 11 7 4 20
BITMAP
2040
71C0
FBE0
3FC0
1F80
0F00
0600
ENDCHAR
STARTCHAR 02C9
ENCODING 713
SWIDTH 488 0
DWIDTH 19 0
BBX 11 3 4 22
BITMAP
FFE0
FFE0
FFE0
ENDCHAR
STARTCHAR 02D8
ENCODING 728
SWIDTH 488 0
DWIDTH 19 0
BBX 11 6 4 21
BITMAP
F0E0
F0E0
F1E0
7FE0
7FC0
1F80
ENDCHAR
STARTCHAR 02D9
ENCODING 729
SWIDTH 488 0
DWIDTH 19 0
BBX 5 5 7 21
BITMAP
78
F8
F8
F8
78
ENDCHAR
STARTCHAR 02DA
ENCODING 730
SWIDTH 488 0
DWIDTH 19 0
BBX 8 7 6 21
BITMAP
7E
FE
C7
C7
C7
FE
7E
ENDCHAR
STARTCHAR 02DB
ENCODING 731
SWIDTH 488 0
DWIDTH 19 0
BBX 8 8 6 -7
BITMAP
1F
3C
78
78
F8
FE
7E
18
ENDCHAR
STARTCHAR 02DC
ENCODING 732
SWIDTH 488 0
DWIDTH 19 0
BBX 12 5 4 21
BITMAP
3860
7FF0
FFF0
FFE0
43C0
ENDCHAR
STARTCHAR 02DD
ENCODING 733
SWIDTH 488 0
DWIDTH 19 0
BBX 14 7 3 20
BITMAP
0810
1C38
3E7C
7CF8
F9F0
F1E0
4080
ENDCHAR
STARTCHAR 0311
ENCODING 785
SWIDTH 488 0
DWIDTH 19 0
BBX 11 6 4 20
BITMAP
1F80
7FC0
7FE0
F1E0
F0E0
F0E0
ENDCHAR
STARTCHAR 0384
ENCODING 900
SWIDTH 488 0
DWIDTH 19 0
BBX 7 8 6 20
BITMAP
0C
1E
3E
7C
78
F8
70
20
ENDCHAR
STARTCHAR 0385
ENCODING 901
SWIDTH 488 0
DWIDTH 19 0
BBX 17 8 1 20
BITMAP
006000
00F000
78E700
79EF80
FDCF80
79CF80
7B8700
018000
ENDCHAR
STARTCHAR 0386
ENCODING 902
SWIDTH 488 0
DWIDTH 19 0
BBX 20 25 -1 0
BITMAP
200000
3CFC00
7CFC00
79FC00
79FE00
79FE00
F3DE00
F3DE00
33DF00
03CF00
078F00
078F80
078F80
0F8780
0F8780
0FFFC0
0FFFC0
1FFFC0
1FFFE0
1E03E0
3E03E0
3E03E0
3E03F0
3E01F0
7C01F0
ENDCHAR
STARTCHAR 0388
ENCODING 904
SWIDTH 488 0
DWIDTH 19 0
BBX 23 25 -5 0
BITMAP
200000
7DFFFC
7DFFFC
79FFFC
79FFFC
F1F000
F1F000
F1F000
21F000
01F000
01FFF8
01FFF8
01FFF8
01FFF8
01F000
01F000
01F000
01F000
01F000
01F000
01F000
01FFFE
01FFFE
01FFFE
01FFFE
ENDCHAR
STARTCHAR 0389
ENCODING 905
SWIDTH 488 0
DWIDTH 19 0
BBX 24 25 -6 0
BITMAP
200000
3CF81F
7CF81F
7CF81F
78F81F
78F81F
F0F81F
F0F81F
10F81F
00F81F
00FFFF
00FFFF
00FFFF
00FFFF
00F81F
00F81F
00F81F
00F81F
00F81F
00F81F
00F81F
00F81F
00F81F
00F81F
00F81F
ENDCHAR
STARTCHAR 038A
ENCODING 906
SWIDTH 488 0
DWIDTH 19 0
BBX 23 25 -6 0
BITMAP
300000
3CFFFE
3CFFFE
7CFFFE
78FFFE
7807C0
7807C0
F007C0
1007C0
0007C0
0007C0
0007C0
0007C0
0007C0
0007C0
0007C0
0007C0
0007C0
0007C0
0007C0
0007C0
00FFFE
00FFFE
00FFFE
00FFFE
ENDCHAR
STARTCHAR 038C
ENCODING 908
SWIDTH 488 0
DWIDTH 19 0
BBX 23 26 -5 -1
BITMAP
200300
3C3FE0
7C7FF0
78FFF8
78FFFC
79F07C
F1F03E
F1E03E
33E03E
03E03E
03E03E
03E03E
03E01E
03E01E
03E03E
03E03E
03E03E
03E03E
01E03E
01F03E
01F87C
00FFFC
00FFF8
007FF0
001FE0
000200
ENDCHAR
STARTCHAR 038E
ENCODING 910
SWIDTH 488 0
DWIDTH 19 0
BBX 25 25 -6 0
BITMAP
60000000
7DF00F80
79F01F00
79F01F00
F8F81F00
F0F83E00
F07C3E00
E07C3C00
203C7C00
003E7800
001E7800
001FF800
000FF000
000FE000
0007E000
0007C000
0007C000
0007C000
0007C000
0007C000
0007C000
0007C000
0007C000
0007C000
0007C000
ENDCHAR
STARTCHAR 038F
ENCODING 911
SWIDTH 488 0
DWIDTH 19 0
BBX 24 25 -5 0
BITMAP
200700
3C3FE0
7C7FF8
78FFFC
79FFFC
79F07E
F3F03E
F3E03F
33E01F
03E01F
03C01F
03C01F
03C01F
03C01F
03E01F
03E01E
03E01E
01E03E
01F03C
00F07C
00F878
07FCFF
07FCFF
07FCFF
07FCFF
ENDCHAR
STARTCHAR 0390
ENCODING 912
SWIDTH 488 0
DWIDTH 19 0
BBX 17 28 1 0
BITMAP
006000
00F000
78E700
79EF80
FDCF80
79CF80
7B8700
018000
000000
000000
FFC000
FFC000
FFC000
FFC000
07C000
07C000
07C000
07C000
07C000
07C000
07C000
07C000
03E000
03E180
03FF80
03FF80
01FF80
00FF80
ENDCHAR
STARTCHAR 0391
ENCODING 913
SWIDTH 488 0
DWIDTH 19 0
BBX 19 24 0 0
BITMAP
01F800
01F800
03F800
03FC00
03FC00
07BC00
07BC00
07BE00
079E00
0F1E00
0F1F00
0F1F00
1F0F00
1F0F00
1FFF80
1FFF80
3FFF80
3FFFC0
3C07C0
7C07C0
7C07C0
7C07E0
7C03E0
F803E0
ENDCHAR
STARTCHAR 0392
ENCODING 914
SWIDTH 488 0
DWIDTH 19 0
BBX 16 24 2 0
BITMAP
FFF0
FFF8
FFFC
FFFE
F83E
F83E
F83E
F83E
F83E
FFFC
FFF8
FFF8
FFFE
F8FE
F81F
F81F
F80F
F81F
F81F
F83F
FFFE
FFFE
FFFC
FFF0
ENDCHAR
STARTCHAR 0393
ENCODING 915
SWIDTH 488 0
DWIDTH 19 0
BBX 18 24 1 0
BITMAP
0FFFC0
0FFFC0
0FFFC0
0FFFC0
0F8000
0F8000
0F8000
0F8000
0F8000
0F8000
0F8000
0F8000
0F8000
0F8000
0F8000
0F8000
0F8000
0F8000
0F8000
0F8000
FFFC00
FFFC00
FFFC00
FFFC00
ENDCHAR
STARTCHAR 0394
ENCODING 916
SWIDTH 488 0
DWIDTH 19 0
BBX 19 24 0 0
BITMAP
01F800
01F800
03F800
03FC00
03FC00
07BC00
07BC00
07BE00
079E00
0F1E00
0F1F00
0F1F00
1F0F00
1E0F00
1E0F80
1E0F80
3E0F80
3E07C0
3C07C0
7C07C0
7FFFC0
7FFFE0
7FFFE0
FFFFE0
ENDCHAR
STARTCHAR 0395
ENCODING 917
SWIDTH 488 0
DWIDTH 19 0
BBX 16 24 2 0
BITMAP
FFFE
FFFE
FFFE
FFFE
F800
F800
F800
F800
F800
FFFC
FFFC
FFFC
FFFC
F800
F800
F800
F800
F800
F800
F800
FFFF
FFFF
FFFF
FFFF
ENDCHAR
STARTCHAR 0396
ENCODING 918
SWIDTH 488 0
DWIDTH 19 0
BBX 16 24 2 0
BITMAP
FFFE
FFFE
FFFE
FFFE
007E
007C
00F8
01F8
01F0
03E0
03E0
07C0
07C0
0F80
1F00
1F00
3E00
3E00
7C00
7C00
FFFF
FFFF
FFFF
FFFF
ENDCHAR
STARTCHAR 0397
ENCODING 919
SWIDTH 488 0
DWIDTH 19 0
BBX 16 24 2 0
BITMAP
F81F
F81F
F81F
F81F
F81F
F81F
F81F
F81F
F81F
FFFF
FFFF
FFFF
FFFF
F81F
F81F
F81F
F81F
F81F
F81F
F81F
F81F
F81F
F81F
F81F
ENDCHAR
STARTCHAR 0398
ENCODING 920
SWIDTH 488 0
DWIDTH 19 0
BBX 18 26 1 -1
BITMAP
01C000
0FF800
1FFE00
3FFE00
3FFF00
7C1F00
780F80
F80F80
F80780
F80780
F00780
F3F7C0
F3F7C0
F3F7C0
F3F7C0
F00780
F80780
F80780
F80F80
780F80
7C1F00
7FFF00
3FFE00
1FFC00
0FF800
008000
ENDCHAR
STARTCHAR 0399
ENCODING 921
SWIDTH 488 0
DWIDTH 19 0
BBX 15 24 2 0
BITMAP
FFFE
FFFE
FFFE
FFFE
07C0
07C0
07C0
07C0
07C0
07C0
07C0
07C0
07C0
07C0
07C0
07C0
07C0
07C0
07C0
07C0
FFFE
FFFE
FFFE
FFFE
ENDCHAR
STARTCHAR 039A
ENCODING 922
SWIDTH 488 0
DWIDTH 19 0
BBX 17 24 2 0
BITMAP
F81F00
F83E00
F87E00
F87C00
F8FC00
F8F800
F9F000
FBF000
FBE000
FFC000
FF8000
FF8000
FFC000
FFE000
FBF000
F9F800
F8F800
F8FC00
F87E00
F83E00
F83F00
F81F00
F81F00
F81F80
ENDCHAR
STARTCHAR 039B
ENCODING 923
SWIDTH 488 0
DWIDTH 19 0
BBX 19 24 0 0
BITMAP
01F800
01F800
03F800
03FC00
03FC00
07BC00
07BC00
07BE00
079E00
0F1E00
0F1F00
0F1F00
1F0F00
1E0F00
1E0F80
1E0F80
3E0F80
3E07C0
3C07C0
7C07C0
7C07C0
7C07E0
7C03E0
F803E0
ENDCHAR
STARTCHAR 039C
ENCODING 924
SWIDTH 488 0
DWIDTH 19 0
BBX 18 24 1 0
BITMAP
780F00
7C0F00
7C1F00
7C1F00
7E1F00
7E3F80
7E3F80
773F80
777780
777780
F3F780
F3F780
F3E780
F3E780
F1E780
F00780
F00780
F00780
F00780
F00780
F00780
F00780
F007C0
F007C0
ENDCHAR
STARTCHAR 039D
ENCODING 925
SWIDTH 488 0
DWIDTH 19 0
BBX 16 24 2 0
BITMAP
F01F
F81F
F81F
FC1F
FC1F
FE1F
FE1F
FF1F
FF1F
F79F
F79F
F3DF
F3DF
F1FF
F1FF
F0FF
F0FF
F07F
F07F
F03F
F03F
F01F
F01F
F00F
ENDCHAR
STARTCHAR 039E
ENCODING 926
SWIDTH 488 0
DWIDTH 19 0
BBX 17 24 1 0
BITMAP
FFFF80
FFFF80
FFFF80
FFFF80
000000
000000
000000
000000
000000
3FFF00
3FFF00
3FFF00
3FFF00
000000
000000
000000
000000
000000
000000
000000
FFFF80
FFFF80
FFFF80
FFFF80
ENDCHAR
STARTCHAR 039F
ENCODING 927
SWIDTH 488 0
DWIDTH 19 0
BBX 17 26 1 -1
BITMAP
00C000
0FF800
1FFC00
3FFE00
3FFF00
7C1F00
7C0F80
780F80
F80F80
F80F80
F80F80
F80F80
F80780
F80780
F80F80
F80F80
F80F80
F80F80
780F80
7C0F80
7E1F00
3FFF00
3FFE00
1FFC00
07F800
008000
ENDCHAR
STARTCHAR 03A0
ENCODING 928
SWIDTH 488 0
DWIDTH 19 0
BBX 16 24 2 0
BITMAP
FFFF
FFFF
FFFF
FFFF
F81F
F81F
F81F
F81F
F81F
F81F
F81F
F81F
F81F
F81F
F81F
F81F
F81F
F81F
F81F
F81F
F81F
F81F
F81F
F81F
ENDCHAR
STARTCHAR 03A1
ENCODING 929
SWIDTH 488 0
DWIDTH 19 0
BBX 16 24 2 0
BITMAP
FFF0
FFFC
FFFE
FFFE
F83F
F81F
F81F
F81F
F81F
F81F
F81F
F87F
FFFE
FFFC
FFF8
FFC0
F800
F800
F800
F800
F800
F800
F800
F800
ENDCHAR
STARTCHAR 03A3
ENCODING 931
SWIDTH 488 0
DWIDTH 19 0
BBX 17 24 1 0
BITMAP
7FFF80
7FFF80
7FFF80
7FFF80
3E0000
1F0000
0F8000
07C000
07E000
03E000
01F000
00F800
01F800
01F000
03E000
07C000
0F8000
1F0000
3E0000
7C0000
FFFF80
FFFF80
FFFF80
FFFF80
ENDCHAR
STARTCHAR 03A4
ENCODING 932
SWIDTH 488 0
DWIDTH 19 0
BBX 17 24 1 0
BITMAP
FFFF80
FFFF80
FFFF80
FFFF80
03E000
03E000
03E000
03E000
03E000
03E000
03E000
03E000
03E000
03E000
03E000
03E000
03E000
03E000
03E000
03E000
03E000
03E000
03E000
03E000
ENDCHAR
STARTCHAR 03A5
ENCODING 933
SWIDTH 488 0
DWIDTH 19 0
BBX 18 24 1 0
BITMAP
F807C0
F80F80
F80F80
7C0F80
7C1F00
3E1F00
3E1E00
1E3E00
1F3C00
0F3C00
0FFC00
07F800
07F000
03F000
03E000
03E000
03E000
03E000
03E000
03E000
03E000
03E000
03E000
03E000
ENDCHAR
STARTCHAR 03A6
ENCODING 934
SWIDTH 488 0
DWIDTH 19 0
BBX 17 26 1 0
BITMAP
01E000
01E000
01E000
07F800
1FFC00
3FFE00
7FFF00
79EF80
79E780
F1E780
F1E780
F1E380
F1E380
F1E380
F1E380
F1E780
F1E780
F1E780
79EF80
7DFF00
3FFE00
1FFE00
0FF800
01E000
01E000
01E000
ENDCHAR
STARTCHAR 03A7
ENCODING 935
SWIDTH 488 0
DWIDTH 19 0
BBX 18 24 1 0
BITMAP
F80F80
7C0F80
7C1F00
3E1F00
3E3E00
1F3E00
1F7C00
0FFC00
07F800
07F000
03F000
03F000
07F000
07F800
0FF800
0F7C00
1F3E00
1F3E00
3E1F00
3E1F00
7C1F80
7C0F80
F80F80
F807C0
ENDCHAR
STARTCHAR 03A8
ENCODING 936
SWIDTH 488 0
DWIDTH 19 0
BBX 17 24 1 0
BITMAP
F00380
F00380
F00380
F00380
F00380
F00380
F1E380
F1E380
F1E380
F1E380
F1E380
F1E380
F1E780
79E780
7DFF00
3FFF00
3FFE00
0FFC00
01E000
01E000
01E000
01E000
01E000
01E000
ENDCHAR
STARTCHAR 03A9
ENCODING 937
SWIDTH 488 0
DWIDTH 19 0
BBX 19 25 0 0
BITMAP
00E000
07FC00
0FFF00
1FFF80
3FFF80
3E0FC0
7E07C0
7C07E0
7C03E0
7C03E0
7803E0
7803E0
7803E0
7803E0
7C03E0
7C03C0
7C03C0
3C07C0
3E0780
1E0F80
1F0F00
FF9FE0
FF9FE0
FF9FE0
FF9FE0
ENDCHAR
STARTCHAR 03AA
ENCODING 938
SWIDTH 488 0
DWIDTH 19 0
BBX 15 32 2 0
BITMAP
1010
3C7C
7E7C
7E7C
3C7C
1818
0000
0000
FFFE
FFFE
FFFE
FFFE
07C0
07C0
07C0
07C0
07C0
07C0
07C0
07C0
07C0
07C0
07C0
07C0
07C0
07C0
07C0
07C0
FFFE
FFFE
FFFE
FFFE
ENDCHAR
STARTCHAR 03AB
ENCODING 939
SWIDTH 488 0
DWIDTH 19 0
BBX 18 32 1 0
BITMAP
080800
1E3E00
3F3E00
3F3E00
1E3E00
0C0C00
000000
000000
F807C0
F80F80
F80F80
7C0F80
7C1F00
3E1F00
3E1E00
1E3E00
1F3C00
0F3C00
0FFC00
07F800
07F000
03F000
03E000
03E000
03E000
03E000
03E000
03E000
03E000
03E000
03E000
03E000
ENDCHAR
STARTCHAR 03AC
ENCODING 940
SWIDTH 488 0
DWIDTH 19 0
BBX 17 28 2 0
BITMAP
00C000
00F000
01F000
03E000
03C000
078000
038000
010000
000000
01E000
0FFE00
3FFE00
7FFE00
7F3E00
FC3E00
F83E00
F83E00
F83E00
F03E00
F03E00
F83E00
F83E00
F83E00
FC3E00
7FFF80
7FFF80
3FFF00
1FC700
ENDCHAR
STARTCHAR 03AD
ENCODING 941
SWIDTH 488 0
DWIDTH 19 0
BBX 15 29 2 -1
BITMAP
0060
00F0
01F0
01E0
03E0
07C0
0380
0100
0000
03F0
1FFE
3FFE
7FFC
7F7C
7C00
7C00
3C00
3FF0
1FF0
3FF0
7FF0
7800
F800
7802
7FFE
7FFE
3FFE
1FFE
0080
ENDCHAR
STARTCHAR 03AE
ENCODING 942
SWIDTH 488 0
DWIDTH 19 0
BBX 15 34 2 -6
BITMAP
00C0
00F0
01F0
03E0
03C0
0780
0380
0100
0000
07C0
FFF0
FFF8
FFFC
FFFE
F83E
F83E
F83E
F83E
F83E
F83E
F83E
F83E
F83E
F83E
F83E
F83E
F83E
F83E
003E
003E
003E
003E
003E
003E
ENDCHAR
STARTCHAR 03AF
ENCODING 943
SWIDTH 488 0
DWIDTH 19 0
BBX 17 28 1 0
BITMAP
00C000
00F000
01F000
03E000
03C000
078000
038000
010000
000000
000000
FFC000
FFC000
FFC000
FFC000
07C000
07C000
07C000
07C000
07C000
07C000
07C000
07C000
03E000
03E180
03FF80
03FF80
01FF80
00FF80
ENDCHAR
STARTCHAR 03B0
ENCODING 944
SWIDTH 488 0
DWIDTH 19 0
BBX 17 29 1 -1
BITMAP
006000
00F000
78E700
79EF80
FDCF80
79CF80
7B8700
018000
000000
000000
7C0F00
7C0F00
7C0F00
7C0F00
7C0F00
7C0F00
7C0F00
7C0F00
7C0F00
7C0F00
7C1F00
7C1F00
7C1F00
7E3F00
3FFF00
3FFE00
1FFE00
0FF800
008000
ENDCHAR
STARTCHAR 03B1
ENCODING 945
SWIDTH 488 0
DWIDTH 19 0
BBX 17 19 2 0
BITMAP
01E000
0FFE00
3FFE00
7FFE00
7F3E00
FC3E00
F83E00
F83E00
F83E00
F03E00
F03E00
F83E00
F83E00
F83E00
FC3E00
7FFF80
7FFF80
3FFF00
1FC700
ENDCHAR
STARTCHAR 03B2
ENCODING 946
SWIDTH 488 0
DWIDTH 19 0
BBX 16 33 2 -6
BITMAP
07C0
1FF0
3FF8
7FFC
7C7C
F83E
F83E
F83E
F83C
F87C
F87C
F9F8
F9F8
F9FC
F9FE
F83F
F81F
F81F
F80F
F80F
F81F
F81F
F83F
FFFF
FFFE
FFFC
FFF8
F800
F800
F800
F800
F800
F800
ENDCHAR
STARTCHAR 03B3
ENCODING 947
SWIDTH 488 0
DWIDTH 19 0
BBX 18 24 1 -6
BITMAP
F807C0
F80780
7C0F80
7C0F80
7C0F80
3E1F00
3E1F00
3E1E00
1E3E00
1F3E00
1F7C00
0F7C00
0FF800
0FF800
0FF000
07F000
07E000
07E000
03C000
03E000
03E000
03E000
03E000
03E000
ENDCHAR
STARTCHAR 03B4
ENCODING 948
SWIDTH 488 0
DWIDTH 19 0
BBX 17 28 1 -1
BITMAP
01F800
07FF00
0FFF00
1FFE00
1F0600
1F0000
1F0000
1F8000
0FC000
07F000
07F800
0FFC00
1F7E00
3E3F00
7C1F80
7C0F80
F80F80
F80F80
F80F80
F80F80
F80F80
7C0F80
7E1F80
7FFF00
3FFE00
1FFE00
0FF800
008000
ENDCHAR
STARTCHAR 03B5
ENCODING 949
SWIDTH 488 0
DWIDTH 19 0
BBX 15 20 2 -1
BITMAP
03F0
1FFE
3FFE
7FFC
7F7C
7C00
7C00
3C00
3FF0
1FF0
3FF0
7FF0
7800
F800
7802
7FFE
7FFE
3FFE
1FFE
0080
ENDCHAR
STARTCHAR 03B6
ENCODING 950
SWIDTH 488 0
DWIDTH 19 0
BBX 16 33 2 -7
BITMAP
7FFE
7FFE
7FFE
7FFE
00FC
01F8
03F0
03E0
07C0
0F80
1F00
3E00
3E00
7C00
7C00
7800
F800
F800
F800
F800
FC00
FE00
7F80
3FF0
1FFC
0FFE
01FF
003F
001F
001F
001F
001E
001E
ENDCHAR
STARTCHAR 03B7
ENCODING 951
SWIDTH 488 0
DWIDTH 19 0
BBX 15 25 2 -6
BITMAP
07C0
FFF0
FFF8
FFFC
FFFE
F83E
F83E
F83E
F83E
F83E
F83E
F83E
F83E
F83E
F83E
F83E
F83E
F83E
F83E
003E
003E
003E
003E
003E
003E
ENDCHAR
STARTCHAR 03B8
ENCODING 952
SWIDTH 488 0
DWIDTH 19 0
BBX 17 28 1 -1
BITMAP
03E000
0FF800
1FFC00
3FFE00
3E3F00
7C1F00
7C0F00
780F80
780F80
F80F80
F80F80
F80F80
FFFF80
FFFF80
FFFF80
FFFF80
F80F80
F80F80
780F80
780F80
7C0F00
7C1F00
3E1F00
3FFE00
1FFE00
0FFC00
07F000
008000
ENDCHAR
STARTCHAR 03B9
ENCODING 953
SWIDTH 488 0
DWIDTH 19 0
BBX 17 18 1 0
BITMAP
FFC000
FFC000
FFC000
FFC000
07C000
07C000
07C000
07C000
07C000
07C000
07C000
07C000
03E000
03E180
03FF80
03FF80
01FF80
00FF80
ENDCHAR
STARTCHAR 03BA
ENCODING 954
SWIDTH 488 0
DWIDTH 19 0
BBX 17 18 2 0
BITMAP
F83F00
F87E00
F87C00
F8F800
F9F000
FBE000
FBC000
FF8000
FFC000
FFE000
FBF000
F9F800
F8F800
F87C00
F87E00
F83E00
F81F00
F81F80
ENDCHAR
STARTCHAR 03BB
ENCODING 955
SWIDTH 488 0
DWIDTH 19 0
BBX 17 27 1 0
BITMAP
7C0000
7F0000
7F8000
7F8000
0FC000
07C000
03E000
03E000
01F000
01F000
03F800
03F800
07F800
07FC00
0FFC00
0FFC00
1F7E00
1F3E00
1F3E00
3E3E00
3E3F00
7E1F00
7C1F00
7C1F80
FC1F80
F80F80
F80F80
ENDCHAR
STARTCHAR 03BC
ENCODING 956
SWIDTH 488 0
DWIDTH 19 0
BBX 15 24 2 -6
BITMAP
F83E
F83E
F83E
F83E
F83E
F83E
F83E
F83E
F83E
F83E
F83E
F83E
F83E
FC3E
FFFE
FFFE
FFFE
FFFE
F800
F800
F800
F800
F800
F800
ENDCHAR
STARTCHAR 03BD
ENCODING 957
SWIDTH 488 0
DWIDTH 19 0
BBX 18 18 1 0
BITMAP
F807C0
F80780
F80F80
7C0F80
7C0F00
7C1F00
3E1F00
3E3E00
3E3E00
1F3C00
1F7C00
0F7C00
0FF800
0FF800
07F000
07F000
03E000
03E000
ENDCHAR
STARTCHAR 03BE
ENCODING 958
SWIDTH 488 0
DWIDTH 19 0
BBX 16 33 2 -7
BITMAP
03FC
0FFF
1FFE
3FFE
3F02
7E00
7C00
7C00
3C00
3E00
3F00
1FFC
0FFC
1FFC
3FFC
7E00
FC00
F800
F800
F800
F800
FC00
7F00
7FF0
3FFC
0FFE
01FF
003F
001F
001F
001F
001E
001E
ENDCHAR
STARTCHAR 03BF
ENCODING 959
SWIDTH 488 0
DWIDTH 19 0
BBX 17 20 1 -1
BITMAP
01E000
0FF800
1FFE00
3FFE00
7F7F00
7C1F80
7C0F80
F80F80
F80F80
F80F80
F80F80
F80F80
F80F80
7C0F80
7C1F00
3FFF00
3FFE00
1FFC00
07F800
008000
ENDCHAR
STARTCHAR 03C0
ENCODING 960
SWIDTH 488 0
DWIDTH 19 0
BBX 15 18 2 0
BITMAP
FFFE
FFFE
FFFE
FFFE
F83E
F83E
F83E
F83E
F83E
F83E
F83E
F83E
F83E
F83E
F83E
F83E
F83E
F83E
ENDCHAR
STARTCHAR 03C1
ENCODING 961
SWIDTH 488 0
DWIDTH 19 0
BBX 16 25 2 -6
BITMAP
03C0
0FF8
3FFC
3FFE
7F7E
7C3F
7C1F
F81F
F81F
F81F
F81F
F81F
F81F
F81F
F83F
FFFE
FFFC
FFFC
FFF0
F800
F800
F800
F800
F800
F800
ENDCHAR
STARTCHAR 03C2
ENCODING 962
SWIDTH 488 0
DWIDTH 19 0
BBX 16 25 2 -7
BITMAP
00F8
07FF
1FFF
3FFE
7F8E
7E00
FC00
F800
F800
F800
F800
F800
F800
FC00
7F00
7FF0
1FFC
0FFE
01FF
003F
001F
001F
001F
001E
001E
ENDCHAR
STARTCHAR 03C3
ENCODING 963
SWIDTH 488 0
DWIDTH 19 0
BBX 18 19 1 -1
BITMAP
07FFC0
1FFFC0
3FFFC0
7FFFC0
7E3E00
7C1F00
F81F00
F80F00
F80F00
F80F80
F80F80
F81F00
7C1F00
7C3F00
7FFE00
3FFE00
1FFC00
0FF000
008000
ENDCHAR
STARTCHAR 03C4
ENCODING 964
SWIDTH 488 0
DWIDTH 19 0
BBX 18 18 1 0
BITMAP
FFFF80
FFFF80
FFFF80
FFFF80
0F8000
0F8000
0F8000
0F8000
0F8000
0F8000
0F8000
0F8000
078000
07C080
07FF80
07FF80
03FFC0
01FF80
ENDCHAR
STARTCHAR 03C5
ENCODING 965
SWIDTH 488 0
DWIDTH 19 0
BBX 15 19 2 -1
BITMAP
F81E
F81E
F81E
F81E
F81E
F81E
F81E
F81E
F81E
F81E
F83E
F83E
F83E
FC7E
7FFE
7FFC
3FFC
1FF0
0100
ENDCHAR
STARTCHAR 03C6
ENCODING 966
SWIDTH 488 0
DWIDTH 19 0
BBX 17 24 1 -6
BITMAP
0FF800
1FFE00
3FFF00
7DFF00
79E780
F1E780
F1E780
F1E380
F1E380
F1E380
F1E380
F1E780
F1E780
79EF80
7FFF00
3FFF00
1FFE00
0FF800
01E000
01E000
01E000
01E000
01E000
01E000
ENDCHAR
STARTCHAR 03C7
ENCODING 967
SWIDTH 488 0
DWIDTH 19 0
BBX 17 18 1 0
BITMAP
F80F80
7C1F00
3E1F00
1E3E00
1F7C00
0FFC00
07F800
07F000
03F000
03F000
07F800
0FFC00
1F7C00
1E3E00
3E1F00
7C1F00
780F80
F80F80
ENDCHAR
STARTCHAR 03C8
ENCODING 968
SWIDTH 488 0
DWIDTH 19 0
BBX 17 24 1 -6
BITMAP
F00380
F00380
F00380
F00380
F1E380
F1E380
F1E380
F1E380
F1E380
F1E380
F1E380
F1E380
F1E780
71E780
79EF00
7FFF00
3FFE00
0FFC00
01E000
01E000
01E000
01E000
01E000
01E000
ENDCHAR
STARTCHAR 03C9
ENCODING 969
SWIDTH 488 0
DWIDTH 19 0
BBX 18 19 1 0
BITMAP
100000
1C1E00
3C1E00
3C0F00
780F00
780780
780780
F00780
F1E780
F1E780
F1E7C0
F1E7C0
F1E7C0
F1E780
FBE780
7FFF80
7FFF80
7F7F00
3E3E00
ENDCHAR
STARTCHAR 03CA
ENCODING 970
SWIDTH 488 0
DWIDTH 19 0
BBX 17 26 1 0
BITMAP
1E1E00
3E3E00
3F3E00
3E3E00
1E1C00
000000
000000
000000
FFC000
FFC000
FFC000
FFC000
07C000
07C000
07C000
07C000
07C000
07C000
07C000
07C000
03E000
03E180
03FF80
03FF80
01FF80
00FF80
ENDCHAR
STARTCHAR 03CB
ENCODING 971
SWIDTH 488 0
DWIDTH 19 0
BBX 15 27 2 -1
BITMAP
3C3C
7C7C
7E7C
7C7C
3C38
0000
0000
0000
F81E
F81E
F81E
F81E
F81E
F81E
F81E
F81E
F81E
F81E
F83E
F83E
F83E
FC7E
7FFE
7FFC
3FFC
1FF0
0100
ENDCHAR
STARTCHAR 03CC
ENCODING 972
SWIDTH 488 0
DWIDTH 19 0
BBX 17 29 1 -1
BITMAP
006000
007800
00F800
01F000
01E000
03C000
01C000
008000
000000
01E000
0FF800
1FFE00
3FFE00
7F7F00
7C1F80
7C0F80
F80F80
F80F80
F80F80
F80F80
F80F80
F80F80
7C0F80
7C1F00
3FFF00
3FFE00
1FFC00
07F800
008000
ENDCHAR
STARTCHAR 03CD
ENCODING 973
SWIDTH 488 0
DWIDTH 19 0
BBX 15 29 2 -1
BITMAP
00C0
01E0
01F0
03E0
07C0
0780
0700
0000
0000
0000
F81E
F81E
F81E
F81E
F81E
F81E
F81E
F81E
F81E
F81E
F83E
F83E
F83E
FC7E
7FFE
7FFC
3FFC
1FF0
0100
ENDCHAR
STARTCHAR 03CE
ENCODING 974
SWIDTH 488 0
DWIDTH 19 0
BBX 18 28 1 0
BITMAP
006000
00F000
00F800
01F000
03E000
03C000
038000
000000
000000
100000
1C1E00
3C1E00
3C0F00
780F00
780780
780780
F00780
F1E780
F1E780
F1E7C0
F1E7C0
F1E7C0
F1E780
FBE780
7FFF80
7FFF80
7F7F00
3E3E00
ENDCHAR
STARTCHAR 0400
ENCODING 1024
SWIDTH 488 0
DWIDTH 19 0
BBX 16 32 2 0
BITMAP
0200
0780
0FC0
0FF0
03F0
00E0
0020
0000
FFFE
FFFE
FFFE
FFFE
F800
F800
F800
F800
F800
FFFC
FFFC
FFFC
FFFC
F800
F800
F800
F800
F800
F800
F800
FFFF
FFFF
FFFF
FFFF
ENDCHAR
STARTCHAR 0401
ENCODING 1025
SWIDTH 488 0
DWIDTH 19 0
BBX 16 32 2 0
BITMAP
1010
3C7C
7E7C
7E7C
3C7C
1818
0000
0000
FFFE
FFFE
FFFE
FFFE
F800
F800
F800
F800
F800
FFFC
FFFC
FFFC
FFFC
F800
F800
F800
F800
F800
F800
F800
FFFF
FFFF
FFFF
FFFF
ENDCHAR
STARTCHAR 0402
ENCODING 1026
SWIDTH 488 0
DWIDTH 19 0
BBX 18 24 1 0
BITMAP
FFFC00
FFFC00
FFFC00
FFFC00
1F0000
1F0000
1F0000
1F0000
1F0000
1FFC00
1FFE00
1FFF00
1FFF80
1F0F80
1F07C0
1F07C0
1F07C0
1F07C0
1F07C0
1F07C0
1F3F80
1F3F80
1F3F00
1F3E00
ENDCHAR
STARTCHAR 0403
ENCODING 1027
SWIDTH 488 0
DWIDTH 19 0
BBX 18 32 1 0
BITMAP
000C00
001C00
007E00
00FE00
01F800
00E000
000000
000000
0FFFC0
0FFFC0
0FFFC0
0FFFC0
0F8000
0F8000
0F8000
0F8000
0F8000
0F8000
0F8000
0F8000
0F8000
0F8000
0F8000
0F8000
0F8000
0F8000
0F8000
0F8000
FFFC00
FFFC00
FFFC00
FFFC00
ENDCHAR
STARTCHAR 0404
ENCODING 1028
SWIDTH 488 0
DWIDTH 19 0
BBX 17 26 1 -1
BITMAP
003000
03FF00
0FFF80
1FFF80
3FFF00
3F0100
7E0000
7C0000
780000
F80000
F80000
FFF800
FFF800
FFF800
FFF800
F80000
F80000
F80000
7C0000
7E0000
3F0100
3FFF00
1FFF80
0FFF80
03FF00
002000
ENDCHAR
STARTCHAR 0405
ENCODING 1029
SWIDTH 488 0
DWIDTH 19 0
BBX 16 26 2 -1
BITMAP
01C0
1FFC
3FFE
7FFC
FE7C
F800
F800
F800
F800
FC00
7F80
7FE0
3FF8
0FFC
03FE
007E
003F
001F
001F
001F
403F
FFFE
FFFE
FFFC
7FF0
0300
ENDCHAR
STARTCHAR 0406
ENCODING 1030
SWIDTH 488 0
DWIDTH 19 0
BBX 15 24 2 0
BITMAP
FFFE
FFFE
FFFE
FFFE
07C0
07C0
07C0
07C0
07C0
07C0
07C0
07C0
07C0
07C0
07C0
07C0
07C0
07C0
07C0
07C0
FFFE
FFFE
FFFE
FFFE
ENDCHAR
STARTCHAR 0407
ENCODING 1031
SWIDTH 488 0
DWIDTH 19 0
BBX 15 32 2 0
BITMAP
1010
3C7C
7E7C
7E7C
3C7C
1818
0000
0000
FFFE
FFFE
FFFE
FFFE
07C0
07C0
07C0
07C0
07C0
07C0
07C0
07C0
07C0
07C0
07C0
07C0
07C0
07C0
07C0
07C0
FFFE
FFFE
FFFE
FFFE
ENDCHAR
STARTCHAR 0408
ENCODING 1032
SWIDTH 488 0
DWIDTH 19 0
BBX 15 25 2 -1
BITMAP
3FFE
3FFE
3FFE
3FFE
003E
003E
003E
003E
003E
003E
003E
003E
003E
003E
003E
003E
003E
003E
003E
607E
7FFC
FFFC
FFF8
7FE0
0200
ENDCHAR
STARTCHAR 0409
ENCODING 1033
SWIDTH 488 0
DWIDTH 19 0
BBX 19 24 0 0
BITMAP
1FF000
1FF000
1FF000
1CF000
1CF000
1CF000
1CF000
1CF000
1CF800
1CFF00
1CFF80
1CFFC0
1CF3C0
1CF1C0
1CF1E0
1CF1E0
1CF1E0
3CF1E0
3CF1E0
3CF3C0
78F3C0
F8FFC0
F0FF80
60FF00
ENDCHAR
STARTCHAR 040A
ENCODING 1034
SWIDTH 488 0
DWIDTH 19 0
BBX 17 24 2 0
BITMAP
E3C000
E3C000
E3C000
E3C000
E3C000
E3C000
E3C000
E3C000
E3E000
FFFC00
FFFE00
FFFF00
E3CF00
E3C700
E3C780
E3C780
E3C780
E3C780
E3C780
E3CF00
E3CF00
E3FF00
E3FE00
E3FC00
ENDCHAR
STARTCHAR 040B
ENCODING 1035
SWIDTH 488 0
DWIDTH 19 0
BBX 17 24 1 0
BITMAP
FFFC00
FFFC00
FFFC00
FFFC00
1F0000
1F0000
1F0000
1F0000
1F0000
1FFC00
1FFE00
1FFF00
1FFF00
1F1F00
1F0F80
1F0F80
1F0F80
1F0F80
1F0F80
1F0F80
1F0F80
1F0F80
1F0F80
1F0F80
ENDCHAR
STARTCHAR 040C
ENCODING 1036
SWIDTH 488 0
DWIDTH 19 0
BBX 17 32 2 0
BITMAP
006000
00E000
03F000
07F000
0FC000
070000
000000
000000
F81F00
F83E00
F87E00
F87C00
F8FC00
F8F800
F9F000
FBF000
FBE000
FFC000
FF8000
FF8000
FFC000
FFE000
FBF000
F9F800
F8F800
F8FC00
F87E00
F83E00
F83F00
F81F00
F81F00
F81F80
ENDCHAR
STARTCHAR 040D
ENCODING 1037
SWIDTH 488 0
DWIDTH 19 0
BBX 16 32 2 0
BITMAP
0200
0780
0FC0
0FF0
03F0
00E0
0020
0000
F01F
F01F
F03F
F03F
F07F
F07F
F0FF
F0FF
F1FF
F1FF
F3DF
F39F
F79F
F71F
FF1F
FE1F
FE1F
FC1F
FC1F
FC1F
F81F
F81F
F01F
F01F
ENDCHAR
STARTCHAR 040E
ENCODING 1038
SWIDTH 488 0
DWIDTH 19 0
BBX 19 33 0 -1
BITMAP
060C00
0F0F00
0FFE00
07FE00
03FC00
00F000
000000
000000
FC03E0
7C07E0
7E07C0
3E07C0
3E0FC0
1F0F80
1F0F80
0F8F80
0F9F00
07DF00
07DF00
03FE00
03FE00
01FE00
00FC00
00FC00
007800
00F800
00F800
01F000
3FF000
3FE000
7FC000
7F8000
040000
ENDCHAR
STARTCHAR 040F
ENCODING 1039
SWIDTH 488 0
DWIDTH 19 0
BBX 16 30 2 -6
BITMAP
F81F
F81F
F81F
F81F
F81F
F81F
F81F
F81F
F81F
F81F
F81F
F81F
F81F
F81F
F81F
F81F
F81F
F81F
F81F
F81F
FFFF
FFFF
FFFF
FFFF
07C0
07C0
07C0
07C0
07C0
07C0
ENDCHAR
STARTCHAR 0410
ENCODING 1040
SWIDTH 488 0
DWIDTH 19 0
BBX 19 24 0 0
BITMAP
01F800
01F800
03F800
03FC00
03FC00
07BC00
07BC00
07BE00
079E00
0F1E00
0F1F00
0F1F00
1F0F00
1F0F00
1FFF80
1FFF80
3FFF80
3FFFC0
3C07C0
7C07C0
7C07C0
7C07E0
7C03E0
F803E0
ENDCHAR
STARTCHAR 0411
ENCODING 1041
SWIDTH 488 0
DWIDTH 19 0
BBX 16 24 2 0
BITMAP
FFFC
FFFC
FFFC
FFFC
F800
F800
F800
F800
FE00
FFF0
FFFC
FFFE
FFFE
F83F
F81F
F81F
F80F
F81F
F81F
F83F
FFFE
FFFE
FFFC
FFF0
ENDCHAR
STARTCHAR 0412
ENCODING 1042
SWIDTH 488 0
DWIDTH 19 0
BBX 16 24 2 0
BITMAP
FFF0
FFF8
FFFC
FFFE
F83E
F83E
F83E
F83E
F83E
FFFC
FFF8
FFF8
FFFE
F8FE
F81F
F81F
F80F
F81F
F81F
F83F
FFFE
FFFE
FFFC
FFF0
ENDCHAR
STARTCHAR 0413
ENCODING 1043
SWIDTH 488 0
DWIDTH 19 0
BBX 18 24 1 0
BITMAP
0FFFC0
0FFFC0
0FFFC0
0FFFC0
0F8000
0F8000
0F8000
0F8000
0F8000
0F8000
0F8000
0F8000
0F8000
0F8000
0F8000
0F8000
0F8000
0F8000
0F8000
0F8000
FFFC00
FFFC00
FFFC00
FFFC00
ENDCHAR
STARTCHAR 0414
ENCODING 1044
SWIDTH 488 0
DWIDTH 19 0
BBX 18 30 1 -6
BITMAP
0FFF00
0FFF00
0FFF00
0FFF00
0F0F00
0F0F00
0F0F00
0F0F00
0F0F00
0F0F00
1F0F00
1F0F00
1E0F00
1E0F00
1E0F00
1E0F00
3E0F00
3C0F00
3C0F00
7C0F00
FFFFC0
FFFFC0
FFFFC0
FFFFC0
F007C0
F007C0
F007C0
F007C0
F007C0
F007C0
ENDCHAR
STARTCHAR 0415
ENCODING 1045
SWIDTH 488 0
DWIDTH 19 0
BBX 16 24 2 0
BITMAP
FFFE
FFFE
FFFE
FFFE
F800
F800
F800
F800
F800
FFFC
FFFC
FFFC
FFFC
F800
F800
F800
F800
F800
F800
F800
FFFF
FFFF
FFFF
FFFF
ENDCHAR
STARTCHAR 0416
ENCODING 1046
SWIDTH 488 0
DWIDTH 19 0
BBX 19 24 0 0
BITMAP
78F1E0
78F1E0
78F3C0
38F3C0
3CF380
1CF780
1EF700
0EF700
0EFE00
07FE00
07FC00
07FC00
07FE00
0EFE00
1EFF00
1EF700
1CF780
3CF380
3CF3C0
78F3C0
78F3C0
78F1E0
78F1E0
F0F1E0
ENDCHAR
STARTCHAR 0417
ENCODING 1047
SWIDTH 488 0
DWIDTH 19 0
BBX 18 26 1 -1
BITMAP
03C000
3FF800
7FFE00
7FFF00
3FFF00
301F00
000F80
000F80
000F00
001F00
00FE00
0FFC00
0FFC00
0FFF00
0FFF00
000F80
000F80
0007C0
0007C0
000FC0
601F80
7FFF80
FFFF00
FFFE00
3FFC00
010000
ENDCHAR
STARTCHAR 0418
ENCODING 1048
SWIDTH 488 0
DWIDTH 19 0
BBX 16 24 2 0
BITMAP
F01F
F01F
F03F
F03F
F07F
F07F
F0FF
F0FF
F1FF
F1FF
F3DF
F39F
F79F
F71F
FF1F
FE1F
FE1F
FC1F
FC1F
FC1F
F81F
F81F
F01F
F01F
ENDCHAR
STARTCHAR 0419
ENCODING 1049
SWIDTH 488 0
DWIDTH 19 0
BBX 16 32 2 0
BITMAP
1830
3C3C
3FF8
1FF8
0FF0
07C0
0000
0000
F01F
F01F
F03F
F03F
F07F
F07F
F0FF
F0FF
F1FF
F1FF
F3DF
F39F
F79F
F71F
FF1F
FE1F
FE1F
FC1F
FC1F
FC1F
F81F
F81F
F01F
F01F
ENDCHAR
STARTCHAR 041A
ENCODING 1050
SWIDTH 488 0
DWIDTH 19 0
BBX 17 24 2 0
BITMAP
F81F00
F83E00
F87E00
F87C00
F8FC00
F8F800
F9F000
FBF000
FBE000
FFC000
FF8000
FF8000
FFC000
FFE000
FBF000
F9F800
F8F800
F8FC00
F87E00
F83E00
F83F00
F81F00
F81F00
F81F80
ENDCHAR
STARTCHAR 041B
ENCODING 1051
SWIDTH 488 0
DWIDTH 19 0
BBX 18 24 0 -1
BITMAP
07FFC0
07FFC0
07FFC0
07FFC0
07C7C0
07C7C0
07C7C0
07C7C0
07C7C0
07C7C0
0787C0
0787C0
0787C0
0787C0
0F87C0
0F87C0
0F87C0
0F07C0
1F07C0
3F07C0
FE07C0
FC07C0
7C07C0
7007C0
ENDCHAR
STARTCHAR 041C
ENCODING 1052
SWIDTH 488 0
DWIDTH 19 0
BBX 18 24 1 0
BITMAP
780F00
7C0F00
7C1F00
7C1F00
7E1F00
7E3F80
7E3F80
773F80
777780
777780
F3F780
F3F780
F3E780
F3E780
F1E780
F00780
F00780
F00780
F00780
F00780
F00780
F00780
F007C0
F007C0
ENDCHAR
STARTCHAR 041D
ENCODING 1053
SWIDTH 488 0
DWIDTH 19 0
BBX 16 24 2 0
BITMAP
F81F
F81F
F81F
F81F
F81F
F81F
F81F
F81F
F81F
FFFF
FFFF
FFFF
FFFF
F81F
F81F
F81F
F81F
F81F
F81F
F81F
F81F
F81F
F81F
F81F
ENDCHAR
STARTCHAR 041E
ENCODING 1054
SWIDTH 488 0
DWIDTH 19 0
BBX 17 26 1 -1
BITMAP
00C000
0FF800
1FFC00
3FFE00
3FFF00
7C1F00
7C0F80
780F80
F80F80
F80F80
F80F80
F80F80
F80780
F80780
F80F80
F80F80
F80F80
F80F80
780F80
7C0F80
7E1F00
3FFF00
3FFE00
1FFC00
07F800
008000
ENDCHAR
STARTCHAR 041F
ENCODING 1055
SWIDTH 488 0
DWIDTH 19 0
BBX 16 24 2 0
BITMAP
FFFF
FFFF
FFFF
FFFF
F81F
F81F
F81F
F81F
F81F
F81F
F81F
F81F
F81F
F81F
F81F
F81F
F81F
F81F
F81F
F81F
F81F
F81F
F81F
F81F
ENDCHAR
STARTCHAR 0420
ENCODING 1056
SWIDTH 488 0
DWIDTH 19 0
BBX 16 24 2 0
BITMAP
FFF0
FFFC
FFFE
FFFE
F83F
F81F
F81F
F81F
F81F
F81F
F81F
F87F
FFFE
FFFC
FFF8
FFC0
F800
F800
F800
F800
F800
F800
F800
F800
ENDCHAR
STARTCHAR 0421
ENCODING 1057
SWIDTH 488 0
DWIDTH 19 0
BBX 17 26 1 -1
BITMAP
003000
03FF00
0FFF80
1FFF80
3FFF00
3F0100
7E0000
7C0000
7C0000
F80000
F80000
F80000
F80000
F80000
F80000
F80000
F80000
FC0000
7C0000
7E0000
3F0100
3FFF00
1FFF80
0FFF80
03FF00
002000
ENDCHAR
STARTCHAR 0422
ENCODING 1058
SWIDTH 488 0
DWIDTH 19 0
BBX 17 24 1 0
BITMAP
FFFF80
FFFF80
FFFF80
FFFF80
03E000
03E000
03E000
03E000
03E000
03E000
03E000
03E000
03E000
03E000
03E000
03E000
03E000
03E000
03E000
03E000
03E000
03E000
03E000
03E000
ENDCHAR
STARTCHAR 0423
ENCODING 1059
SWIDTH 488 0
DWIDTH 19 0
BBX 19 25 0 -1
BITMAP
FC03E0
7C07E0
7E07C0
3E07C0
3E0FC0
1F0F80
1F0F80
0F8F80
0F9F00
07DF00
07DF00
03FE00
03FE00
01FE00
00FC00
00FC00
007800
00F800
00F800
01F000
3FF000
3FE000
7FC000
7F8000
040000
ENDCHAR
STARTCHAR 0424
ENCODING 1060
SWIDTH 488 0
DWIDTH 19 0
BBX 17 26 1 0
BITMAP
01E000
01E000
01E000
07F800
1FFC00
3FFE00
7FFF00
79EF80
79E780
F1E780
F1E780
F1E380
F1E380
F1E380
F1E380
F1E780
F1E780
F1E780
79EF80
7DFF00
3FFE00
1FFE00
0FF800
01E000
01E000
01E000
ENDCHAR
STARTCHAR 0425
ENCODING 1061
SWIDTH 488 0
DWIDTH 19 0
BBX 18 24 1 0
BITMAP
F80F80
7C0F80
7C1F00
3E1F00
3E3E00
1F3E00
1F7C00
0FFC00
07F800
07F000
03F000
03F000
07F000
07F800
0FF800
0F7C00
1F3E00
1F3E00
3E1F00
3E1F00
7C1F80
7C0F80
F80F80
F807C0
ENDCHAR
STARTCHAR 0426
ENCODING 1062
SWIDTH 488 0
DWIDTH 19 0
BBX 16 30 2 -6
BITMAP
F83E
F83E
F83E
F83E
F83E
F83E
F83E
F83E
F83E
F83E
F83E
F83E
F83E
F83E
F83E
F83E
F83E
F83E
F83E
F83E
FFFF
FFFF
FFFF
FFFF
000F
000F
000F
000F
000F
000F
ENDCHAR
STARTCHAR 0427
ENCODING 1063
SWIDTH 488 0
DWIDTH 19 0
BBX 16 24 2 0
BITMAP
F81F
F81F
F81F
F81F
F81F
F81F
F81F
F81F
F81F
F81F
F81F
FC1F
7FFF
7FFF
3FFF
1FFF
001F
001F
001F
001F
001F
001F
001F
001F
ENDCHAR
STARTCHAR 0428
ENCODING 1064
SWIDTH 488 0
DWIDTH 19 0
BBX 18 24 1 0
BITMAP
F003C0
F003C0
F003C0
F003C0
F003C0
F003C0
F003C0
F003C0
F003C0
F1E3C0
F1E3C0
F1E3C0
F1E3C0
F1E3C0
F1E3C0
F1E3C0
F1E3C0
F1E3C0
F1E3C0
F1E3C0
FFFFC0
FFFFC0
FFFFC0
FFFFC0
ENDCHAR
STARTCHAR 0429
ENCODING 1065
SWIDTH 488 0
DWIDTH 19 0
BBX 18 30 1 -6
BITMAP
F00780
F00780
F00780
F00780
F00780
F00780
F00780
F00780
F00780
F3C780
F3C780
F3C780
F3C780
F3C780
F3C780
F3C780
F3C780
F3C780
F3C780
F3C780
FFFFC0
FFFFC0
FFFFC0
FFFFC0
0003C0
0003C0
0003C0
0003C0
0003C0
0003C0
ENDCHAR
STARTCHAR 042A
ENCODING 1066
SWIDTH 488 0
DWIDTH 19 0
BBX 17 24 1 0
BITMAP
FF0000
FF0000
FF0000
FF0000
1F0000
1F0000
1F0000
1F0000
1FE000
1FFC00
1FFE00
1FFF00
1F3F80
1F0F80
1F0F80
1F0F80
1F0F80
1F0F80
1F0F80
1F1F80
1FFF00
1FFF00
1FFE00
1FF800
ENDCHAR
STARTCHAR 042B
ENCODING 1067
SWIDTH 488 0
DWIDTH 19 0
BBX 17 24 1 0
BITMAP
F00780
F00780
F00780
F00780
F00780
F00780
F00780
F00780
FF0780
FFC780
FFE780
FFE780
F1E780
F0F780
F0F780
F0F780
F0F780
F0F780
F0F780
F1F780
FFE780
FFE780
FFC780
FF8780
ENDCHAR
STARTCHAR 042C
ENCODING 1068
SWIDTH 488 0
DWIDTH 19 0
BBX 16 24 2 0
BITMAP
F800
F800
F800
F800
F800
F800
F800
F800
FF80
FFF8
FFFC
FFFE
F8FF
F83F
F81F
F81F
F81F
F81F
F81F
F87F
FFFE
FFFC
FFF8
FFE0
ENDCHAR
STARTCHAR 042D
ENCODING 1069
SWIDTH 488 0
DWIDTH 19 0
BBX 17 26 2 -1
BITMAP
070000
7FE000
FFF800
FFFC00
7FFE00
403E00
001F00
001F00
001F00
000F80
000F80
0FFF80
0FFF80
0FFF80
0FFF80
000F80
000F80
001F00
001F00
003F00
407E00
FFFC00
FFFC00
FFF800
7FE000
060000
ENDCHAR
STARTCHAR 042E
ENCODING 1070
SWIDTH 488 0
DWIDTH 19 0
BBX 17 26 1 -1
BITMAP
001800
F07E00
F0FF00
F1FF00
F1FF80
F1E780
F1C780
F1C380
F3C380
F3C380
FFC380
FFC380
FFC380
FFC380
F3C380
F3C380
F3C380
F3C380
F1C380
F1C780
F1E780
F1FF80
F1FF00
F0FF00
F07E00
001000
ENDCHAR
STARTCHAR 042F
ENCODING 1071
SWIDTH 488 0
DWIDTH 19 0
BBX 17 24 1 0
BITMAP
03FF80
0FFF80
1FFF80
3FFF80
3F0F80
3E0F80
7C0F80
7C0F80
7C0F80
3E0F80
3F0F80
3FFF80
1FFF80
0FFF80
07FF80
0F8F80
1F8F80
1F0F80
3E0F80
3E0F80
7C0F80
7C0F80
F80F80
F80F80
ENDCHAR
STARTCHAR 0430
ENCODING 1072
SWIDTH 488 0
DWIDTH 19 0
BBX 15 19 2 0
BITMAP
0FC0
7FF8
3FFC
3FFC
30FE
003E
003E
001E
1FFE
7FFE
FFFE
FC1E
F81E
F01E
F81E
FE3E
FFFE
7FFE
3FFE
ENDCHAR
STARTCHAR 0431
ENCODING 1073
SWIDTH 488 0
DWIDTH 19 0
BBX 16 28 2 -1
BITMAP
0006
00FE
03FE
0FFF
1FFE
3F80
7E00
7C00
7800
F9C0
FFF8
FFFC
FFFE
FFFE
F83E
F83F
F81F
F81F
F81F
F81F
F83F
FC3F
FC7E
7FFE
7FFC
3FF8
0FF0
0100
ENDCHAR
STARTCHAR 0432
ENCODING 1074
SWIDTH 488 0
DWIDTH 19 0
BBX 15 19 3 0
BITMAP
1F00
FFF0
FFF8
FFFC
F0FC
F07C
F07C
F07C
FFF8
FFF8
FFFC
F07E
F03E
F03E
F03E
FFFE
FFFC
FFF8
FFF0
ENDCHAR
STARTCHAR 0433
ENCODING 1075
SWIDTH 488 0
DWIDTH 19 0
BBX 14 18 3 0
BITMAP
FFFC
FFFC
FFFC
FFFC
F800
F800
F800
F800
F800
F800
F800
F800
F800
F800
F800
F800
F800
F800
ENDCHAR
STARTCHAR 0434
ENCODING 1076
SWIDTH 488 0
DWIDTH 19 0
BBX 17 23 1 -5
BITMAP
0FFF00
0FFF00
0FFF00
0FFF00
0F1F00
0F1F00
0F1F00
0F1F00
1E1F00
1E1F00
1E1F00
1E1F00
3C1F00
3C1F00
FFFF80
FFFF80
FFFF80
FFFF80
F00780
F00780
F00780
F00780
F00780
ENDCHAR
STARTCHAR 0435
ENCODING 1077
SWIDTH 488 0
DWIDTH 19 0
BBX 17 19 1 0
BITMAP
01E000
0FFC00
1FFE00
3FFF00
3F3F00
7C0F80
7C0F80
F80F80
FFFF80
FFFF80
FFFF80
F80000
F80000
7C0000
7E0000
3FFF00
3FFF00
1FFF00
07FF00
ENDCHAR
STARTCHAR 0436
ENCODING 1078
SWIDTH 488 0
DWIDTH 19 0
BBX 18 18 1 0
BITMAP
F1E3C0
F1E780
79E780
79EF00
3DEE00
1DFE00
1DFC00
0FFC00
0FF800
1FFC00
1DFE00
3DFE00
3DEF00
79EF00
79E780
71E780
F1E780
F1E3C0
ENDCHAR
STARTCHAR 0437
ENCODING 1079
SWIDTH 488 0
DWIDTH 19 0
BBX 15 20 2 -1
BITMAP
0780
7FF0
7FF8
7FFC
7FFC
003C
003C
007C
1FF8
1FF0
1FFC
1FFC
003E
003E
403E
7FFE
FFFC
FFFC
7FF0
0200
ENDCHAR
STARTCHAR 0438
ENCODING 1080
SWIDTH 488 0
DWIDTH 19 0
BBX 15 18 2 0
BITMAP
F81E
F83E
F87E
F8FE
F8FE
F9FE
F9FE
FBDE
FBDE
FF9E
FF1E
FF1E
FE1E
FE1E
FC1E
FC1E
F81E
F81E
ENDCHAR
STARTCHAR 0439
ENCODING 1081
SWIDTH 488 0
DWIDTH 19 0
BBX 15 27 2 0
BITMAP
0020
3C3C
3E78
3FF8
1FF0
07E0
0000
0000
0000
F81E
F83E
F87E
F8FE
F8FE
F9FE
F9FE
FBDE
FBDE
FF9E
FF1E
FF1E
FE1E
FE1E
FC1E
FC1E
F81E
F81E
ENDCHAR
STARTCHAR 043A
ENCODING 1082
SWIDTH 488 0
DWIDTH 19 0
BBX 17 18 2 0
BITMAP
F83F00
F87E00
F87C00
F8F800
F9F000
FBF000
FFE000
FFC000
FFC000
FFE000
FBF000
F9F800
F8F800
F87C00
F87E00
F83F00
F81F00
F81F80
ENDCHAR
STARTCHAR 043B
ENCODING 1083
SWIDTH 488 0
DWIDTH 19 0
BBX 16 18 1 0
BITMAP
0FFF
0FFF
0FFF
0FFF
0F1F
0F1F
0F1F
0F1F
0F1F
0F1F
1F1F
1F1F
3E1F
3E1F
FE1F
FC1F
F81F
F01F
ENDCHAR
STARTCHAR 043C
ENCODING 1084
SWIDTH 488 0
DWIDTH 19 0
BBX 18 18 1 0
BITMAP
7C0F00
7C0F00
7C1F00
7E1F80
7E3F80
7E3F80
773F80
777F80
F77780
F3F780
F3F780
F3E780
F3E780
F1E780
F00780
F00780
F007C0
F007C0
ENDCHAR
STARTCHAR 043D
ENCODING 1085
SWIDTH 488 0
DWIDTH 19 0
BBX 15 18 2 0
BITMAP
F83E
F83E
F83E
F83E
F83E
F83E
F83E
FFFE
FFFE
FFFE
FFFE
F83E
F83E
F83E
F83E
F83E
F83E
F83E
ENDCHAR
STARTCHAR 043E
ENCODING 1086
SWIDTH 488 0
DWIDTH 19 0
BBX 17 20 1 -1
BITMAP
01E000
0FF800
1FFE00
3FFE00
7F7F00
7C1F80
7C0F80
F80F80
F80F80
F80F80
F80F80
F80F80
F80F80
7C0F80
7C1F00
3FFF00
3FFE00
1FFC00
07F800
008000
ENDCHAR
STARTCHAR 043F
ENCODING 1087
SWIDTH 488 0
DWIDTH 19 0
BBX 15 18 2 0
BITMAP
FFFE
FFFE
FFFE
FFFE
F83E
F83E
F83E
F83E
F83E
F83E
F83E
F83E
F83E
F83E
F83E
F83E
F83E
F83E
ENDCHAR
STARTCHAR 0440
ENCODING 1088
SWIDTH 488 0
DWIDTH 19 0
BBX 16 25 2 -6
BITMAP
07C0
FFF0
FFFC
FFFC
FCFE
F83F
F81F
F81F
F81F
F81F
F81F
F81F
F81F
F81F
F83F
FFFE
FFFE
FFFC
FFF8
F800
F800
F800
F800
F800
F800
ENDCHAR
STARTCHAR 0441
ENCODING 1089
SWIDTH 488 0
DWIDTH 19 0
BBX 16 19 2 0
BITMAP
01F8
0FFF
1FFE
3FFE
7FDE
7C00
F800
F800
F800
F800
F800
F800
F800
FC00
7E00
7FFF
3FFF
1FFF
07FF
ENDCHAR
STARTCHAR 0442
ENCODING 1090
SWIDTH 488 0
DWIDTH 19 0
BBX 17 18 1 0
BITMAP
FFFF80
FFFF80
FFFF80
FFFF80
03E000
03E000
03E000
03E000
03E000
03E000
03E000
03E000
03E000
03E000
03E000
03E000
03E000
03E000
ENDCHAR
STARTCHAR 0443
ENCODING 1091
SWIDTH 488 0
DWIDTH 19 0
BBX 17 25 1 -7
BITMAP
7C0F80
7C0F80
7C0F80
7C0F00
3E1F00
3E1F00
3E1E00
1F1E00
1F3E00
0F3E00
0FBC00
0FBC00
07FC00
07F800
03F800
03F000
01F000
01F000
03E000
03E000
7FC000
FFC000
FF8000
FF0000
380000
ENDCHAR
STARTCHAR 0444
ENCODING 1092
SWIDTH 488 0
DWIDTH 19 0
BBX 17 33 1 -6
BITMAP
00E000
01E000
01E000
01E000
01E000
01E000
01E000
01E000
01E000
07F800
1FFE00
3FFF00
7DFF00
79E780
F1E780
F1E780
F1E380
F1E380
F1E380
F1E380
F1E780
F1E780
79EF80
7FFF00
3FFF00
1FFE00
0FF800
01E000
01E000
01E000
01E000
01E000
01E000
ENDCHAR
STARTCHAR 0445
ENCODING 1093
SWIDTH 488 0
DWIDTH 19 0
BBX 17 18 1 0
BITMAP
F80F80
7C1F00
3E1F00
1E3E00
1F7C00
0FFC00
07F800
07F000
03F000
03F000
07F800
0FFC00
1F7C00
1E3E00
3E1F00
7C1F00
780F80
F80F80
ENDCHAR
STARTCHAR 0446
ENCODING 1094
SWIDTH 488 0
DWIDTH 19 0
BBX 16 23 2 -5
BITMAP
F83C
F83C
F83C
F83C
F83C
F83C
F83C
F83C
F83C
F83C
F83C
F83C
F83C
F83C
FFFF
FFFF
FFFF
FFFF
001F
001F
001F
001F
001F
ENDCHAR
STARTCHAR 0447
ENCODING 1095
SWIDTH 488 0
DWIDTH 19 0
BBX 15 18 2 0
BITMAP
F03E
F03E
F03E
F03E
F03E
F03E
F83E
FC3E
FFFE
7FFE
7FFE
1FFE
003E
003E
003E
003E
003E
003E
ENDCHAR
STARTCHAR 0448
ENCODING 1096
SWIDTH 488 0
DWIDTH 19 0
BBX 17 18 1 0
BITMAP
F00780
F00780
F00780
F00780
F1E780
F1E780
F1E780
F1E780
F1E780
F1E780
F1E780
F1E780
F1E780
F1E780
FFFF80
FFFF80
FFFF80
FFFF80
ENDCHAR
STARTCHAR 0449
ENCODING 1097
SWIDTH 488 0
DWIDTH 19 0
BBX 18 23 1 -5
BITMAP
F00700
F00700
F00700
F00700
F3C700
F3C700
F3C700
F3C700
F3C700
F3C700
F3C700
F3C700
F3C700
F3C700
FFFFC0
FFFFC0
FFFFC0
FFFFC0
0003C0
0003C0
0003C0
0003C0
0003C0
ENDCHAR
STARTCHAR 044A
ENCODING 1098
SWIDTH 488 0
DWIDTH 19 0
BBX 17 18 1 0
BITMAP
FF0000
FF0000
FF0000
FF0000
1F0000
1F0000
1FFC00
1FFE00
1FFF00
1FFF80
1F0F80
1F0F80
1F0F80
1F0F80
1FFF80
1FFF00
1FFF00
1FFC00
ENDCHAR
STARTCHAR 044B
ENCODING 1099
SWIDTH 488 0
DWIDTH 19 0
BBX 17 18 1 0
BITMAP
F00780
F00780
F00780
F00780
F00780
F00780
FF8780
FFC780
FFE780
FFE780
F0F780
F0F780
F0F780
F0F780
F1E780
FFE780
FFC780
FF8780
ENDCHAR
STARTCHAR 044C
ENCODING 1100
SWIDTH 488 0
DWIDTH 19 0
BBX 16 18 2 0
BITMAP
F800
F800
F800
F800
F800
F800
FFF0
FFFC
FFFE
FFFF
F81F
F81F
F81F
F81F
FFFF
FFFE
FFFE
FFF8
ENDCHAR
STARTCHAR 044D
ENCODING 1101
SWIDTH 488 0
DWIDTH 19 0
BBX 17 19 1 0
BITMAP
0F8000
FFF000
7FFC00
7FFE00
79FE00
003F00
001F00
000F80
0FFF80
0FFF80
0FFF80
0FFF80
000F80
001F00
003F00
7FFE00
FFFC00
FFF800
7FF000
ENDCHAR
STARTCHAR 044E
ENCODING 1102
SWIDTH 488 0
DWIDTH 19 0
BBX 18 19 1 0
BITMAP
003C00
F0FE00
F1FF00
F1FF80
F1E780
F3C780
F3C3C0
F3C3C0
FFC3C0
FFC3C0
FFC3C0
FFC3C0
F3C3C0
F3C380
F3C780
F1FF80
F1FF80
F0FF00
F07E00
ENDCHAR
STARTCHAR 044F
ENCODING 1103
SWIDTH 488 0
DWIDTH 19 0
BBX 17 19 1 0
BITMAP
00F000
0FFF80
1FFF80
3FFF80
7F0F80
7C0F80
7C0F80
7C0F80
7E0F80
3FFF80
1FFF80
0FFF80
1FFF80
1F0F80
3E0F80
7E0F80
7C0F80
F80F80
F80F80
ENDCHAR
STARTCHAR 0450
ENCODING 1104
SWIDTH 488 0
DWIDTH 19 0
BBX 17 27 1 0
BITMAP
020000
038000
07C000
0FE000
03F800
00F000
002000
000000
01E000
0FFC00
1FFE00
3FFF00
3F3F00
7C0F80
7C0F80
F80F80
FFFF80
FFFF80
FFFF80
F80000
F80000
7C0000
7E0000
3FFF00
3FFF00
1FFF00
07FF00
ENDCHAR
STARTCHAR 0451
ENCODING 1105
SWIDTH 488 0
DWIDTH 19 0
BBX 17 26 1 0
BITMAP
1E1E00
3E3E00
3F3E00
3E3E00
1E1C00
000000
000000
01E000
0FFC00
1FFE00
3FFF00
3F3F00
7C0F80
7C0F80
F80F80
FFFF80
FFFF80
FFFF80
F80000
F80000
7C0000
7E0000
3FFF00
3FFF00
1FFF00
07FF00
ENDCHAR
STARTCHAR 0452
ENCODING 1106
SWIDTH 488 0
DWIDTH 19 0
BBX 16 33 1 -6
BITMAP
0E00
3E00
3E00
FFF0
FFF0
FFF0
3E00
3E00
3EE0
3FFC
3FFE
3FFE
3FFF
3E1F
3E1F
3E1F
3E1F
3E1F
3E1F
3E1F
3E1F
3E1F
3E1F
3E1F
3E1F
3E1F
3E1F
001F
001F
01FF
03FE
03FE
03F8
ENDCHAR
STARTCHAR 0453
ENCODING 1107
SWIDTH 488 0
DWIDTH 19 0
BBX 14 26 3 1
BITMAP
00E0
01F0
07F0
0FE0
0780
0600
0000
0000
FFFC
FFFC
FFFC
FFFC
F800
F800
F800
F800
F800
F800
F800
F800
F800
F800
F800
F800
F800
F800
ENDCHAR
STARTCHAR 0454
ENCODING 1108
SWIDTH 488 0
DWIDTH 19 0
BBX 16 19 2 0
BITMAP
01F8
0FFF
1FFF
3FFE
7FCE
FC00
F800
F800
FFF0
FFF0
FFF0
FFF0
F800
F800
FE00
7FFF
3FFF
1FFF
07FF
ENDCHAR
STARTCHAR 0455
ENCODING 1109
SWIDTH 488 0
DWIDTH 19 0
BBX 15 19 2 0
BITMAP
03F0
1FFC
3FFC
7FFC
7E3C
7800
7C00
7E00
7FC0
3FF8
0FFC
03FE
007E
003E
403E
7FFE
FFFE
FFFC
3FF0
ENDCHAR
STARTCHAR 0456
ENCODING 1110
SWIDTH 488 0
DWIDTH 19 0
BBX 17 27 1 0
BITMAP
030000
078000
0FC000
0FC000
0FC000
078000
000000
000000
000000
FFC000
FFC000
FFC000
FFC000
07C000
07C000
07C000
07C000
07C000
07C000
07C000
07C000
03C000
03E080
03FF80
03FF80
01FF80
00FF80
ENDCHAR
STARTCHAR 0457
ENCODING 1111
SWIDTH 488 0
DWIDTH 19 0
BBX 17 26 1 0
BITMAP
3C3C00
3E7E00
3E7E00
3E7E00
3C3C00
000000
000000
000000
FFC000
FFC000
FFC000
FFC000
07C000
07C000
07C000
07C000
07C000
07C000
07C000
07C000
03C000
03E080
03FF80
03FF80
01FF80
00FF80
ENDCHAR
STARTCHAR 0458
ENCODING 1112
SWIDTH 488 0
DWIDTH 19 0
BBX 14 34 2 -7
BITMAP
0040
00F0
01F8
01F8
01F8
00F0
0000
0000
0000
7FFC
7FFC
7FFC
7FFC
007C
007C
007C
007C
007C
007C
007C
007C
007C
007C
007C
007C
007C
007C
0078
60F8
7FF8
FFF8
FFF0
7FE0
0200
ENDCHAR
STARTCHAR 0459
ENCODING 1113
SWIDTH 488 0
DWIDTH 19 0
BBX 19 18 0 0
BITMAP
1FF000
1FF000
1FF000
1CF000
1CF000
1CF000
1CFE00
1CFF80
1CFFC0
1CF7C0
1CF1E0
1CF1E0
1CF1E0
3CF1E0
FCF3C0
F8FFC0
F8FF80
70FF00
ENDCHAR
STARTCHAR 045A
ENCODING 1114
SWIDTH 488 0
DWIDTH 19 0
BBX 17 18 2 0
BITMAP
E3C000
E3C000
E3C000
E3C000
E3C000
E3C000
E3F800
FFFE00
FFFF00
FFDF00
E3C780
E3C780
E3C780
E3C780
E3CF00
E3FF00
E3FE00
E3FC00
ENDCHAR
STARTCHAR 045B
ENCODING 1115
SWIDTH 488 0
DWIDTH 19 0
BBX 16 27 1 0
BITMAP
0E00
3E00
3E00
FFF0
FFF0
FFF0
3E00
3E00
3EE0
3FFC
3FFE
3FFE
3FFF
3E1F
3E1F
3E1F
3E1F
3E1F
3E1F
3E1F
3E1F
3E1F
3E1F
3E1F
3E1F
3E1F
3E1F
ENDCHAR
STARTCHAR 045C
ENCODING 1116
SWIDTH 488 0
DWIDTH 19 0
BBX 17 27 2 0
BITMAP
002000
006000
01F000
03F800
0FE000
078000
020000
000000
000000
F83F00
F87E00
F87C00
F8F800
F9F000
FBF000
FFE000
FFC000
FFC000
FFE000
FBF000
F9F800
F8F800
F87C00
F87E00
F83F00
F81F00
F81F80
ENDCHAR
STARTCHAR 045D
ENCODING 1117
SWIDTH 488 0
DWIDTH 19 0
BBX 15 27 2 0
BITMAP
0400
0700
0F80
1FC0
07F0
01E0
0040
0000
0000
F81E
F83E
F87E
F8FE
F8FE
F9FE
F9FE
FBDE
FBDE
FF9E
FF1E
FF1E
FE1E
FE1E
FC1E
FC1E
F81E
F81E
ENDCHAR
STARTCHAR 045E
ENCODING 1118
SWIDTH 488 0
DWIDTH 19 0
BBX 17 34 1 -7
BITMAP
001000
1E1E00
1F3C00
1FFC00
0FF800
03F000
000000
000000
000000
7C0F80
7C0F80
7C0F80
7C0F00
3E1F00
3E1F00
3E1E00
1F1E00
1F3E00
0F3E00
0FBC00
0FBC00
07FC00
07F800
03F800
03F000
01F000
01F000
03E000
03E000
7FC000
FFC000
FF8000
FF0000
380000
ENDCHAR
STARTCHAR 045F
ENCODING 1119
SWIDTH 488 0
DWIDTH 19 0
BBX 15 23 2 -5
BITMAP
F83E
F83E
F83E
F83E
F83E
F83E
F83E
F83E
F83E
F83E
F83E
F83E
F83E
F83E
FFFE
FFFE
FFFE
FFFE
07C0
07C0
07C0
07C0
07C0
ENDCHAR
STARTCHAR 0462
ENCODING 1122
SWIDTH 488 0
DWIDTH 19 0
BBX 17 26 1 0
BITMAP
3E0000
3E0000
3E0000
FFF800
FFF800
FFF800
FFF800
3E0000
3E0000
3E0000
3FF000
3FFC00
3FFE00
3FFF00
3E3F80
3E1F80
3E0F80
3E0F80
3E0F80
3E0F80
3E0F80
3E1F80
3FFF00
3FFF00
3FFE00
3FF800
ENDCHAR
STARTCHAR 0463
ENCODING 1123
SWIDTH 488 0
DWIDTH 19 0
BBX 17 27 1 0
BITMAP
0E0000
3E0000
3E0000
3E0000
3E0000
3E0000
3E0000
3E0000
3E0000
FFF800
FFF800
FFF800
3E0000
3E0000
3E0000
3FFC00
3FFE00
3FFF00
3FFF80
3E0F80
3E0F80
3E0F80
3E0F80
3FFF80
3FFF80
3FFF00
1FFE00
ENDCHAR
STARTCHAR 0472
ENCODING 1138
SWIDTH 488 0
DWIDTH 19 0
BBX 17 26 1 -1
BITMAP
00C000
0FF800
1FFC00
3FFE00
3FFF00
7C1F00
7C0F80
780F80
F80F80
F80F80
FB0F80
FFCF80
FFFF80
FFFF80
FCFF80
F87F80
F80F80
F80F80
780F80
7C0F80
7E1F00
3FFF00
3FFE00
1FFC00
07F800
008000
ENDCHAR
STARTCHAR 0473
ENCODING 1139
SWIDTH 488 0
DWIDTH 19 0
BBX 17 20 1 -1
BITMAP
01E000
0FF800
1FFE00
3FFE00
7F7F00
7C1F80
7C0F80
F80F80
FF8F80
FFFF80
FDFF80
F87F80
F80F80
7C0F80
7C1F00
3FFF00
3FFE00
1FFC00
07F800
008000
ENDCHAR
STARTCHAR 0474
ENCODING 1140
SWIDTH 488 0
DWIDTH 19 0
BBX 20 24 0 0
BITMAP
F803E0
F807F0
780FF0
7C0FE0
7C0F00
7C1F00
7C1F00
3C1E00
3C1E00
3E1E00
3E3E00
1E3C00
1E3C00
1E3C00
1F3C00
0F7800
0F7800
0F7800
07F800
07F000
07F000
07F000
03F000
03E000
ENDCHAR
STARTCHAR 0475
ENCODING 1141
SWIDTH 488 0
DWIDTH 19 0
BBX 19 19 1 0
BITMAP
0003C0
F80FE0
F81FE0
F81FC0
783F40
7C3E00
7C3C00
7C7C00
3C7C00
3E7800
3E7800
1EF800
1EF000
1FF000
0FF000
0FE000
07E000
07C000
07C000
ENDCHAR
STARTCHAR 048A
ENCODING 1162
SWIDTH 488 0
DWIDTH 19 0
BBX 17 39 2 -7
BITMAP
1C3000
3C3C00
3FF800
1FF800
0FF000
03C000
000000
000000
F00F00
F01F00
F03F00
F03F00
F07F00
F07F00
F0FF00
F0FF00
F1FF00
F1FF00
F3DF00
F3DF00
F79F00
F71F00
FF1F00
FE1F00
FE1F00
FC1F00
FC1F00
FC1F80
F81F80
F81F80
F01F80
F01F80
000F00
000F00
001E00
001E00
003C00
001C00
000800
ENDCHAR
STARTCHAR 048B
ENCODING 1163
SWIDTH 488 0
DWIDTH 19 0
BBX 16 32 2 -6
BITMAP
0020
3C3C
3E78
3FF8
1FF0
07E0
0000
0000
0000
F81E
F83E
F87E
F8FE
F8FE
F9FE
F9FE
FBDE
FBDE
FF9E
FF1E
FF1E
FE1E
FE1E
FC1F
FC1F
F81F
F81F
001F
001E
003E
003C
0038
ENDCHAR
STARTCHAR 048C
ENCODING 1164
SWIDTH 488 0
DWIDTH 19 0
BBX 17 24 1 0
BITMAP
3E0000
3E0000
FF8000
FF8000
FF8000
FF8000
3E0000
3E0000
3E0000
3FF800
3FFE00
3FFF00
3FFF00
3E1F80
3E0F80
3E0F80
3E0F80
3E0F80
3E0F80
3E1F80
3FFF00
3FFF00
3FFC00
3FF800
ENDCHAR
STARTCHAR 048D
ENCODING 1165
SWIDTH 488 0
DWIDTH 19 0
BBX 17 19 1 0
BITMAP
3E0000
3E0000
FFF000
FFF000
FFF000
3E0000
3E0000
3FFC00
3FFE00
3FFF00
3FFF80
3E0F80
3E0F80
3E0F80
3E0F80
3FFF80
3FFF80
3FFF00
3FFC00
ENDCHAR
STARTCHAR 048E
ENCODING 1166
SWIDTH 488 0
DWIDTH 19 0
BBX 16 24 2 0
BITMAP
FFF0
FFFC
FFFE
FFFE
F83F
F81F
F81F
F80F
F8EF
F9FF
F9FF
F8FF
FFFE
FFFC
FFFC
FFFE
F81E
F80F
F80E
F800
F800
F800
F800
F800
ENDCHAR
STARTCHAR 048F
ENCODING 1167
SWIDTH 488 0
DWIDTH 19 0
BBX 16 25 2 -6
BITMAP
07C0
FFF0
FFFC
FFFC
FCFE
F83F
F81F
F81F
F81F
F80F
F80F
F8DF
FBDF
F9FF
F9FF
FFFE
FFFE
FFFC
FFFC
F83E
F81E
F81E
F808
F800
F800
ENDCHAR
STARTCHAR 0490
ENCODING 1168
SWIDTH 488 0
DWIDTH 19 0
BBX 17 29 1 0
BITMAP
000780
000780
000780
000780
000780
0FFF80
0FFF80
0FFF80
0FFF80
0F8000
0F8000
0F8000
0F8000
0F8000
0F8000
0F8000
0F8000
0F8000
0F8000
0F8000
0F8000
0F8000
0F8000
0F8000
0F8000
FFFC00
FFFC00
FFFC00
FFFC00
ENDCHAR
STARTCHAR 0491
ENCODING 1169
SWIDTH 488 0
DWIDTH 19 0
BBX 14 23 3 0
BITMAP
003C
003C
003C
003C
003C
FFFC
FFFC
FFFC
FFFC
F800
F800
F800
F800
F800
F800
F800
F800
F800
F800
F800
F800
F800
F800
ENDCHAR
STARTCHAR 0492
ENCODING 1170
SWIDTH 488 0
DWIDTH 19 0
BBX 18 24 1 0
BITMAP
0FFFC0
0FFFC0
0FFFC0
0FFFC0
0F8000
0F8000
0F8000
0F8000
0F8000
0F8000
FFFC00
FFFC00
FFFC00
FFFC00
0F8000
0F8000
0F8000
0F8000
0F8000
0F8000
FFFC00
FFFC00
FFFC00
FFFC00
ENDCHAR
STARTCHAR 0493
ENCODING 1171
SWIDTH 488 0
DWIDTH 19 0
BBX 16 18 1 0
BITMAP
3FFF
3FFF
3FFF
3FFF
3E00
3E00
3E00
3E00
FFF0
FFF0
FFF0
FFF0
3E00
3E00
3E00
3E00
3E00
3E00
ENDCHAR
STARTCHAR 0494
ENCODING 1172
SWIDTH 488 0
DWIDTH 19 0
BBX 17 31 2 -7
BITMAP
FFFE00
FFFE00
FFFE00
FFFE00
F80000
F80000
F80000
F80000
F80000
FFF000
FFF800
FFFC00
FFFE00
F83F00
F81F00
F81F00
F80F00
F80F00
F80F80
F80F80
F80F80
F80F00
F80F00
F80F00
001F00
003E00
07FE00
07FC00
0FF800
0FF000
020000
ENDCHAR
STARTCHAR 0495
ENCODING 1173
SWIDTH 488 0
DWIDTH 19 0
BBX 16 24 2 -6
BITMAP
FFFC
FFFC
FFFC
FFFC
F800
F800
F800
FFF0
FFF8
FFFC
FFFE
F83E
F81F
F81F
F80F
F80F
F80F
F80F
001F
001F
007E
03FE
03FC
03F0
ENDCHAR
STARTCHAR 0496
ENCODING 1174
SWIDTH 488 0
DWIDTH 19 0
BBX 19 30 0 -6
BITMAP
78F1E0
78F1E0
78F3C0
38F3C0
3CF380
1CF780
1EF700
0EF700
0EFE00
07FE00
07FC00
07FC00
07FE00
0EFE00
1EFF00
1EF700
1CF780
3CF380
3CF3C0
78F3C0
78F3E0
78F1E0
78F1E0
F0F1E0
0000E0
0000E0
0000E0
0000E0
0000E0
0000E0
ENDCHAR
STARTCHAR 0497
ENCODING 1175
SWIDTH 488 0
DWIDTH 19 0
BBX 18 23 1 -5
BITMAP
F1E3C0
F1E780
79E780
79EF00
3DEE00
3DFE00
1DFC00
0FFC00
0FF800
1FFC00
1DFE00
3DFE00
3DEF00
79EF00
79E7C0
71E7C0
F1E7C0
F1E3C0
0001C0
0001C0
0001C0
0001C0
0001C0
ENDCHAR
STARTCHAR 0498
ENCODING 1176
SWIDTH 488 0
DWIDTH 19 0
BBX 18 32 1 -7
BITMAP
03C000
3FF800
7FFE00
7FFF00
3FFF00
301F00
000F80
000F80
000F00
001F00
00FE00
0FFC00
0FFC00
0FFF00
0FFF00
000F80
000F80
0007C0
0007C0
000FC0
601F80
7FFF80
FFFF00
FFFE00
3FFC00
01C000
01E000
00F000
007000
07F000
07E000
018000
ENDCHAR
STARTCHAR 0499
ENCODING 1177
SWIDTH 488 0
DWIDTH 19 0
BBX 15 26 2 -7
BITMAP
0780
7FF0
7FF8
7FFC
7FFC
003C
003C
007C
1FF8
1FF0
1FFC
1FFC
003E
003E
403E
7FFE
FFFC
FFFC
7FF0
0380
07C0
01E0
01E0
1FE0
1FC0
0600
ENDCHAR
STARTCHAR 049A
ENCODING 1178
SWIDTH 488 0
DWIDTH 19 0
BBX 16 30 2 -6
BITMAP
F83E
F87E
F87C
F8FC
F8F8
F9F0
F9F0
FBE0
FFC0
FFC0
FF80
FF80
FFC0
FFE0
FBE0
F9F0
F9F8
F8F8
F8FC
F87C
F83F
F83F
F83F
F81F
000F
000F
000F
000F
000F
000F
ENDCHAR
STARTCHAR 049B
ENCODING 1179
SWIDTH 488 0
DWIDTH 19 0
BBX 16 23 2 -5
BITMAP
F87E
F87C
F8F8
F9F0
F9E0
FBE0
FBC0
FF80
FF80
FFC0
FBE0
F9F0
F9F0
F8F8
F87F
F87F
F83F
F83F
001F
001F
001F
001F
001F
ENDCHAR
STARTCHAR 049C
ENCODING 1180
SWIDTH 488 0
DWIDTH 19 0
BBX 18 24 1 0
BITMAP
F807C0
F80F80
F80F80
F80F00
FB9F00
FB9F00
FBBE00
FBBE00
FBFC00
FBF800
FFF800
FFF000
FFF800
FBF800
FBFC00
FBBC00
FBBE00
FB9F00
F81F00
F80F00
F80F80
F80780
F807C0
F807C0
ENDCHAR
STARTCHAR 049D
ENCODING 1181
SWIDTH 488 0
DWIDTH 19 0
BBX 18 18 1 0
BITMAP
F807C0
F80F80
F80F00
FB9F00
FBBE00
FBBC00
FBF800
FFF000
FFF800
FBFC00
FBBC00
FBBE00
FB9F00
FB9F00
F80F80
F80F80
F80780
F807C0
ENDCHAR
STARTCHAR 049E
ENCODING 1182
SWIDTH 488 0
DWIDTH 19 0
BBX 18 26 1 0
BITMAP
3E0000
3E0000
3E0FC0
FF8F80
FF8F80
FF9F00
3E1F00
3E3E00
3E7C00
3E7C00
3EF800
3FF000
3FF000
3FE000
3FF000
3FF800
3EF800
3E7C00
3E3E00
3E3E00
3E1F00
3E1F00
3E0F80
3E0F80
3E07C0
3E07C0
ENDCHAR
STARTCHAR 049F
ENCODING 1183
SWIDTH 488 0
DWIDTH 19 0
BBX 18 20 1 0
BITMAP
7C0000
7C0000
FF9F80
FF9F00
7C3F00
7C7E00
7C7C00
7CF800
7DF000
7FC000
7FE000
7FF000
7DF800
7CFC00
7C7C00
7C3E00
7C3F00
7C1F80
7C0F80
7C0FC0
ENDCHAR
STARTCHAR 04A0
ENCODING 1184
SWIDTH 488 0
DWIDTH 19 0
BBX 18 24 1 0
BITMAP
FF0F80
FF0F80
FF1F00
FF1F00
1F1F00
1F3E00
1F3E00
1F7C00
1F7800
1FF800
1FF000
1FF000
1FF800
1FF800
1F7C00
1F7E00
1F3E00
1F3F00
1F1F00
1F1F00
1F0F80
1F0F80
1F0FC0
1F0FC0
ENDCHAR
STARTCHAR 04A1
ENCODING 1185
SWIDTH 488 0
DWIDTH 19 0
BBX 18 18 1 0
BITMAP
FE1F80
FE1F00
FE3E00
FE3E00
1E7C00
1EF800
1EF000
1FE000
1FF000
1EF800
1EF800
1E7C00
1E3E00
1E3E00
1E1F00
1E1F80
1E0F80
1E0FC0
ENDCHAR
STARTCHAR 04A2
ENCODING 1186
SWIDTH 488 0
DWIDTH 19 0
BBX 16 30 2 -6
BITMAP
F83E
F83E
F83E
F83E
F83E
F83E
F83E
F83E
F83E
FFFE
FFFE
FFFE
FFFE
F83E
F83E
F83E
F83E
F83E
F83E
F83E
F83F
F83F
F83F
F83F
000F
000F
000F
000F
000F
000F
ENDCHAR
STARTCHAR 04A3
ENCODING 1187
SWIDTH 488 0
DWIDTH 19 0
BBX 16 23 2 -5
BITMAP
F83E
F83E
F83E
F83E
F83E
F83E
F83E
FFFE
FFFE
FFFE
FFFE
F83E
F83E
F83E
F83F
F83F
F83F
F83F
000F
000F
000F
000F
000F
ENDCHAR
STARTCHAR 04A4
ENCODING 1188
SWIDTH 488 0
DWIDTH 19 0
BBX 17 24 2 0
BITMAP
F8FF80
F8FF80
F8FF80
F8FF80
F8F800
F8F800
F8F800
F8F800
F8F800
FFF800
FFF800
FFF800
FFF800
F8F800
F8F800
F8F800
F8F800
F8F800
F8F800
F8F800
F8F800
F8F800
F8F800
F8F800
ENDCHAR
STARTCHAR 04A5
ENCODING 1189
SWIDTH 488 0
DWIDTH 19 0
BBX 17 18 2 0
BITMAP
F87F80
F87F80
F87F80
F87F80
F87C00
F87C00
F87C00
FFFC00
FFFC00
FFFC00
FFFC00
F87C00
F87C00
F87C00
F87C00
F87C00
F87C00
F87C00
ENDCHAR
STARTCHAR 04A6
ENCODING 1190
SWIDTH 488 0
DWIDTH 19 0
BBX 18 30 1 -6
BITMAP
FFC000
FFC000
FFC000
FFC000
F1C000
F1C000
F1C000
F1C000
F1C000
F1FE00
F1FF00
F1FF00
F1CF80
F1C780
F1C780
F1C380
F1C380
F1C3C0
F1C3C0
F1C3C0
F1C3C0
F1C3C0
F1C380
F1C380
000780
000780
000F80
003F00
003E00
003C00
ENDCHAR
STARTCHAR 04A7
ENCODING 1191
SWIDTH 488 0
DWIDTH 19 0
BBX 18 24 1 -6
BITMAP
FFC000
FFC000
FFC000
F1C000
F1C000
F1C000
F1C000
F1FE00
F1FF00
F1FF80
F1CF80
F1C780
F1C380
F1C380
F1C3C0
F1C3C0
F1C3C0
F1C3C0
000380
000780
000F80
003F00
003F00
003E00
ENDCHAR
STARTCHAR 04A8
ENCODING 1192
SWIDTH 488 0
DWIDTH 19 0
BBX 18 31 1 -6
BITMAP
007000
07FF00
0FFE00
1FFE00
3FFE00
7E0000
7C0000
780000
F87E00
F8FF00
F0FF80
F1FF80
F1E7C0
F3E3C0
F3E3C0
F3C3C0
F3C3C0
FBC3C0
FBC7C0
7BC780
7FCF80
3FFF00
1FFE00
0FFC00
07F800
00F000
007800
007F00
003F00
001F00
000F00
ENDCHAR
STARTCHAR 04A9
ENCODING 1193
SWIDTH 488 0
DWIDTH 19 0
BBX 18 24 1 -5
BITMAP
01F800
0FFC00
1FF800
3FF800
7F9800
7C0000
F80000
F87F00
F0FF80
F1FFC0
F1F7C0
F3E3C0
FBC3C0
FBC3C0
7FC7C0
7FEF80
3FFF00
1FFE00
07FC00
00FC00
007FC0
003F80
001F80
000380
ENDCHAR
STARTCHAR 04AA
ENCODING 1194
SWIDTH 488 0
DWIDTH 19 0
BBX 17 32 1 -7
BITMAP
003000
03FF00
0FFF80
1FFF80
3FFF00
3F0100
7E0000
7C0000
7C0000
F80000
F80000
F80000
F80000
F80000
F80000
F80000
F80000
7C0000
7C0000
7E0000
3F0100
3FFF00
1FFF80
0FFF80
03FF00
00E000
01F000
007800
007800
03F800
07F000
03C000
ENDCHAR
STARTCHAR 04AB
ENCODING 1195
SWIDTH 488 0
DWIDTH 19 0
BBX 16 26 2 -7
BITMAP
01F8
0FFF
1FFE
3FFE
7FDE
7C00
F800
F800
F800
F800
F800
F800
F800
FC00
7E00
7FFF
3FFF
1FFF
07FF
01C0
03E0
00F0
00F0
07F0
0FE0
0780
ENDCHAR
STARTCHAR 04AC
ENCODING 1196
SWIDTH 488 0
DWIDTH 19 0
BBX 17 30 1 -6
BITMAP
FFFF80
FFFF80
FFFF80
FFFF80
03E000
03E000
03E000
03E000
03E000
03E000
03E000
03E000
03E000
03E000
03E000
03E000
03E000
03E000
03E000
03E000
03FC00
03FC00
03FC00
03FC00
007C00
007C00
007C00
007C00
007C00
007C00
ENDCHAR
STARTCHAR 04AD
ENCODING 1197
SWIDTH 488 0
DWIDTH 19 0
BBX 17 23 1 -5
BITMAP
FFFF80
FFFF80
FFFF80
FFFF80
03E000
03E000
03E000
03E000
03E000
03E000
03E000
03E000
03E000
03E000
03FE00
03FE00
03FE00
03FE00
003E00
003E00
003E00
003E00
003E00
ENDCHAR
STARTCHAR 04AE
ENCODING 1198
SWIDTH 488 0
DWIDTH 19 0
BBX 18 24 1 0
BITMAP
F807C0
F80F80
F80F80
7C0F80
7C1F00
3E1F00
3E1E00
1E3E00
1F3C00
0F3C00
0FFC00
07F800
07F000
03F000
03E000
03E000
03E000
03E000
03E000
03E000
03E000
03E000
03E000
03E000
ENDCHAR
STARTCHAR 04AF
ENCODING 1199
SWIDTH 488 0
DWIDTH 19 0
BBX 18 24 1 -6
BITMAP
F807C0
F80780
F80F80
7C0F80
7C0F00
7C1F00
3E1F00
3E3E00
3E3E00
1F3C00
1F7C00
0F7C00
0FF800
0FF800
07F000
07F000
03E000
03E000
03E000
03E000
03E000
03E000
03E000
03E000
ENDCHAR
STARTCHAR 04B0
ENCODING 1200
SWIDTH 488 0
DWIDTH 19 0
BBX 18 24 1 0
BITMAP
F807C0
F80F80
F80F80
7C0F80
7C1F00
3E1F00
3E1E00
1E3E00
1F3C00
0F3C00
0FFC00
07F800
07F000
03F000
3FFF00
3FFF00
3FFF00
3FFF00
03E000
03E000
03E000
03E000
03E000
03E000
ENDCHAR
STARTCHAR 04B1
ENCODING 1201
SWIDTH 488 0
DWIDTH 19 0
BBX 18 24 1 -6
BITMAP
F807C0
F80780
F80F80
7C0F80
7C0F00
7C1F00
3E1F00
3E3E00
3E3E00
1F3C00
1F7C00
0F7C00
0FF800
0FF800
07F000
3FFE00
3FFE00
3FFE00
03E000
03E000
03E000
03E000
03E000
03E000
ENDCHAR
STARTCHAR 04B2
ENCODING 1202
SWIDTH 488 0
DWIDTH 19 0
BBX 17 30 1 -6
BITMAP
F80F80
7C1F00
7C1F00
3E3E00
3E3E00
1E7C00
1F7800
0FF800
0FF000
07F000
07E000
07E000
07F000
0FF000
0FF800
1F7800
1F7C00
3E7C00
3E3E00
7C3E00
7C1F80
FC1F80
F80F80
F80F80
000780
000780
000780
000780
000780
000780
ENDCHAR
STARTCHAR 04B3
ENCODING 1203
SWIDTH 488 0
DWIDTH 19 0
BBX 17 23 1 -5
BITMAP
F81F00
7C1F00
3E3E00
3E3C00
1F7C00
0FF800
0FF000
07F000
03E000
07F000
0FF800
0FF800
1F7C00
3E7C00
3C3F80
7C1F80
781F80
F80F80
000780
000780
000780
000780
000780
ENDCHAR
STARTCHAR 04B4
ENCODING 1204
SWIDTH 488 0
DWIDTH 19 0
BBX 18 30 1 -6
BITMAP
FFCF00
FFCF00
FFCF00
FFCF00
3E0F00
3E0F00
3E0F00
3E0F00
3E0F00
3E0F00
3E0F00
3E0F00
3E0F00
3E0F00
3E0F00
3E0F00
3E0F00
3E0F00
3E0F00
3FFFC0
3FFFC0
3FFFC0
3FFFC0
3FFFC0
0007C0
0007C0
0007C0
0007C0
0007C0
0007C0
ENDCHAR
STARTCHAR 04B5
ENCODING 1205
SWIDTH 488 0
DWIDTH 19 0
BBX 17 23 1 -5
BITMAP
FF8F00
FF8F00
FF8F00
3E0F00
3E0F00
3E0F00
3E0F00
3E0F00
3E0F00
3E0F00
3E0F00
3E0F00
3E0F00
3E0F00
3FFF80
3FFF80
3FFF80
3FFF80
000780
000780
000780
000780
000780
ENDCHAR
STARTCHAR 04B6
ENCODING 1206
SWIDTH 488 0
DWIDTH 19 0
BBX 16 30 2 -6
BITMAP
F83E
F83E
F83E
F83E
F83E
F83E
F83E
F83E
F83E
F83E
F83E
FC3E
7FFE
7FFE
3FFE
1FFE
003E
003E
003E
003E
003F
003F
003F
003F
000F
000F
000F
000F
000F
000F
ENDCHAR
STARTCHAR 04B7
ENCODING 1207
SWIDTH 488 0
DWIDTH 19 0
BBX 16 23 2 -5
BITMAP
F03C
F03C
F03C
F03C
F03C
F03C
F83C
F83C
FFFC
FFFC
7FFC
1FFC
003C
003C
003F
003F
003F
003F
001F
001F
001F
001F
001F
ENDCHAR
STARTCHAR 04B8
ENCODING 1208
SWIDTH 488 0
DWIDTH 19 0
BBX 17 24 1 0
BITMAP
F80F80
F80F80
F80F80
F80F80
F80F80
F80F80
F80F80
F80F80
F9CF80
F9CF80
F9CF80
7DCF80
7FFF80
3FFF80
3FFF80
0FFF80
01CF80
01CF80
01CF80
01CF80
000F80
000F80
000F80
000F80
ENDCHAR
STARTCHAR 04B9
ENCODING 1209
SWIDTH 488 0
DWIDTH 19 0
BBX 16 18 2 0
BITMAP
F81F
F81F
F81F
F81F
F81F
FB9F
FB9F
FB9F
FFFF
7FFF
7FFF
1FFF
039F
039F
039F
001F
001F
001F
ENDCHAR
STARTCHAR 04BA
ENCODING 1210
SWIDTH 488 0
DWIDTH 19 0
BBX 16 24 2 0
BITMAP
F800
F800
F800
F800
F800
F800
F800
F800
FFF0
FFFC
FFFE
FFFE
F83F
F81F
F81F
F81F
F81F
F81F
F81F
F81F
F81F
F81F
F81F
F81F
ENDCHAR
STARTCHAR 04BB
ENCODING 1211
SWIDTH 488 0
DWIDTH 19 0
BBX 15 27 2 0
BITMAP
3800
F800
F800
F800
F800
F800
F800
F800
F9C0
FFF0
FFFC
FFFC
FFFE
F83E
F83E
F83E
F83E
F83E
F83E
F83E
F83E
F83E
F83E
F83E
F83E
F83E
F83E
ENDCHAR
STARTCHAR 04BC
ENCODING 1212
SWIDTH 488 0
DWIDTH 19 0
BBX 19 26 0 -1
BITMAP
001800
007F00
00FF80
00FF80
01F7C0
01E3C0
73C3C0
F3C1C0
F3C1E0
F3C1E0
7FC1E0
7FFFE0
3FFFE0
0FFFE0
03C000
03C000
03C000
03C000
03C000
01E000
01E000
01F9C0
00FFC0
007FE0
003FC0
000400
ENDCHAR
STARTCHAR 04BD
ENCODING 1213
SWIDTH 488 0
DWIDTH 19 0
BBX 18 19 0 0
BITMAP
001C00
00FE00
01FF00
61FF80
F3E780
F3C3C0
F3C3C0
7F83C0
7FFFC0
3FFFC0
1FFFC0
078000
07C000
03C000
03C000
03FB80
01FF80
00FF80
007F80
ENDCHAR
STARTCHAR 04BE
ENCODING 1214
SWIDTH 488 0
DWIDTH 19 0
BBX 19 30 0 -5
BITMAP
001800
007F00
00FF80
00FF80
01F7C0
01E3C0
73C3C0
F3C1C0
F3C1E0
F3C1E0
7FC1E0
7FFFE0
3FFFE0
0FFFE0
03C000
03C000
03C000
03C000
03C000
01E000
01E000
01F9C0
00FFC0
007FE0
003FC0
001E00
001E00
001E00
001E00
001E00
ENDCHAR
STARTCHAR 04BF
ENCODING 1215
SWIDTH 488 0
DWIDTH 19 0
BBX 18 24 0 -5
BITMAP
001C00
00FE00
01FF00
61FF80
F3E780
F3C3C0
F3C3C0
7F83C0
7FFFC0
3FFFC0
1FFFC0
078000
07C000
03C000
03C000
03FB80
01FF80
00FF80
007F80
003C00
003C00
003C00
003C00
003C00
ENDCHAR
STARTCHAR 04C0
ENCODING 1216
SWIDTH 488 0
DWIDTH 19 0
BBX 15 24 2 0
BITMAP
FFFE
FFFE
FFFE
FFFE
07C0
07C0
07C0
07C0
07C0
07C0
07C0
07C0
07C0
07C0
07C0
07C0
07C0
07C0
07C0
07C0
FFFE
FFFE
FFFE
FFFE
ENDCHAR
STARTCHAR 04C1
ENCODING 1217
SWIDTH 488 0
DWIDTH 19 0
BBX 19 32 0 0
BITMAP
060C00
0F0F00
0FFE00
07FE00
03FC00
00F000
000000
000000
78F1E0
78F1E0
78F3C0
38F3C0
3CF380
1CF780
1EF700
0EF700
0EFE00
07FE00
07FC00
07FC00
07FE00
0EFE00
1EFF00
1EF700
1CF780
3CF380
3CF3C0
78F3C0
78F3C0
78F1E0
78F1E0
F0F1E0
ENDCHAR
STARTCHAR 04C2
ENCODING 1218
SWIDTH 488 0
DWIDTH 19 0
BBX 18 27 1 0
BITMAP
001000
1E1E00
1F3C00
1FFC00
0FF800
03F000
000000
000000
000000
F1E3C0
F1E780
79E780
79EF00
3DEE00
1DFE00
1DFC00
0FFC00
0FF800
1FFC00
1DFE00
3DFE00
3DEF00
79EF00
79E780
71E780
F1E780
F1E3C0
ENDCHAR
STARTCHAR 04C3
ENCODING 1219
SWIDTH 488 0
DWIDTH 19 0
BBX 17 31 2 -7
BITMAP
F81F80
F81F00
F83E00
F87E00
F8FC00
F8F800
F9F000
FBE000
FFC000
FF8000
FFE000
FFF800
FFFC00
FFFE00
F87E00
F81F00
F81F00
F80F00
F80F80
F80F80
F80F80
F80F80
F80F00
F80F00
001F00
003F00
03FE00
03FE00
03FC00
07F000
010000
ENDCHAR
STARTCHAR 04C4
ENCODING 1220
SWIDTH 488 0
DWIDTH 19 0
BBX 16 25 2 -7
BITMAP
F83F
F87E
F87C
F8F8
F9F0
FBE0
FFC0
FFF0
FFFC
FFFE
FFFE
F83F
F81F
F80F
F80F
F80F
F80F
F80F
001F
003F
03FE
03FE
03FC
03F0
0100
ENDCHAR
STARTCHAR 04C5
ENCODING 1221
SWIDTH 488 0
DWIDTH 19 0
BBX 18 30 0 -7
BITMAP
03FF80
03FF80
03FF80
03FF80
03CF80
03CF80
03CF80
07CF80
07CF80
07CF80
07CF80
07CF80
07CF80
078F80
078F80
0F8F80
0F8F80
0F0F80
1F0F80
3F0FC0
FE0FC0
FC0FC0
7C0FC0
700FC0
0007C0
000780
000F80
000F00
001F00
000E00
ENDCHAR
STARTCHAR 04C6
ENCODING 1222
SWIDTH 488 0
DWIDTH 19 0
BBX 17 23 1 -6
BITMAP
0FFF00
0FFF00
0FFF00
0FFF00
0F1F00
0F1F00
0F1F00
0F1F00
0F1F00
0F1F00
1F1F00
1F1F00
3E1F00
3E1F00
FE1F80
FC1F80
F81F80
F01F80
000F80
000F00
001F00
001E00
001C00
ENDCHAR
STARTCHAR 04C7
ENCODING 1223
SWIDTH 488 0
DWIDTH 19 0
BBX 16 30 2 -6
BITMAP
F81F
F81F
F81F
F81F
F81F
F81F
F81F
F81F
F81F
FFFF
FFFF
FFFF
FFFF
F81F
F81F
F81F
F81F
F81F
F81F
F81F
F81F
F81F
F81F
F81F
001F
003E
03FE
03FE
03FC
03F8
ENDCHAR
STARTCHAR 04C8
ENCODING 1224
SWIDTH 488 0
DWIDTH 19 0
BBX 15 24 2 -6
BITMAP
F83E
F83E
F83E
F83E
F83E
F83E
F83E
FFFE
FFFE
FFFE
FFFE
F83E
F83E
F83E
F83E
F83E
F83E
F83E
003E
003E
03FE
07FC
07FC
07F0
ENDCHAR
STARTCHAR 04C9
ENCODING 1225
SWIDTH 488 0
DWIDTH 19 0
BBX 16 30 2 -7
BITMAP
F83E
F83E
F83E
F83E
F83E
F83E
F83E
F83E
F83E
FFFE
FFFE
FFFE
FFFE
F83E
F83E
F83E
F83E
F83E
F83E
F83F
F83F
F83F
F83F
F83F
001F
001E
003E
003C
007C
0038
ENDCHAR
STARTCHAR 04CA
ENCODING 1226
SWIDTH 488 0
DWIDTH 19 0
BBX 16 23 2 -6
BITMAP
F83E
F83E
F83E
F83E
F83E
F83E
F83E
FFFE
FFFE
FFFE
FFFE
F83E
F83E
F83E
F83F
F83F
F83F
F83F
001F
001E
003E
003C
0038
ENDCHAR
STARTCHAR 04CB
ENCODING 1227
SWIDTH 488 0
DWIDTH 19 0
BBX 16 30 2 -6
BITMAP
F81F
F81F
F81F
F81F
F81F
F81F
F81F
F81F
F81F
F81F
F81F
FC1F
7FFF
7FFF
3FFF
1FFF
001F
001F
001F
001F
00FF
00FF
00FF
00FF
00F8
00F8
00F8
00F8
00F8
00F8
ENDCHAR
STARTCHAR 04CC
ENCODING 1228
SWIDTH 488 0
DWIDTH 19 0
BBX 15 23 2 -5
BITMAP
F03E
F03E
F03E
F03E
F03E
F03E
F83E
FC3E
FFFE
7FFE
7FFE
1FFE
003E
003E
01FE
01FE
01FE
01FE
01E0
01E0
01E0
01E0
01E0
ENDCHAR
STARTCHAR 04CD
ENCODING 1229
SWIDTH 488 0
DWIDTH 19 0
BBX 18 31 1 -7
BITMAP
781E00
7C1F00
7C1F00
7C3F00
7E3F00
7E3F00
763700
767700
777700
777700
F7E700
F3E700
F3E700
F3E700
F3C780
F00780
F00780
F00780
F00780
F007C0
F007C0
F007C0
F007C0
F007C0
000780
000780
000F00
000F00
001E00
000E00
000400
ENDCHAR
STARTCHAR 04CE
ENCODING 1230
SWIDTH 488 0
DWIDTH 19 0
BBX 18 24 1 -6
BITMAP
7C1F00
7C1F00
7C3F00
7C3F00
7E3F00
7E3F00
763700
767700
F77700
F77700
F76700
F3E780
F3E780
F3E780
F3C7C0
F1C7C0
F007C0
F007C0
000780
000780
000F00
001F00
000E00
000400
ENDCHAR
STARTCHAR 04CF
ENCODING 1231
SWIDTH 488 0
DWIDTH 19 0
BBX 15 24 2 0
BITMAP
FFFE
FFFE
FFFE
FFFE
07C0
07C0
07C0
07C0
07C0
07C0
07C0
07C0
07C0
07C0
07C0
07C0
07C0
07C0
07C0
07C0
FFFE
FFFE
FFFE
FFFE
ENDCHAR
STARTCHAR 04D0
ENCODING 1232
SWIDTH 488 0
DWIDTH 19 0
BBX 19 32 0 0
BITMAP
060C00
0F0F00
0FFE00
07FE00
03FC00
00F000
000000
000000
01F800
01F800
03F800
03FC00
03FC00
07BC00
07BC00
07BE00
079E00
0F1E00
0F1F00
0F1F00
1F0F00
1F0F00
1FFF80
1FFF80
3FFF80
3FFFC0
3C07C0
7C07C0
7C07C0
7C07E0
7C03E0
F803E0
ENDCHAR
STARTCHAR 04D1
ENCODING 1233
SWIDTH 488 0
DWIDTH 19 0
BBX 15 27 2 0
BITMAP
0020
3C3C
3E78
3FF8
1FF0
07E0
0000
0000
0FC0
7FF8
3FFC
3FFC
30FE
003E
003E
001E
1FFE
7FFE
FFFE
FC1E
F81E
F01E
F81E
FE3E
FFFE
7FFE
3FFE
ENDCHAR
STARTCHAR 04D2
ENCODING 1234
SWIDTH 488 0
DWIDTH 19 0
BBX 19 32 0 0
BITMAP
040400
0F1F00
1F9F00
1F9F00
0F1F00
060600
000000
000000
01F800
01F800
03F800
03FC00
03FC00
07BC00
07BC00
07BE00
079E00
0F1E00
0F1F00
0F1F00
1F0F00
1F0F00
1FFF80
1FFF80
3FFF80
3FFFC0
3C07C0
7C07C0
7C07C0
7C07E0
7C03E0
F803E0
ENDCHAR
STARTCHAR 04D3
ENCODING 1235
SWIDTH 488 0
DWIDTH 19 0
BBX 15 26 2 0
BITMAP
3C3C
7C7C
7E7C
7C7C
3C38
0000
0000
0FC0
7FF8
3FFC
3FFC
30FE
003E
003E
001E
1FFE
7FFE
FFFE
FC1E
F81E
F01E
F81E
FE3E
FFFE
7FFE
3FFE
ENDCHAR
STARTCHAR 04D4
ENCODING 1236
SWIDTH 488 0
DWIDTH 19 0
BBX 19 24 0 0
BITMAP
01FFE0
01FFE0
01FFE0
03FFE0
03FC00
03BC00
07BC00
07BC00
07BC00
0F3FC0
0F3FC0
0F3FC0
1F3FC0
1E3C00
1FFC00
1FFC00
3FFC00
3FFC00
3C3C00
7C3C00
7C3FE0
7C3FE0
7C3FE0
F83FE0
ENDCHAR
STARTCHAR 04D5
ENCODING 1237
SWIDTH 488 0
DWIDTH 19 0
BBX 18 19 1 0
BITMAP
1E0C00
7FBF00
3FFF80
3FFF80
23F380
01E3C0
01E3C0
01E3C0
3FFFC0
7FFFC0
FFFFC0
F1E000
F1E000
F1E000
F1F000
FBFF80
7FFF80
7FFF80
3F9F80
ENDCHAR
STARTCHAR 04D6
ENCODING 1238
SWIDTH 488 0
DWIDTH 19 0
BBX 16 32 2 0
BITMAP
0C18
1E1E
1FFC
0FFC
07F8
01E0
0000
0000
FFFE
FFFE
FFFE
FFFE
F800
F800
F800
F800
F800
FFFC
FFFC
FFFC
FFFC
F800
F800
F800
F800
F800
F800
F800
FFFF
FFFF
FFFF
FFFF
ENDCHAR
STARTCHAR 04D7
ENCODING 1239
SWIDTH 488 0
DWIDTH 19 0
BBX 17 27 1 0
BITMAP
021000
1E1E00
1F3E00
0FFC00
07FC00
03F000
000000
000000
01E000
0FFC00
1FFE00
3FFF00
3F3F00
7C0F80
7C0F80
F80F80
FFFF80
FFFF80
FFFF80
F80000
F80000
7C0000
7E0000
3FFF00
3FFF00
1FFF00
07FF00
ENDCHAR
STARTCHAR 04D8
ENCODING 1240
SWIDTH 488 0
DWIDTH 19 0
BBX 17 26 1 -1
BITMAP
078000
7FF000
7FF800
7FFC00
3FFE00
003F00
001F00
000F00
000F80
000780
000780
000780
FFFF80
FFFF80
FFFF80
F00780
F00780
F80F80
F80F80
780F00
7C1F00
3F3E00
3FFE00
1FFC00
0FF000
008000
ENDCHAR
STARTCHAR 04D9
ENCODING 1241
SWIDTH 488 0
DWIDTH 19 0
BBX 17 19 1 0
BITMAP
0FC000
7FF800
7FFC00
3FFE00
3CFF00
001F00
000F80
000F80
FFFF80
FFFF80
FFFF80
FFFF80
F80F80
780F00
7C1F00
7FFF00
3FFE00
1FFC00
0FF000
ENDCHAR
STARTCHAR 04DA
ENCODING 1242
SWIDTH 488 0
DWIDTH 19 0
BBX 17 33 1 -1
BITMAP
080000
3C3C00
3E7E00
3E7E00
3E3C00
181800
000000
078000
7FF000
7FF800
7FFC00
3FFE00
003F00
001F00
000F00
000F80
000780
000780
000780
FFFF80
FFFF80
FFFF80
F00780
F00780
F80F80
F80F80
780F00
7C1F00
3F3E00
3FFE00
1FFC00
0FF000
008000
ENDCHAR
STARTCHAR 04DB
ENCODING 1243
SWIDTH 488 0
DWIDTH 19 0
BBX 17 26 1 0
BITMAP
1C3C00
3E3E00
3E3E00
3E3E00
1C1C00
000000
000000
0FC000
7FF800
7FFC00
3FFE00
3CFF00
001F00
000F80
000F80
FFFF80
FFFF80
FFFF80
FFFF80
F80F80
780F00
7C1F00
7FFF00
3FFE00
1FFC00
0FF000
ENDCHAR
STARTCHAR 04DC
ENCODING 1244
SWIDTH 488 0
DWIDTH 19 0
BBX 19 32 0 0
BITMAP
040400
0F1F00
1F9F00
1F9F00
0F1F00
060600
000000
000000
78F1E0
78F1E0
78F3C0
38F3C0
3CF380
1CF780
1EF700
0EF700
0EFE00
07FE00
07FC00
07FC00
07FE00
0EFE00
1EFF00
1EF700
1CF780
3CF380
3CF3C0
78F3C0
78F3C0
78F1E0
78F1E0
F0F1E0
ENDCHAR
STARTCHAR 04DD
ENCODING 1245
SWIDTH 488 0
DWIDTH 19 0
BBX 18 26 1 0
BITMAP
1E1E00
3E3E00
3F3E00
3E3E00
1E1C00
000000
000000
000000
F1E3C0
F1E780
79E780
79EF00
3DEE00
1DFE00
1DFC00
0FFC00
0FF800
1FFC00
1DFE00
3DFE00
3DEF00
79EF00
79E780
71E780
F1E780
F1E3C0
ENDCHAR
STARTCHAR 04DE
ENCODING 1246
SWIDTH 488 0
DWIDTH 19 0
BBX 18 33 1 -1
BITMAP
080800
1E3E00
3F3E00
3F3E00
1E3E00
0C0C00
000000
03C000
3FF800
7FFE00
7FFF00
3FFF00
301F00
000F80
000F80
000F00
001F00
00FE00
0FFC00
0FFC00
0FFF00
0FFF00
000F80
000F80
0007C0
0007C0
000FC0
601F80
7FFF80
FFFF00
FFFE00
3FFC00
010000
ENDCHAR
STARTCHAR 04DF
ENCODING 1247
SWIDTH 488 0
DWIDTH 19 0
BBX 15 27 2 -1
BITMAP
3878
7C7C
7C7C
7C7C
3838
0000
0000
0780
7FF0
7FF8
7FFC
7FFC
003C
003C
007C
1FF8
1FF0
1FFC
1FFC
003E
003E
403E
7FFE
FFFC
FFFC
7FF0
0200
ENDCHAR
STARTCHAR 04E0
ENCODING 1248
SWIDTH 488 0
DWIDTH 19 0
BBX 18 25 1 -1
BITMAP
7FFF80
7FFF80
7FFF80
7FFF80
001F00
003E00
007C00
00F800
01F000
03E000
03F000
03FE00
03FF00
007F80
000F80
0007C0
0007C0
0007C0
000FC0
601F80
7FFF80
FFFF00
FFFE00
3FFC00
018000
ENDCHAR
STARTCHAR 04E1
ENCODING 1249
SWIDTH 488 0
DWIDTH 19 0
BBX 16 24 1 -6
BITMAP
7FFF
7FFF
7FFF
7FFE
007C
007C
00F8
01F0
03E0
07C0
07F0
07FC
07FE
003E
001F
001F
001F
001F
001F
403F
7FFE
7FFE
FFFC
7FF0
ENDCHAR
STARTCHAR 04E2
ENCODING 1250
SWIDTH 488 0
DWIDTH 19 0
BBX 16 31 2 0
BITMAP
3FF8
3FF8
3FF8
3FF8
0000
0000
0000
F01F
F01F
F03F
F03F
F07F
F07F
F0FF
F0FF
F1FF
F1FF
F3DF
F39F
F79F
F71F
FF1F
FE1F
FE1F
FC1F
FC1F
FC1F
F81F
F81F
F01F
F01F
ENDCHAR
STARTCHAR 04E3
ENCODING 1251
SWIDTH 488 0
DWIDTH 19 0
BBX 15 25 2 0
BITMAP
3FF8
3FF8
3FF8
0000
0000
0000
0000
F81E
F83E
F87E
F8FE
F8FE
F9FE
F9FE
FBDE
FBDE
FF9E
FF1E
FF1E
FE1E
FE1E
FC1E
FC1E
F81E
F81E
ENDCHAR
STARTCHAR 04E4
ENCODING 1252
SWIDTH 488 0
DWIDTH 19 0
BBX 16 32 2 0
BITMAP
1010
3C7C
7E7C
7E7C
3C7C
1818
0000
0000
F01F
F01F
F03F
F03F
F07F
F07F
F0FF
F0FF
F1FF
F1FF
F3DF
F39F
F79F
F71F
FF1F
FE1F
FE1F
FC1F
FC1F
FC1F
F81F
F81F
F01F
F01F
ENDCHAR
STARTCHAR 04E5
ENCODING 1253
SWIDTH 488 0
DWIDTH 19 0
BBX 15 26 2 0
BITMAP
3C3C
7C7C
7E7C
7C7C
3C38
0000
0000
0000
F81E
F83E
F87E
F8FE
F8FE
F9FE
F9FE
FBDE
FBDE
FF9E
FF1E
FF1E
FE1E
FE1E
FC1E
FC1E
F81E
F81E
ENDCHAR
STARTCHAR 04E6
ENCODING 1254
SWIDTH 488 0
DWIDTH 19 0
BBX 17 33 1 -1
BITMAP
080800
1E3E00
3F3E00
3F3E00
1E3E00
0C0C00
000000
00C000
0FF800
1FFC00
3FFE00
3FFF00
7C1F00
7C0F80
780F80
F80F80
F80F80
F80F80
F80F80
F80780
F80780
F80F80
F80F80
F80F80
F80F80
780F80
7C0F80
7E1F00
3FFF00
3FFE00
1FFC00
07F800
008000
ENDCHAR
STARTCHAR 04E7
ENCODING 1255
SWIDTH 488 0
DWIDTH 19 0
BBX 17 27 1 -1
BITMAP
1E1E00
3E3E00
3F3E00
3E3E00
1E1C00
000000
000000
01E000
0FF800
1FFE00
3FFE00
7F7F00
7C1F80
7C0F80
F80F80
F80F80
F80F80
F80F80
F80F80
F80F80
7C0F80
7C1F00
3FFF00
3FFE00
1FFC00
07F800
008000
ENDCHAR
STARTCHAR 04E8
ENCODING 1256
SWIDTH 488 0
DWIDTH 19 0
BBX 17 26 1 -1
BITMAP
00C000
0FF800
1FFC00
3FFE00
3FFF00
7C1F00
7C0F80
780F80
F80F80
F80F80
F80F80
FFFF80
FFFF80
FFFF80
FFFF80
F80F80
F80F80
F80F80
780F80
7C0F80
7E1F00
3FFF00
3FFE00
1FFC00
07F800
008000
ENDCHAR
STARTCHAR 04E9
ENCODING 1257
SWIDTH 488 0
DWIDTH 19 0
BBX 17 20 1 -1
BITMAP
01E000
0FF800
1FFE00
3FFE00
7F7F00
7C1F80
7C0F80
F80F80
FFFF80
FFFF80
FFFF80
F80F80
F80F80
7C0F80
7C1F00
3FFF00
3FFE00
1FFC00
07F800
008000
ENDCHAR
STARTCHAR 04EA
ENCODING 1258
SWIDTH 488 0
DWIDTH 19 0
BBX 17 33 1 -1
BITMAP
080800
1E3E00
3F3E00
3F3E00
1E3E00
0C0C00
000000
00C000
0FF800
1FFC00
3FFE00
3FFF00
7C1F00
7C0F80
780F80
F80F80
F80F80
F80F80
FFFF80
FFFF80
FFFF80
FFFF80
F80F80
F80F80
F80F80
780F80
7C0F80
7E1F00
3FFF00
3FFE00
1FFC00
07F800
008000
ENDCHAR
STARTCHAR 04EB
ENCODING 1259
SWIDTH 488 0
DWIDTH 19 0
BBX 17 27 1 -1
BITMAP
1E1E00
3E3E00
3F3E00
3E3E00
1E1C00
000000
000000
01E000
0FF800
1FFE00
3FFE00
7F7F00
7C1F80
7C0F80
F80F80
FFFF80
FFFF80
FFFF80
F80F80
F80F80
7C0F80
7C1F00
3FFF00
3FFE00
1FFC00
07F800
008000
ENDCHAR
STARTCHAR 04EC
ENCODING 1260
SWIDTH 488 0
DWIDTH 19 0
BBX 17 33 2 -1
BITMAP
101000
7C7C00
7C7C00
7C7C00
7C7C00
183000
000000
070000
7FE000
FFF800
FFFC00
7FFE00
403E00
001F00
001F00
001F00
000F80
000F80
0FFF80
0FFF80
0FFF80
0FFF80
000F80
000F80
001F00
001F00
003F00
407E00
FFFC00
FFFC00
FFF800
7FE000
060000
ENDCHAR
STARTCHAR 04ED
ENCODING 1261
SWIDTH 488 0
DWIDTH 19 0
BBX 17 26 1 0
BITMAP
1C3C00
3E3E00
3E3E00
3E3E00
1C1C00
000000
000000
0F8000
FFF000
7FFC00
7FFE00
79FE00
003F00
001F00
000F80
0FFF80
0FFF80
0FFF80
0FFF80
000F80
001F00
003F00
7FFE00
FFFC00
FFF800
7FF000
ENDCHAR
STARTCHAR 04EE
ENCODING 1262
SWIDTH 488 0
DWIDTH 19 0
BBX 19 32 0 -1
BITMAP
0FFE00
0FFE00
0FFE00
0FFE00
000000
000000
000000
FC03E0
7C07E0
7E07C0
3E07C0
3E0FC0
1F0F80
1F0F80
0F8F80
0F9F00
07DF00
07DF00
03FE00
03FE00
01FE00
00FC00
00FC00
007800
00F800
00F800
01F000
3FF000
3FE000
7FC000
7F8000
040000
ENDCHAR
STARTCHAR 04EF
ENCODING 1263
SWIDTH 488 0
DWIDTH 19 0
BBX 17 32 1 -7
BITMAP
1FFC00
1FFC00
1FFC00
000000
000000
000000
000000
7C0F80
7C0F80
7C0F80
7C0F00
3E1F00
3E1F00
3E1E00
1F1E00
1F3E00
0F3E00
0FBC00
0FBC00
07FC00
07F800
03F800
03F000
01F000
01F000
03E000
03E000
7FC000
FFC000
FF8000
FF0000
380000
ENDCHAR
STARTCHAR 04F0
ENCODING 1264
SWIDTH 488 0
DWIDTH 19 0
BBX 19 33 0 -1
BITMAP
040400
0F1F00
1F9F00
1F9F00
0F1F00
060600
000000
000000
FC03E0
7C07E0
7E07C0
3E07C0
3E0FC0
1F0F80
1F0F80
0F8F80
0F9F00
07DF00
07DF00
03FE00
03FE00
01FE00
00FC00
00FC00
007800
00F800
00F800
01F000
3FF000
3FE000
7FC000
7F8000
040000
ENDCHAR
STARTCHAR 04F1
ENCODING 1265
SWIDTH 488 0
DWIDTH 19 0
BBX 17 33 1 -7
BITMAP
1E1E00
1F3F00
1F3F00
1F3F00
1E1E00
000000
000000
000000
7C0F80
7C0F80
7C0F80
7C0F00
3E1F00
3E1F00
3E1E00
1F1E00
1F3E00
0F3E00
0FBC00
0FBC00
07FC00
07F800
03F800
03F000
01F000
01F000
03E000
03E000
7FC000
FFC000
FF8000
FF0000
380000
ENDCHAR
STARTCHAR 04F2
ENCODING 1266
SWIDTH 488 0
DWIDTH 19 0
BBX 19 33 0 -1
BITMAP
00C180
01E3C0
03E7C0
07CF80
0F9F00
060C00
000000
000000
FC03E0
7C07E0
7E07C0
3E07C0
3E0FC0
1F0F80
1F0F80
0F8F80
0F9F00
07DF00
07DF00
03FE00
03FE00
01FE00
00FC00
00FC00
007800
00F800
00F800
01F000
3FF000
3FE000
7FC000
7F8000
040000
ENDCHAR
STARTCHAR 04F3
ENCODING 1267
SWIDTH 488 0
DWIDTH 19 0
BBX 17 34 1 -7
BITMAP
010200
038700
03C780
07CF80
0F1E00
1E3C00
0C1800
000000
000000
7C0F80
7C0F80
7C0F80
7C0F00
3E1F00
3E1F00
3E1E00
1F1E00
1F3E00
0F3E00
0FBC00
0FBC00
07FC00
07F800
03F800
03F000
01F000
01F000
03E000
03E000
7FC000
FFC000
FF8000
FF0000
380000
ENDCHAR
STARTCHAR 04F4
ENCODING 1268
SWIDTH 488 0
DWIDTH 19 0
BBX 16 32 2 0
BITMAP
1010
3C7C
7E7C
7E7C
3C7C
1818
0000
0000
F81F
F81F
F81F
F81F
F81F
F81F
F81F
F81F
F81F
F81F
F81F
FC1F
7FFF
7FFF
3FFF
1FFF
001F
001F
001F
001F
001F
001F
001F
001F
ENDCHAR
STARTCHAR 04F5
ENCODING 1269
SWIDTH 488 0
DWIDTH 19 0
BBX 15 26 2 0
BITMAP
3C3C
7C7C
7E7C
7C7C
3C38
0000
0000
0000
F03E
F03E
F03E
F03E
F03E
F03E
F83E
FC3E
FFFE
7FFE
7FFE
1FFE
003E
003E
003E
003E
003E
003E
ENDCHAR
STARTCHAR 04F6
ENCODING 1270
SWIDTH 488 0
DWIDTH 19 0
BBX 18 29 1 -5
BITMAP
0FFFC0
0FFFC0
0FFFC0
0FFFC0
0F8000
0F8000
0F8000
0F8000
0F8000
0F8000
0F8000
0F8000
0F8000
0F8000
0F8000
0F8000
0F8000
0F8000
0F8000
0F8000
FFFC00
FFFC00
FFFC00
FFFC00
007C00
007C00
007C00
007C00
007C00
ENDCHAR
STARTCHAR 04F7
ENCODING 1271
SWIDTH 488 0
DWIDTH 19 0
BBX 14 23 3 -5
BITMAP
FFFC
FFFC
FFFC
FFFC
F800
F800
F800
F800
F800
F800
F800
F800
F800
F800
FF80
FF80
FF80
FF80
0F80
0F80
0F80
0F80
0F80
ENDCHAR
STARTCHAR 04F8
ENCODING 1272
SWIDTH 488 0
DWIDTH 19 0
BBX 17 32 1 0
BITMAP
080800
1E3E00
3F3E00
3F3E00
1E3E00
0C0C00
000000
000000
F00780
F00780
F00780
F00780
F00780
F00780
F00780
F00780
FF0780
FFC780
FFE780
FFE780
F1E780
F0F780
F0F780
F0F780
F0F780
F0F780
F0F780
F1F780
FFE780
FFE780
FFC780
FF8780
ENDCHAR
STARTCHAR 04F9
ENCODING 1273
SWIDTH 488 0
DWIDTH 19 0
BBX 17 26 1 0
BITMAP
1E1E00
3E3E00
3F3E00
3E3E00
1E1C00
000000
000000
000000
F00780
F00780
F00780
F00780
F00780
F00780
FF8780
FFC780
FFE780
FFE780
F0F780
F0F780
F0F780
F0F780
F1E780
FFE780
FFC780
FF8780
ENDCHAR
ENDFONT
